<svg width="24in" height="18in" version="1.1" viewBox="0 0 609.6 457.2" xmlns="http://www.w3.org/2000/svg">
 <g transform="matrix(.00254 0 0 .00254 51.004 -39.888)">
  <g fill-opacity="0" stroke="#000" stroke-linecap="round" stroke-linejoin="round" stroke-width="39.37">
   <g transform="translate(-4762.9 -1825.2)" fill-opacity="0" stroke="#000" stroke-linecap="round" stroke-linejoin="round" stroke-width="39.37">
    <path d="m63332 81023h-43284"/>
    <path d="m111013 81023h43303"/>
    <path d="m63332 41535h-43284"/>
    <path d="m154316 41535h-43303"/>
    <path d="m18233 43350v35858"/>
    <path d="m109411 81949a1068.5 1068.5 0 0 0 2137 0"/>
    <path d="m111547 81948-534-925"/>
    <path d="m109945 81023-534 925"/>
    <path d="m111548 40610a1068.5 1068.5 0 0 0-2137 0"/>
    <path d="m109411 40610 534 925"/>
    <path d="m111013 41535 534-925"/>
    <path d="m109945 81023h-45545"/>
    <path d="m64935 81948-535-925"/>
    <path d="m62798 81949a1068.3 1068.3 0 0 0 2136.6 0"/>
    <path d="m63332 81023-534 925"/>
    <path d="m64400 41535 535-925"/>
    <path d="m62798 40610 534 925"/>
    <path d="m64935 40610a1068.3 1068.3 0 0 0-2136.6 0"/>
    <path d="m17253 41690-925-534"/>
    <path d="m18179 40088a1068.3 1068.3 0 1 0-1850.4 1068.3"/>
    <path d="m18179 40622v534"/>
    <path d="m17253 41690 926-534"/>
    <path d="m18179 40622v-535"/>
    <path d="m18322 81866-534 925"/>
    <path d="m16720 80941a1068.3 1068.3 0 0 0 1068.3 1850.4"/>
    <path d="m17253 80940h535"/>
    <path d="m18322 81866-534-926"/>
    <path d="m17253 80940h-534"/>
    <path d="m157092 80797 925 534"/>
    <path d="m156167 82400a1068.6 1068.6 0 0 0 1851-1068.3"/>
    <path d="m156167 81866v-535"/>
    <path d="m157092 80797-925 534"/>
    <path d="m156167 81866v534"/>
    <path d="m157627 41547a1068.5 1068.5 0 0 0-1069-1850.3"/>
    <path d="m157092 41547h-534"/>
    <path d="m156024 40622 534 925"/>
    <path d="m157092 41547h534"/>
    <path d="m156024 40622 534-926"/>
    <path d="m64400 41535h45545"/>
    <path d="m156132 43350a1815 1815 0 0 0-1815-1815"/>
    <path d="m154317 81024a1815 1815 0 0 0 1815-1814.9"/>
    <path d="m18233 79209a1815 1815 0 0 0 1814.9 1814.9"/>
    <path d="m20048 41535a1815 1815 0 0 0-1814.9 1815"/>
    <path d="m17172 38524a1952.8 1952.8 0 0 0-1952.7 1952.8"/>
    <path d="m15219 40476v41606"/>
    <path d="m15220 82083a1952.8 1952.8 0 0 0 1952.7 1952.7"/>
    <path d="m157193 84035a1952.8 1952.8 0 0 0 1953-1952.7"/>
    <path d="m157192 84035h-140020"/>
    <path d="m159146 40476a1952.8 1952.8 0 0 0-1953-1952.8"/>
    <path d="m157192 38523h-140020"/>
    <path d="m159145 40476v41606"/>
    <path d="m156131 43350v35858"/>
   </g>
  </g>
 </g>
</svg>
