<svg width="24in" height="18in" version="1.1" viewBox="0 0 609.6 457.2" xmlns="http://www.w3.org/2000/svg">
 <g transform="matrix(.00254 0 0 .00254 51.004 -39.888)">
  <g fill-opacity="0" stroke="#000" stroke-linecap="round" stroke-linejoin="round" stroke-width="39.37">
   <g transform="translate(-4762.9 -1825.2)" fill-opacity="0" stroke="#000" stroke-linecap="round" stroke-linejoin="round" stroke-width="39.37">
    <path d="m35297 41023h9963"/>
    <path d="m45260 44035h-7087"/>
    <path d="m49985 44035v-3012"/>
    <path d="m45260 44035v-3012"/>
    <path d="m81457 83523h-43284"/>
    <path d="m129138 83523h43303"/>
    <path d="m81457 44035h-31472"/>
    <path d="m172441 44035h-43303"/>
    <path d="m36358 45850v35858"/>
    <path d="m127536 84449a1068.5 1068.5 0 0 0 2137 0"/>
    <path d="m129672 84448-534-925"/>
    <path d="m128070 83523-534 925"/>
    <path d="m129673 43110a1068.5 1068.5 0 0 0-2137 0"/>
    <path d="m127536 43110 534 925"/>
    <path d="m129138 44035 534-925"/>
    <path d="m128070 83523h-45545"/>
    <path d="m83060 84448-535-925"/>
    <path d="m80924 84449a1068.3 1068.3 0 0 0 2136.6 0"/>
    <path d="m81457 83523-534 925"/>
    <path d="m82525 44035 535-925"/>
    <path d="m80923 43110 534 925"/>
    <path d="m83060 43110a1068.3 1068.3 0 0 0-2136.6 0"/>
    <path d="m35378 44190-925-534"/>
    <path d="m36304 42588a1068.3 1068.3 0 1 0-1850.4 1068.3"/>
    <path d="m36304 43122v534"/>
    <path d="m35378 44190 926-534"/>
    <path d="m36304 43122v-535"/>
    <path d="m36447 84366-534 925"/>
    <path d="m34845 83441a1068.3 1068.3 0 0 0 1068.3 1850.4"/>
    <path d="m35378 83440h535"/>
    <path d="m36447 84366-534-926"/>
    <path d="m35378 83440h-534"/>
    <path d="m175217 83297 925 534"/>
    <path d="m174292 84900a1068.6 1068.6 0 0 0 1851-1068.3"/>
    <path d="m174292 84366v-535"/>
    <path d="m175217 83297-925 534"/>
    <path d="m174292 84366v534"/>
    <path d="m175752 44047a1068.5 1068.5 0 0 0-1069-1850.3"/>
    <path d="m175217 44047h-534"/>
    <path d="m174149 43122 534 925"/>
    <path d="m175217 44047h534"/>
    <path d="m174149 43122 534-926"/>
    <path d="m82525 44035h45545"/>
    <path d="m174257 45850a1815 1815 0 0 0-1815-1815"/>
    <path d="m172442 83524a1815 1815 0 0 0 1815-1814.9"/>
    <path d="m36358 81709a1815 1815 0 0 0 1814.9 1814.9"/>
    <path d="m38173 44035a1815 1815 0 0 0-1814.9 1815"/>
    <path d="m35297 41024a1952.8 1952.8 0 0 0-1952.7 1952.8"/>
    <path d="m33344 42976v41606"/>
    <path d="m33344 84583a1952.8 1952.8 0 0 0 1952.7 1952.7"/>
    <path d="m175318 86535a1952.8 1952.8 0 0 0 1953-1952.7"/>
    <path d="m175317 86535h-140020"/>
    <path d="m177271 42976a1952.8 1952.8 0 0 0-1953-1952.8"/>
    <path d="m175317 41023h-125332"/>
    <path d="m177270 42976v41606"/>
    <path d="m174256 45850v35858"/>
   </g>
  </g>
 </g>
</svg>
