%TF.GenerationSoftware,KiCad,Pcbnew,(5.1.6-0-10_14)*%
%TF.CreationDate,2021-09-05T18:40:08-05:00*%
%TF.ProjectId,EVO70_FR4_base,45564f37-305f-4465-9234-5f626173652e,rev?*%
%TF.SameCoordinates,Original*%
%TF.FileFunction,Soldermask,Top*%
%TF.FilePolarity,Negative*%
%FSLAX46Y46*%
G04 Gerber Fmt 4.6, Leading zero omitted, Abs format (unit mm)*
G04 Created by KiCad (PCBNEW (5.1.6-0-10_14)) date 2021-09-05 18:40:08*
%MOMM*%
%LPD*%
G01*
G04 APERTURE LIST*
%ADD10C,0.100000*%
G04 APERTURE END LIST*
D10*
G36*
X281201709Y-206226859D02*
G01*
X281565686Y-206377623D01*
X281893253Y-206596496D01*
X282171834Y-206875077D01*
X282390707Y-207202644D01*
X282541471Y-207566621D01*
X282618330Y-207953017D01*
X282618330Y-208346983D01*
X282541471Y-208733379D01*
X282390707Y-209097356D01*
X282171834Y-209424923D01*
X281893253Y-209703504D01*
X281565686Y-209922377D01*
X281201709Y-210073141D01*
X280815313Y-210150000D01*
X280421347Y-210150000D01*
X280034951Y-210073141D01*
X279670974Y-209922377D01*
X279343407Y-209703504D01*
X279064826Y-209424923D01*
X278845953Y-209097356D01*
X278695189Y-208733379D01*
X278618330Y-208346983D01*
X278618330Y-207953017D01*
X278695189Y-207566621D01*
X278845953Y-207202644D01*
X279064826Y-206875077D01*
X279343407Y-206596496D01*
X279670974Y-206377623D01*
X280034951Y-206226859D01*
X280421347Y-206150000D01*
X280815313Y-206150000D01*
X281201709Y-206226859D01*
G37*
G36*
X162805079Y-206226859D02*
G01*
X163169056Y-206377623D01*
X163496623Y-206596496D01*
X163775204Y-206875077D01*
X163994077Y-207202644D01*
X164144841Y-207566621D01*
X164221700Y-207953017D01*
X164221700Y-208346983D01*
X164144841Y-208733379D01*
X163994077Y-209097356D01*
X163775204Y-209424923D01*
X163496623Y-209703504D01*
X163169056Y-209922377D01*
X162805079Y-210073141D01*
X162418683Y-210150000D01*
X162024717Y-210150000D01*
X161638321Y-210073141D01*
X161274344Y-209922377D01*
X160946777Y-209703504D01*
X160668196Y-209424923D01*
X160449323Y-209097356D01*
X160298559Y-208733379D01*
X160221700Y-208346983D01*
X160221700Y-207953017D01*
X160298559Y-207566621D01*
X160449323Y-207202644D01*
X160668196Y-206875077D01*
X160946777Y-206596496D01*
X161274344Y-206377623D01*
X161638321Y-206226859D01*
X162024717Y-206150000D01*
X162418683Y-206150000D01*
X162805079Y-206226859D01*
G37*
G36*
X399598379Y-206016859D02*
G01*
X399962356Y-206167623D01*
X400289923Y-206386496D01*
X400568504Y-206665077D01*
X400787377Y-206992644D01*
X400938141Y-207356621D01*
X401015000Y-207743017D01*
X401015000Y-208136983D01*
X400938141Y-208523379D01*
X400787377Y-208887356D01*
X400568504Y-209214923D01*
X400289923Y-209493504D01*
X399962356Y-209712377D01*
X399598379Y-209863141D01*
X399211983Y-209940000D01*
X398818017Y-209940000D01*
X398431621Y-209863141D01*
X398067644Y-209712377D01*
X397740077Y-209493504D01*
X397461496Y-209214923D01*
X397242623Y-208887356D01*
X397091859Y-208523379D01*
X397015000Y-208136983D01*
X397015000Y-207743017D01*
X397091859Y-207356621D01*
X397242623Y-206992644D01*
X397461496Y-206665077D01*
X397740077Y-206386496D01*
X398067644Y-206167623D01*
X398431621Y-206016859D01*
X398818017Y-205940000D01*
X399211983Y-205940000D01*
X399598379Y-206016859D01*
G37*
G36*
X44408379Y-206016859D02*
G01*
X44772356Y-206167623D01*
X45099923Y-206386496D01*
X45378504Y-206665077D01*
X45597377Y-206992644D01*
X45748141Y-207356621D01*
X45825000Y-207743017D01*
X45825000Y-208136983D01*
X45748141Y-208523379D01*
X45597377Y-208887356D01*
X45378504Y-209214923D01*
X45099923Y-209493504D01*
X44772356Y-209712377D01*
X44408379Y-209863141D01*
X44021983Y-209940000D01*
X43628017Y-209940000D01*
X43241621Y-209863141D01*
X42877644Y-209712377D01*
X42550077Y-209493504D01*
X42271496Y-209214923D01*
X42052623Y-208887356D01*
X41901859Y-208523379D01*
X41825000Y-208136983D01*
X41825000Y-207743017D01*
X41901859Y-207356621D01*
X42052623Y-206992644D01*
X42271496Y-206665077D01*
X42550077Y-206386496D01*
X42877644Y-206167623D01*
X43241621Y-206016859D01*
X43628017Y-205940000D01*
X44021983Y-205940000D01*
X44408379Y-206016859D01*
G37*
G36*
X388405971Y-198829692D02*
G01*
X388840196Y-199009554D01*
X389230984Y-199270670D01*
X389563330Y-199603016D01*
X389824446Y-199993804D01*
X390004308Y-200428029D01*
X390096000Y-200888999D01*
X390096000Y-201359001D01*
X390004308Y-201819971D01*
X389824446Y-202254196D01*
X389563330Y-202644984D01*
X389230984Y-202977330D01*
X388840196Y-203238446D01*
X388405971Y-203418308D01*
X387945001Y-203510000D01*
X387474999Y-203510000D01*
X387014029Y-203418308D01*
X386579804Y-203238446D01*
X386189016Y-202977330D01*
X385856670Y-202644984D01*
X385595554Y-202254196D01*
X385415692Y-201819971D01*
X385324000Y-201359001D01*
X385324000Y-200888999D01*
X385415692Y-200428029D01*
X385595554Y-199993804D01*
X385856670Y-199603016D01*
X386189016Y-199270670D01*
X386579804Y-199009554D01*
X387014029Y-198829692D01*
X387474999Y-198738000D01*
X387945001Y-198738000D01*
X388405971Y-198829692D01*
G37*
G36*
X222139721Y-198829692D02*
G01*
X222573946Y-199009554D01*
X222964734Y-199270670D01*
X223297080Y-199603016D01*
X223558196Y-199993804D01*
X223738058Y-200428029D01*
X223829750Y-200888999D01*
X223829750Y-201359001D01*
X223738058Y-201819971D01*
X223558196Y-202254196D01*
X223297080Y-202644984D01*
X222964734Y-202977330D01*
X222573946Y-203238446D01*
X222139721Y-203418308D01*
X221678751Y-203510000D01*
X221208749Y-203510000D01*
X220747779Y-203418308D01*
X220313554Y-203238446D01*
X219922766Y-202977330D01*
X219590420Y-202644984D01*
X219329304Y-202254196D01*
X219149442Y-201819971D01*
X219057750Y-201359001D01*
X219057750Y-200888999D01*
X219149442Y-200428029D01*
X219329304Y-199993804D01*
X219590420Y-199603016D01*
X219922766Y-199270670D01*
X220313554Y-199009554D01*
X220747779Y-198829692D01*
X221208749Y-198738000D01*
X221678751Y-198738000D01*
X222139721Y-198829692D01*
G37*
G36*
X55873471Y-198829692D02*
G01*
X56307696Y-199009554D01*
X56698484Y-199270670D01*
X57030830Y-199603016D01*
X57291946Y-199993804D01*
X57471808Y-200428029D01*
X57563500Y-200888999D01*
X57563500Y-201359001D01*
X57471808Y-201819971D01*
X57291946Y-202254196D01*
X57030830Y-202644984D01*
X56698484Y-202977330D01*
X56307696Y-203238446D01*
X55873471Y-203418308D01*
X55412501Y-203510000D01*
X54942499Y-203510000D01*
X54481529Y-203418308D01*
X54047304Y-203238446D01*
X53656516Y-202977330D01*
X53324170Y-202644984D01*
X53063054Y-202254196D01*
X52883192Y-201819971D01*
X52791500Y-201359001D01*
X52791500Y-200888999D01*
X52883192Y-200428029D01*
X53063054Y-199993804D01*
X53324170Y-199603016D01*
X53656516Y-199270670D01*
X54047304Y-199009554D01*
X54481529Y-198829692D01*
X54942499Y-198738000D01*
X55412501Y-198738000D01*
X55873471Y-198829692D01*
G37*
G36*
X389139453Y-111778927D02*
G01*
X390031304Y-112148343D01*
X390833950Y-112684655D01*
X391516545Y-113367250D01*
X392052857Y-114169896D01*
X392422273Y-115061747D01*
X392610600Y-116008533D01*
X392610600Y-116973867D01*
X392422273Y-117920653D01*
X392052857Y-118812504D01*
X391516545Y-119615150D01*
X390833950Y-120297745D01*
X390031304Y-120834057D01*
X389139453Y-121203473D01*
X388192667Y-121391800D01*
X387227333Y-121391800D01*
X386280547Y-121203473D01*
X385388696Y-120834057D01*
X384586050Y-120297745D01*
X383903455Y-119615150D01*
X383367143Y-118812504D01*
X382997727Y-117920653D01*
X382809400Y-116973867D01*
X382809400Y-116008533D01*
X382997727Y-115061747D01*
X383367143Y-114169896D01*
X383903455Y-113367250D01*
X384586050Y-112684655D01*
X385388696Y-112148343D01*
X386280547Y-111778927D01*
X387227333Y-111590600D01*
X388192667Y-111590600D01*
X389139453Y-111778927D01*
G37*
G36*
X222873203Y-111778927D02*
G01*
X223765054Y-112148343D01*
X224567700Y-112684655D01*
X225250295Y-113367250D01*
X225786607Y-114169896D01*
X226156023Y-115061747D01*
X226344350Y-116008533D01*
X226344350Y-116973867D01*
X226156023Y-117920653D01*
X225786607Y-118812504D01*
X225250295Y-119615150D01*
X224567700Y-120297745D01*
X223765054Y-120834057D01*
X222873203Y-121203473D01*
X221926417Y-121391800D01*
X220961083Y-121391800D01*
X220014297Y-121203473D01*
X219122446Y-120834057D01*
X218319800Y-120297745D01*
X217637205Y-119615150D01*
X217100893Y-118812504D01*
X216731477Y-117920653D01*
X216543150Y-116973867D01*
X216543150Y-116008533D01*
X216731477Y-115061747D01*
X217100893Y-114169896D01*
X217637205Y-113367250D01*
X218319800Y-112684655D01*
X219122446Y-112148343D01*
X220014297Y-111778927D01*
X220961083Y-111590600D01*
X221926417Y-111590600D01*
X222873203Y-111778927D01*
G37*
G36*
X56606953Y-111778927D02*
G01*
X57498804Y-112148343D01*
X58301450Y-112684655D01*
X58984045Y-113367250D01*
X59520357Y-114169896D01*
X59889773Y-115061747D01*
X60078100Y-116008533D01*
X60078100Y-116973867D01*
X59889773Y-117920653D01*
X59520357Y-118812504D01*
X58984045Y-119615150D01*
X58301450Y-120297745D01*
X57498804Y-120834057D01*
X56606953Y-121203473D01*
X55660167Y-121391800D01*
X54694833Y-121391800D01*
X53748047Y-121203473D01*
X52856196Y-120834057D01*
X52053550Y-120297745D01*
X51370955Y-119615150D01*
X50834643Y-118812504D01*
X50465227Y-117920653D01*
X50276900Y-116973867D01*
X50276900Y-116008533D01*
X50465227Y-115061747D01*
X50834643Y-114169896D01*
X51370955Y-113367250D01*
X52053550Y-112684655D01*
X52856196Y-112148343D01*
X53748047Y-111778927D01*
X54694833Y-111590600D01*
X55660167Y-111590600D01*
X56606953Y-111778927D01*
G37*
G36*
X399598379Y-101256859D02*
G01*
X399962356Y-101407623D01*
X400289923Y-101626496D01*
X400568504Y-101905077D01*
X400787377Y-102232644D01*
X400938141Y-102596621D01*
X401015000Y-102983017D01*
X401015000Y-103376983D01*
X400938141Y-103763379D01*
X400787377Y-104127356D01*
X400568504Y-104454923D01*
X400289923Y-104733504D01*
X399962356Y-104952377D01*
X399598379Y-105103141D01*
X399211983Y-105180000D01*
X398818017Y-105180000D01*
X398431621Y-105103141D01*
X398067644Y-104952377D01*
X397740077Y-104733504D01*
X397461496Y-104454923D01*
X397242623Y-104127356D01*
X397091859Y-103763379D01*
X397015000Y-103376983D01*
X397015000Y-102983017D01*
X397091859Y-102596621D01*
X397242623Y-102232644D01*
X397461496Y-101905077D01*
X397740077Y-101626496D01*
X398067644Y-101407623D01*
X398431621Y-101256859D01*
X398818017Y-101180000D01*
X399211983Y-101180000D01*
X399598379Y-101256859D01*
G37*
G36*
X44408379Y-101256859D02*
G01*
X44772356Y-101407623D01*
X45099923Y-101626496D01*
X45378504Y-101905077D01*
X45597377Y-102232644D01*
X45748141Y-102596621D01*
X45825000Y-102983017D01*
X45825000Y-103376983D01*
X45748141Y-103763379D01*
X45597377Y-104127356D01*
X45378504Y-104454923D01*
X45099923Y-104733504D01*
X44772356Y-104952377D01*
X44408379Y-105103141D01*
X44021983Y-105180000D01*
X43628017Y-105180000D01*
X43241621Y-105103141D01*
X42877644Y-104952377D01*
X42550077Y-104733504D01*
X42271496Y-104454923D01*
X42052623Y-104127356D01*
X41901859Y-103763379D01*
X41825000Y-103376983D01*
X41825000Y-102983017D01*
X41901859Y-102596621D01*
X42052623Y-102232644D01*
X42271496Y-101905077D01*
X42550077Y-101626496D01*
X42877644Y-101407623D01*
X43241621Y-101256859D01*
X43628017Y-101180000D01*
X44021983Y-101180000D01*
X44408379Y-101256859D01*
G37*
G36*
X281201712Y-101226859D02*
G01*
X281565689Y-101377623D01*
X281893256Y-101596496D01*
X282171837Y-101875077D01*
X282390710Y-102202644D01*
X282541474Y-102566621D01*
X282618333Y-102953017D01*
X282618333Y-103346983D01*
X282541474Y-103733379D01*
X282390710Y-104097356D01*
X282171837Y-104424923D01*
X281893256Y-104703504D01*
X281565689Y-104922377D01*
X281201712Y-105073141D01*
X280815316Y-105150000D01*
X280421350Y-105150000D01*
X280034954Y-105073141D01*
X279670977Y-104922377D01*
X279343410Y-104703504D01*
X279064829Y-104424923D01*
X278845956Y-104097356D01*
X278695192Y-103733379D01*
X278618333Y-103346983D01*
X278618333Y-102953017D01*
X278695192Y-102566621D01*
X278845956Y-102202644D01*
X279064829Y-101875077D01*
X279343410Y-101596496D01*
X279670977Y-101377623D01*
X280034954Y-101226859D01*
X280421350Y-101150000D01*
X280815316Y-101150000D01*
X281201712Y-101226859D01*
G37*
G36*
X162805046Y-101226859D02*
G01*
X163169023Y-101377623D01*
X163496590Y-101596496D01*
X163775171Y-101875077D01*
X163994044Y-102202644D01*
X164144808Y-102566621D01*
X164221667Y-102953017D01*
X164221667Y-103346983D01*
X164144808Y-103733379D01*
X163994044Y-104097356D01*
X163775171Y-104424923D01*
X163496590Y-104703504D01*
X163169023Y-104922377D01*
X162805046Y-105073141D01*
X162418650Y-105150000D01*
X162024684Y-105150000D01*
X161638288Y-105073141D01*
X161274311Y-104922377D01*
X160946744Y-104703504D01*
X160668163Y-104424923D01*
X160449290Y-104097356D01*
X160298526Y-103733379D01*
X160221667Y-103346983D01*
X160221667Y-102953017D01*
X160298526Y-102566621D01*
X160449290Y-102202644D01*
X160668163Y-101875077D01*
X160946744Y-101596496D01*
X161274311Y-101377623D01*
X161638288Y-101226859D01*
X162024684Y-101150000D01*
X162418650Y-101150000D01*
X162805046Y-101226859D01*
G37*
M02*
