%TF.GenerationSoftware,KiCad,Pcbnew,(5.1.6-0-10_14)*%
%TF.CreationDate,2021-09-05T18:40:08-05:00*%
%TF.ProjectId,EVO70_FR4_base,45564f37-305f-4465-9234-5f626173652e,rev?*%
%TF.SameCoordinates,Original*%
%TF.FileFunction,Soldermask,Bot*%
%TF.FilePolarity,Negative*%
%FSLAX46Y46*%
G04 Gerber Fmt 4.6, Leading zero omitted, Abs format (unit mm)*
G04 Created by KiCad (PCBNEW (5.1.6-0-10_14)) date 2021-09-05 18:40:08*
%MOMM*%
%LPD*%
G01*
G04 APERTURE LIST*
%ADD10C,0.508000*%
%ADD11C,0.010000*%
%ADD12C,0.100000*%
G04 APERTURE END LIST*
D10*
X284809333Y-103150000D02*
X394824000Y-103150000D01*
X166412667Y-103180000D02*
X276427334Y-103180000D01*
X48016000Y-103180000D02*
X158030667Y-103180000D01*
X43825000Y-107371000D02*
X43825000Y-203749000D01*
X48016000Y-207940000D02*
X158030667Y-207940000D01*
X166412700Y-207940000D02*
X276427367Y-207940000D01*
X284810000Y-207940000D02*
X394824000Y-207940000D01*
X399015000Y-107371000D02*
X399015000Y-203749000D01*
D11*
%TO.C,G1*%
G36*
X192042104Y-144223604D02*
G01*
X190920886Y-144225239D01*
X189926526Y-144228346D01*
X189050529Y-144233271D01*
X188284402Y-144240360D01*
X187619649Y-144249958D01*
X187047774Y-144262410D01*
X186560284Y-144278062D01*
X186148683Y-144297259D01*
X185804477Y-144320348D01*
X185519170Y-144347673D01*
X185284268Y-144379580D01*
X185091275Y-144416414D01*
X184931697Y-144458521D01*
X184797040Y-144506246D01*
X184678807Y-144559935D01*
X184568504Y-144619934D01*
X184457637Y-144686588D01*
X184337710Y-144760241D01*
X184304150Y-144780489D01*
X183620828Y-145281191D01*
X183065592Y-145882770D01*
X182648453Y-146572197D01*
X182398300Y-147261126D01*
X182373298Y-147367952D01*
X182351310Y-147492114D01*
X182332145Y-147644511D01*
X182315612Y-147836042D01*
X182301519Y-148077606D01*
X182289677Y-148380104D01*
X182279893Y-148754436D01*
X182271978Y-149211499D01*
X182265740Y-149762195D01*
X182260989Y-150417423D01*
X182257533Y-151188083D01*
X182255181Y-152085073D01*
X182253744Y-153119294D01*
X182253028Y-154301645D01*
X182252845Y-155565333D01*
X182253052Y-156897730D01*
X182253802Y-158071694D01*
X182255285Y-159098124D01*
X182257692Y-159987920D01*
X182261214Y-160751981D01*
X182266041Y-161401207D01*
X182272366Y-161946498D01*
X182280378Y-162398753D01*
X182290270Y-162768872D01*
X182302230Y-163067754D01*
X182316451Y-163306299D01*
X182333124Y-163495407D01*
X182352439Y-163645976D01*
X182374587Y-163768908D01*
X182398300Y-163869540D01*
X182681805Y-164627251D01*
X183112467Y-165308907D01*
X183680276Y-165901481D01*
X184304150Y-166350177D01*
X184427806Y-166425699D01*
X184540203Y-166494131D01*
X184649837Y-166555819D01*
X184765203Y-166611109D01*
X184894794Y-166660345D01*
X185047107Y-166703873D01*
X185230636Y-166742039D01*
X185453875Y-166775188D01*
X185725321Y-166803665D01*
X186053467Y-166827817D01*
X186446808Y-166847989D01*
X186913840Y-166864525D01*
X187463058Y-166877773D01*
X188102956Y-166888076D01*
X188842029Y-166895781D01*
X189688772Y-166901233D01*
X190651680Y-166904778D01*
X191739247Y-166906761D01*
X192959970Y-166907527D01*
X194322342Y-166907422D01*
X195834859Y-166906792D01*
X197506015Y-166905982D01*
X197965463Y-166905785D01*
X199638612Y-166904993D01*
X201150969Y-166903977D01*
X202511076Y-166902635D01*
X203727474Y-166900864D01*
X204808704Y-166898562D01*
X205763308Y-166895627D01*
X206599827Y-166891957D01*
X207326803Y-166887449D01*
X207952777Y-166882002D01*
X208486291Y-166875513D01*
X208935886Y-166867880D01*
X209310103Y-166859001D01*
X209617484Y-166848773D01*
X209866571Y-166837095D01*
X210065904Y-166823863D01*
X210224026Y-166808977D01*
X210349477Y-166792333D01*
X210450799Y-166773830D01*
X210528624Y-166755449D01*
X211264620Y-166479551D01*
X211932000Y-166064685D01*
X212509824Y-165532305D01*
X212977153Y-164903867D01*
X213313049Y-164200826D01*
X213437760Y-163774553D01*
X213463467Y-163574068D01*
X213486740Y-163219580D01*
X213507577Y-162726402D01*
X213525979Y-162109846D01*
X213541946Y-161385225D01*
X213555478Y-160567852D01*
X213566575Y-159673039D01*
X213575237Y-158716100D01*
X213581464Y-157712347D01*
X213585255Y-156677092D01*
X213586612Y-155625649D01*
X213585534Y-154573329D01*
X213582021Y-153535447D01*
X213576072Y-152527314D01*
X213567689Y-151564243D01*
X213556871Y-150661547D01*
X213543617Y-149834539D01*
X213527929Y-149098532D01*
X213509805Y-148468837D01*
X213489247Y-147960769D01*
X213466253Y-147589639D01*
X213453478Y-147479666D01*
X212680750Y-147479666D01*
X212680750Y-163651000D01*
X212455502Y-164131495D01*
X212087279Y-164738501D01*
X211604480Y-165258487D01*
X211037346Y-165665245D01*
X210416119Y-165932567D01*
X210358398Y-165948943D01*
X210267131Y-165964065D01*
X210105846Y-165977673D01*
X209867658Y-165989814D01*
X209545680Y-166000537D01*
X209133026Y-166009891D01*
X208622810Y-166017925D01*
X208008147Y-166024686D01*
X207282150Y-166030223D01*
X206437934Y-166034585D01*
X205468612Y-166037821D01*
X204367300Y-166039978D01*
X203127109Y-166041105D01*
X201741156Y-166041251D01*
X200202553Y-166040464D01*
X198504415Y-166038793D01*
X197737083Y-166037832D01*
X185502750Y-166021666D01*
X185018620Y-165794755D01*
X184409227Y-165420553D01*
X183879434Y-164919485D01*
X183467202Y-164328820D01*
X183406512Y-164212003D01*
X183132083Y-163654560D01*
X183132083Y-147476106D01*
X183406512Y-146918662D01*
X183792676Y-146315436D01*
X184303464Y-145794872D01*
X184900919Y-145394237D01*
X185018620Y-145335911D01*
X185502750Y-145109000D01*
X210313644Y-145109000D01*
X210871087Y-145383428D01*
X211474313Y-145769592D01*
X211994878Y-146280381D01*
X212395512Y-146877835D01*
X212453838Y-146995537D01*
X212680750Y-147479666D01*
X213453478Y-147479666D01*
X213440825Y-147370760D01*
X213437760Y-147356113D01*
X213186228Y-146620123D01*
X212791317Y-145946495D01*
X212273966Y-145356685D01*
X211655113Y-144872148D01*
X210955697Y-144514339D01*
X210528624Y-144375217D01*
X210441745Y-144354947D01*
X210338446Y-144336630D01*
X210210186Y-144320162D01*
X210048422Y-144305441D01*
X209844615Y-144292366D01*
X209590221Y-144280833D01*
X209276700Y-144270742D01*
X208895510Y-144261988D01*
X208438110Y-144254471D01*
X207895958Y-144248088D01*
X207260514Y-144242737D01*
X206523235Y-144238316D01*
X205675580Y-144234722D01*
X204709007Y-144231853D01*
X203614976Y-144229608D01*
X202384945Y-144227883D01*
X201010372Y-144226577D01*
X199482715Y-144225587D01*
X197965463Y-144224880D01*
X196251861Y-144224080D01*
X194699097Y-144223370D01*
X193298676Y-144223096D01*
X192042104Y-144223604D01*
G37*
X192042104Y-144223604D02*
X190920886Y-144225239D01*
X189926526Y-144228346D01*
X189050529Y-144233271D01*
X188284402Y-144240360D01*
X187619649Y-144249958D01*
X187047774Y-144262410D01*
X186560284Y-144278062D01*
X186148683Y-144297259D01*
X185804477Y-144320348D01*
X185519170Y-144347673D01*
X185284268Y-144379580D01*
X185091275Y-144416414D01*
X184931697Y-144458521D01*
X184797040Y-144506246D01*
X184678807Y-144559935D01*
X184568504Y-144619934D01*
X184457637Y-144686588D01*
X184337710Y-144760241D01*
X184304150Y-144780489D01*
X183620828Y-145281191D01*
X183065592Y-145882770D01*
X182648453Y-146572197D01*
X182398300Y-147261126D01*
X182373298Y-147367952D01*
X182351310Y-147492114D01*
X182332145Y-147644511D01*
X182315612Y-147836042D01*
X182301519Y-148077606D01*
X182289677Y-148380104D01*
X182279893Y-148754436D01*
X182271978Y-149211499D01*
X182265740Y-149762195D01*
X182260989Y-150417423D01*
X182257533Y-151188083D01*
X182255181Y-152085073D01*
X182253744Y-153119294D01*
X182253028Y-154301645D01*
X182252845Y-155565333D01*
X182253052Y-156897730D01*
X182253802Y-158071694D01*
X182255285Y-159098124D01*
X182257692Y-159987920D01*
X182261214Y-160751981D01*
X182266041Y-161401207D01*
X182272366Y-161946498D01*
X182280378Y-162398753D01*
X182290270Y-162768872D01*
X182302230Y-163067754D01*
X182316451Y-163306299D01*
X182333124Y-163495407D01*
X182352439Y-163645976D01*
X182374587Y-163768908D01*
X182398300Y-163869540D01*
X182681805Y-164627251D01*
X183112467Y-165308907D01*
X183680276Y-165901481D01*
X184304150Y-166350177D01*
X184427806Y-166425699D01*
X184540203Y-166494131D01*
X184649837Y-166555819D01*
X184765203Y-166611109D01*
X184894794Y-166660345D01*
X185047107Y-166703873D01*
X185230636Y-166742039D01*
X185453875Y-166775188D01*
X185725321Y-166803665D01*
X186053467Y-166827817D01*
X186446808Y-166847989D01*
X186913840Y-166864525D01*
X187463058Y-166877773D01*
X188102956Y-166888076D01*
X188842029Y-166895781D01*
X189688772Y-166901233D01*
X190651680Y-166904778D01*
X191739247Y-166906761D01*
X192959970Y-166907527D01*
X194322342Y-166907422D01*
X195834859Y-166906792D01*
X197506015Y-166905982D01*
X197965463Y-166905785D01*
X199638612Y-166904993D01*
X201150969Y-166903977D01*
X202511076Y-166902635D01*
X203727474Y-166900864D01*
X204808704Y-166898562D01*
X205763308Y-166895627D01*
X206599827Y-166891957D01*
X207326803Y-166887449D01*
X207952777Y-166882002D01*
X208486291Y-166875513D01*
X208935886Y-166867880D01*
X209310103Y-166859001D01*
X209617484Y-166848773D01*
X209866571Y-166837095D01*
X210065904Y-166823863D01*
X210224026Y-166808977D01*
X210349477Y-166792333D01*
X210450799Y-166773830D01*
X210528624Y-166755449D01*
X211264620Y-166479551D01*
X211932000Y-166064685D01*
X212509824Y-165532305D01*
X212977153Y-164903867D01*
X213313049Y-164200826D01*
X213437760Y-163774553D01*
X213463467Y-163574068D01*
X213486740Y-163219580D01*
X213507577Y-162726402D01*
X213525979Y-162109846D01*
X213541946Y-161385225D01*
X213555478Y-160567852D01*
X213566575Y-159673039D01*
X213575237Y-158716100D01*
X213581464Y-157712347D01*
X213585255Y-156677092D01*
X213586612Y-155625649D01*
X213585534Y-154573329D01*
X213582021Y-153535447D01*
X213576072Y-152527314D01*
X213567689Y-151564243D01*
X213556871Y-150661547D01*
X213543617Y-149834539D01*
X213527929Y-149098532D01*
X213509805Y-148468837D01*
X213489247Y-147960769D01*
X213466253Y-147589639D01*
X213453478Y-147479666D01*
X212680750Y-147479666D01*
X212680750Y-163651000D01*
X212455502Y-164131495D01*
X212087279Y-164738501D01*
X211604480Y-165258487D01*
X211037346Y-165665245D01*
X210416119Y-165932567D01*
X210358398Y-165948943D01*
X210267131Y-165964065D01*
X210105846Y-165977673D01*
X209867658Y-165989814D01*
X209545680Y-166000537D01*
X209133026Y-166009891D01*
X208622810Y-166017925D01*
X208008147Y-166024686D01*
X207282150Y-166030223D01*
X206437934Y-166034585D01*
X205468612Y-166037821D01*
X204367300Y-166039978D01*
X203127109Y-166041105D01*
X201741156Y-166041251D01*
X200202553Y-166040464D01*
X198504415Y-166038793D01*
X197737083Y-166037832D01*
X185502750Y-166021666D01*
X185018620Y-165794755D01*
X184409227Y-165420553D01*
X183879434Y-164919485D01*
X183467202Y-164328820D01*
X183406512Y-164212003D01*
X183132083Y-163654560D01*
X183132083Y-147476106D01*
X183406512Y-146918662D01*
X183792676Y-146315436D01*
X184303464Y-145794872D01*
X184900919Y-145394237D01*
X185018620Y-145335911D01*
X185502750Y-145109000D01*
X210313644Y-145109000D01*
X210871087Y-145383428D01*
X211474313Y-145769592D01*
X211994878Y-146280381D01*
X212395512Y-146877835D01*
X212453838Y-146995537D01*
X212680750Y-147479666D01*
X213453478Y-147479666D01*
X213440825Y-147370760D01*
X213437760Y-147356113D01*
X213186228Y-146620123D01*
X212791317Y-145946495D01*
X212273966Y-145356685D01*
X211655113Y-144872148D01*
X210955697Y-144514339D01*
X210528624Y-144375217D01*
X210441745Y-144354947D01*
X210338446Y-144336630D01*
X210210186Y-144320162D01*
X210048422Y-144305441D01*
X209844615Y-144292366D01*
X209590221Y-144280833D01*
X209276700Y-144270742D01*
X208895510Y-144261988D01*
X208438110Y-144254471D01*
X207895958Y-144248088D01*
X207260514Y-144242737D01*
X206523235Y-144238316D01*
X205675580Y-144234722D01*
X204709007Y-144231853D01*
X203614976Y-144229608D01*
X202384945Y-144227883D01*
X201010372Y-144226577D01*
X199482715Y-144225587D01*
X197965463Y-144224880D01*
X196251861Y-144224080D01*
X194699097Y-144223370D01*
X193298676Y-144223096D01*
X192042104Y-144223604D01*
G36*
X235930942Y-149084197D02*
G01*
X235572244Y-149274759D01*
X235303935Y-149598594D01*
X235122299Y-150060800D01*
X235023618Y-150666475D01*
X235008187Y-150908666D01*
X235038263Y-151768183D01*
X235210255Y-152575153D01*
X235531595Y-153349818D01*
X236009717Y-154112422D01*
X236337247Y-154528166D01*
X236854245Y-155142000D01*
X236070497Y-155150439D01*
X235595625Y-155161692D01*
X235262083Y-155188980D01*
X235042048Y-155240525D01*
X234907696Y-155324545D01*
X234831205Y-155449260D01*
X234807521Y-155523556D01*
X234804979Y-155836095D01*
X234937288Y-156155188D01*
X235179293Y-156431972D01*
X235329083Y-156536643D01*
X235462445Y-156602848D01*
X235619064Y-156651206D01*
X235828987Y-156685328D01*
X236122262Y-156708825D01*
X236528935Y-156725309D01*
X236993245Y-156736648D01*
X237523813Y-156746016D01*
X237908738Y-156760413D01*
X238171255Y-156797234D01*
X238334601Y-156873876D01*
X238422014Y-157007733D01*
X238456730Y-157216200D01*
X238461985Y-157516673D01*
X238460594Y-157835115D01*
X238442755Y-158386802D01*
X238391893Y-158938607D01*
X238314634Y-159442173D01*
X238217600Y-159849142D01*
X238163930Y-160000831D01*
X237907054Y-160412076D01*
X237544183Y-160703848D01*
X237103173Y-160860400D01*
X236629377Y-160868477D01*
X236195452Y-160763395D01*
X235798234Y-160558534D01*
X235408692Y-160249691D01*
X235075083Y-159948295D01*
X235075083Y-159256269D01*
X235064119Y-159121333D01*
X233152771Y-159121333D01*
X233149213Y-159523191D01*
X233117872Y-159816247D01*
X233049098Y-160060060D01*
X232972148Y-160236153D01*
X232714663Y-160625259D01*
X232402162Y-160859898D01*
X232048926Y-160936095D01*
X231669235Y-160849879D01*
X231379584Y-160679148D01*
X231156521Y-160451047D01*
X230954325Y-160140530D01*
X230809178Y-159813363D01*
X230757083Y-159547654D01*
X230819102Y-159361514D01*
X230979741Y-159138571D01*
X231046256Y-159069264D01*
X231319615Y-158708937D01*
X231531900Y-158243273D01*
X231660427Y-157731857D01*
X231688416Y-157382490D01*
X231694792Y-157116186D01*
X231725220Y-156977960D01*
X231796653Y-156926705D01*
X231878916Y-156920557D01*
X232144670Y-156990819D01*
X232436636Y-157178085D01*
X232700016Y-157445508D01*
X232942707Y-157867913D01*
X233091985Y-158405858D01*
X233151893Y-159074305D01*
X233152771Y-159121333D01*
X235064119Y-159121333D01*
X235003414Y-158374258D01*
X234787355Y-157578999D01*
X234425326Y-156866259D01*
X233967137Y-156285220D01*
X233444440Y-155828633D01*
X232873823Y-155525072D01*
X232226349Y-155361216D01*
X231889508Y-155328798D01*
X231355306Y-155325572D01*
X230922780Y-155391701D01*
X230533366Y-155541793D01*
X230179058Y-155755463D01*
X229862866Y-156039473D01*
X229558560Y-156431149D01*
X229293343Y-156881677D01*
X229094418Y-157342245D01*
X228988987Y-157764038D01*
X228979083Y-157908749D01*
X228971769Y-158017938D01*
X228928204Y-158078444D01*
X228815953Y-158094859D01*
X228602580Y-158071779D01*
X228255651Y-158013797D01*
X228247466Y-158012372D01*
X227957918Y-157957633D01*
X227793423Y-157901716D01*
X227711970Y-157815818D01*
X227671546Y-157671139D01*
X227660838Y-157610205D01*
X227538097Y-157016034D01*
X227387068Y-156483244D01*
X227218945Y-156044342D01*
X227044924Y-155731833D01*
X226990864Y-155664971D01*
X226820443Y-155501937D01*
X226644334Y-155408000D01*
X226398611Y-155356325D01*
X226206822Y-155335849D01*
X225823547Y-155325285D01*
X225578812Y-155383011D01*
X225452470Y-155518224D01*
X225423083Y-155693591D01*
X225442181Y-155847387D01*
X225494263Y-156126679D01*
X225571514Y-156492619D01*
X225666120Y-156906359D01*
X225672226Y-156932058D01*
X225774653Y-157382154D01*
X225866201Y-157820841D01*
X225936493Y-158196100D01*
X225973852Y-158444000D01*
X226026336Y-158909666D01*
X225824586Y-158437000D01*
X225407494Y-157583895D01*
X224933678Y-156835559D01*
X224517721Y-156324336D01*
X224082433Y-155897660D01*
X223678871Y-155604930D01*
X223270095Y-155425306D01*
X222819166Y-155337949D01*
X222759881Y-155332630D01*
X222456304Y-155314976D01*
X222264762Y-155331159D01*
X222129287Y-155393804D01*
X222006862Y-155502524D01*
X221848527Y-155707219D01*
X221754677Y-155957129D01*
X221722989Y-156280047D01*
X221751138Y-156703766D01*
X221836798Y-157256081D01*
X221852889Y-157343333D01*
X221929788Y-157750242D01*
X221999820Y-158113569D01*
X222054664Y-158390576D01*
X222083678Y-158528666D01*
X222068082Y-158547872D01*
X221988511Y-158437409D01*
X221858462Y-158218181D01*
X221720517Y-157966086D01*
X221235748Y-157150805D01*
X220727245Y-156479144D01*
X220201086Y-155956065D01*
X219663350Y-155586531D01*
X219120114Y-155375503D01*
X218577458Y-155327944D01*
X218497646Y-155335084D01*
X218211776Y-155396278D01*
X217993232Y-155517039D01*
X217839855Y-155711428D01*
X217749485Y-155993507D01*
X217719965Y-156377338D01*
X217749135Y-156876981D01*
X217834837Y-157506497D01*
X217974912Y-158279949D01*
X218014750Y-158480457D01*
X218140003Y-159117467D01*
X218228364Y-159611591D01*
X218281003Y-159984942D01*
X218299095Y-160259634D01*
X218283811Y-160457781D01*
X218236324Y-160601495D01*
X218157806Y-160712891D01*
X218134413Y-160737337D01*
X217948007Y-160856561D01*
X217728385Y-160862491D01*
X217463885Y-160748563D01*
X217142843Y-160508216D01*
X216753598Y-160134887D01*
X216415905Y-159770398D01*
X216159344Y-159497087D01*
X215927740Y-159274225D01*
X215753625Y-159131953D01*
X215689884Y-159097707D01*
X215465075Y-159107027D01*
X215298629Y-159246245D01*
X215195976Y-159484413D01*
X215162544Y-159790583D01*
X215203763Y-160133806D01*
X215325063Y-160483134D01*
X215417467Y-160650458D01*
X215710035Y-161028284D01*
X216108937Y-161430003D01*
X216564893Y-161812751D01*
X217028618Y-162133662D01*
X217288679Y-162278005D01*
X217601429Y-162420534D01*
X217864775Y-162502512D01*
X218152122Y-162540047D01*
X218524776Y-162549229D01*
X218890647Y-162542664D01*
X219141555Y-162513955D01*
X219331529Y-162451708D01*
X219514596Y-162344529D01*
X219523245Y-162338666D01*
X219790096Y-162105837D01*
X219981925Y-161811203D01*
X220101170Y-161437566D01*
X220150267Y-160967731D01*
X220131654Y-160384500D01*
X220047768Y-159670677D01*
X219969813Y-159188007D01*
X219873467Y-158589356D01*
X219822425Y-158146531D01*
X219819481Y-157851446D01*
X219867426Y-157696017D01*
X219969055Y-157672159D01*
X220127160Y-157771788D01*
X220344535Y-157986818D01*
X220373710Y-158018858D01*
X220711007Y-158475087D01*
X221048615Y-159095814D01*
X221384370Y-159876221D01*
X221716104Y-160811489D01*
X221908600Y-161432416D01*
X222024528Y-161783447D01*
X222146242Y-162085749D01*
X222253704Y-162291703D01*
X222289610Y-162337860D01*
X222564676Y-162505523D01*
X222910658Y-162569415D01*
X223257665Y-162519818D01*
X223344860Y-162484572D01*
X223603793Y-162289040D01*
X223792906Y-161977716D01*
X223913527Y-161542508D01*
X223966979Y-160975323D01*
X223954588Y-160268069D01*
X223877680Y-159412654D01*
X223865117Y-159307353D01*
X223800421Y-158763124D01*
X223758599Y-158363061D01*
X223739751Y-158083534D01*
X223743977Y-157900915D01*
X223771377Y-157791574D01*
X223822051Y-157731883D01*
X223871880Y-157706811D01*
X224039359Y-157729291D01*
X224240294Y-157898875D01*
X224465233Y-158198858D01*
X224704726Y-158612537D01*
X224949321Y-159123210D01*
X225189568Y-159714171D01*
X225416016Y-160368717D01*
X225462659Y-160518333D01*
X225656111Y-161144362D01*
X225814162Y-161626630D01*
X225949080Y-161983860D01*
X226073132Y-162234776D01*
X226198585Y-162398102D01*
X226337707Y-162492561D01*
X226502765Y-162536877D01*
X226706026Y-162549775D01*
X226793970Y-162550333D01*
X227105550Y-162514206D01*
X227350895Y-162395204D01*
X227538348Y-162177392D01*
X227676256Y-161844837D01*
X227772963Y-161381604D01*
X227836813Y-160771761D01*
X227852459Y-160529272D01*
X227904864Y-159608879D01*
X228336140Y-159660703D01*
X228612881Y-159691004D01*
X228833874Y-159710042D01*
X228904239Y-159713264D01*
X229022345Y-159796516D01*
X229154937Y-160039453D01*
X229218685Y-160200833D01*
X229561077Y-160940718D01*
X230000768Y-161544614D01*
X230543059Y-162018694D01*
X231011083Y-162288407D01*
X231640023Y-162501019D01*
X232289817Y-162563086D01*
X232930147Y-162479655D01*
X233530689Y-162255768D01*
X234061126Y-161896470D01*
X234208396Y-161756517D01*
X234543064Y-161411665D01*
X235013476Y-161776948D01*
X235507387Y-162125505D01*
X235959935Y-162356015D01*
X236427787Y-162488503D01*
X236967608Y-162542995D01*
X237193530Y-162547388D01*
X237588040Y-162543931D01*
X237872191Y-162522243D01*
X238104838Y-162470489D01*
X238344835Y-162376835D01*
X238566350Y-162271345D01*
X239122586Y-161922744D01*
X239539844Y-161488142D01*
X239792897Y-161047500D01*
X239890981Y-160849639D01*
X239966082Y-160738678D01*
X239980877Y-160730002D01*
X240057315Y-160790170D01*
X240195296Y-160942023D01*
X240264491Y-161026291D01*
X240569013Y-161344260D01*
X240959262Y-161663453D01*
X241374031Y-161938895D01*
X241752114Y-162125610D01*
X241768962Y-162131812D01*
X242071181Y-162221467D01*
X242439599Y-162304715D01*
X242662256Y-162343356D01*
X243035215Y-162426937D01*
X243420608Y-162557195D01*
X243609578Y-162642338D01*
X244073715Y-162816556D01*
X244587987Y-162902051D01*
X245087608Y-162892862D01*
X245440154Y-162810778D01*
X245833351Y-162598083D01*
X246114343Y-162312516D01*
X246278471Y-161983250D01*
X246321079Y-161639458D01*
X246237510Y-161310314D01*
X246023108Y-161024991D01*
X245753545Y-160847550D01*
X245526715Y-160768539D01*
X245257531Y-160741947D01*
X244885171Y-160761812D01*
X244881992Y-160762107D01*
X244566727Y-160784616D01*
X244387213Y-160776688D01*
X244312037Y-160734891D01*
X244303750Y-160698902D01*
X244355265Y-160433327D01*
X244496724Y-160080828D01*
X244708493Y-159683584D01*
X244946884Y-159317181D01*
X245336339Y-158771408D01*
X245655669Y-159317863D01*
X246008773Y-159874717D01*
X246413387Y-160435085D01*
X246836224Y-160957248D01*
X247243995Y-161399484D01*
X247518119Y-161652122D01*
X248123929Y-162086658D01*
X248727933Y-162386896D01*
X249312672Y-162547982D01*
X249860687Y-162565066D01*
X250344731Y-162437667D01*
X250597876Y-162303740D01*
X250769455Y-162139279D01*
X250917538Y-161884521D01*
X250951381Y-161813320D01*
X251076584Y-161475746D01*
X251150787Y-161139039D01*
X251160923Y-161005166D01*
X251175673Y-160785347D01*
X251211789Y-160658047D01*
X251229691Y-160645333D01*
X251294863Y-160717780D01*
X251386923Y-160902987D01*
X251444125Y-161047500D01*
X251703479Y-161591672D01*
X252037484Y-162030531D01*
X252426554Y-162348411D01*
X252851100Y-162529647D01*
X253291535Y-162558575D01*
X253327572Y-162553735D01*
X253729420Y-162418218D01*
X254085763Y-162161584D01*
X254341806Y-161825913D01*
X254378922Y-161746389D01*
X254459886Y-161572453D01*
X254514665Y-161492564D01*
X254517088Y-161492000D01*
X254598396Y-161537330D01*
X254770221Y-161653200D01*
X254896814Y-161743315D01*
X255250899Y-161954964D01*
X255709679Y-162167029D01*
X256210302Y-162355393D01*
X256689916Y-162495939D01*
X257020561Y-162558251D01*
X257464721Y-162571963D01*
X257972277Y-162528284D01*
X258476201Y-162437545D01*
X258909468Y-162310079D01*
X259063926Y-162243290D01*
X259422996Y-162016027D01*
X259786535Y-161707139D01*
X260100406Y-161368020D01*
X260301242Y-161068666D01*
X260519045Y-160483430D01*
X260622905Y-159799763D01*
X260621159Y-159086830D01*
X260498706Y-158242840D01*
X260243743Y-157471551D01*
X259866148Y-156788957D01*
X259375802Y-156211054D01*
X258782582Y-155753836D01*
X258453244Y-155576777D01*
X258171384Y-155459118D01*
X257906605Y-155390890D01*
X257593136Y-155359883D01*
X257251567Y-155353666D01*
X256879582Y-155359560D01*
X256623760Y-155384747D01*
X256431121Y-155440489D01*
X256248686Y-155538043D01*
X256182324Y-155580913D01*
X255818125Y-155919637D01*
X255582197Y-156367722D01*
X255475713Y-156922640D01*
X255469166Y-157119996D01*
X255520643Y-157637794D01*
X255666688Y-158064599D01*
X255894723Y-158381328D01*
X256192170Y-158568897D01*
X256453417Y-158613333D01*
X256709828Y-158568602D01*
X256903237Y-158479436D01*
X256995520Y-158401491D01*
X257050214Y-158300368D01*
X257074955Y-158136378D01*
X257077380Y-157869832D01*
X257070242Y-157611603D01*
X257046083Y-156877666D01*
X257371388Y-156850923D01*
X257579992Y-156851210D01*
X257744012Y-156913298D01*
X257925503Y-157066983D01*
X258017047Y-157160942D01*
X258332972Y-157598760D01*
X258547111Y-158147395D01*
X258665557Y-158822845D01*
X258670542Y-158876653D01*
X258669801Y-159517868D01*
X258550318Y-160051841D01*
X258318484Y-160471088D01*
X257980687Y-160768127D01*
X257543317Y-160935474D01*
X257012763Y-160965646D01*
X256896375Y-160954602D01*
X256550895Y-160869289D01*
X256131744Y-160700043D01*
X255693075Y-160473992D01*
X255289041Y-160218267D01*
X255046339Y-160027780D01*
X254908208Y-159898369D01*
X254814511Y-159776005D01*
X254751103Y-159620805D01*
X254703838Y-159392884D01*
X254658572Y-159052358D01*
X254637918Y-158876218D01*
X254566414Y-158374506D01*
X254465435Y-157819646D01*
X254345433Y-157257928D01*
X254216857Y-156735646D01*
X254090159Y-156299092D01*
X253999448Y-156048080D01*
X253789477Y-155689401D01*
X253501165Y-155461802D01*
X253105404Y-155345521D01*
X252938379Y-155327627D01*
X252646851Y-155317928D01*
X252430852Y-155348534D01*
X252286105Y-155437227D01*
X252208333Y-155601794D01*
X252193261Y-155860018D01*
X252236611Y-156229686D01*
X252334106Y-156728580D01*
X252464027Y-157300277D01*
X252585478Y-157862539D01*
X252688555Y-158425807D01*
X252769019Y-158957845D01*
X252822629Y-159426417D01*
X252845146Y-159799285D01*
X252832332Y-160044213D01*
X252827689Y-160065620D01*
X252740558Y-160250051D01*
X252639711Y-160338706D01*
X252437881Y-160329070D01*
X252206107Y-160167424D01*
X251951858Y-159866906D01*
X251682603Y-159440655D01*
X251405811Y-158901809D01*
X251128950Y-158263506D01*
X250859488Y-157538884D01*
X250616093Y-156778927D01*
X250451165Y-156260172D01*
X250299568Y-155883981D01*
X250143309Y-155626508D01*
X249964394Y-155463906D01*
X249744828Y-155372328D01*
X249525754Y-155333946D01*
X249237345Y-155318769D01*
X248983405Y-155333485D01*
X248923122Y-155344836D01*
X248793399Y-155394621D01*
X248729131Y-155491609D01*
X248707901Y-155685195D01*
X248706416Y-155822384D01*
X248724955Y-156077716D01*
X248775203Y-156445149D01*
X248849109Y-156872183D01*
X248923669Y-157238937D01*
X249115607Y-158137170D01*
X249266854Y-158890008D01*
X249376600Y-159492983D01*
X249444034Y-159941624D01*
X249468346Y-160231464D01*
X249468416Y-160242998D01*
X249416256Y-160520049D01*
X249282828Y-160750656D01*
X249102717Y-160884279D01*
X249019326Y-160899333D01*
X248781786Y-160827560D01*
X248478977Y-160621927D01*
X248127207Y-160296959D01*
X247742787Y-159867182D01*
X247466126Y-159515924D01*
X247183404Y-159127862D01*
X246930450Y-158751333D01*
X246690410Y-158356274D01*
X246446430Y-157912624D01*
X246181655Y-157390322D01*
X245879233Y-156759305D01*
X245675560Y-156322197D01*
X245486219Y-155924025D01*
X245339977Y-155651508D01*
X245215502Y-155473702D01*
X245091465Y-155359666D01*
X244960573Y-155285030D01*
X244671858Y-155195478D01*
X244317490Y-155149981D01*
X243965662Y-155151358D01*
X243684568Y-155202430D01*
X243620850Y-155229645D01*
X243508293Y-155315335D01*
X243468735Y-155436366D01*
X243504353Y-155626829D01*
X243617325Y-155920816D01*
X243673190Y-156049159D01*
X243839077Y-156454564D01*
X243932137Y-156789503D01*
X243945567Y-157089007D01*
X243872565Y-157388106D01*
X243706331Y-157721831D01*
X243440064Y-158125213D01*
X243208242Y-158443899D01*
X242850866Y-158950376D01*
X242599392Y-159371219D01*
X242438674Y-159739202D01*
X242353564Y-160087100D01*
X242330623Y-160342810D01*
X242313353Y-160599771D01*
X242286021Y-160771107D01*
X242263286Y-160814522D01*
X242136065Y-160758276D01*
X241919615Y-160605343D01*
X241643154Y-160380049D01*
X241335900Y-160106720D01*
X241027071Y-159809683D01*
X240899328Y-159678907D01*
X240325887Y-159079000D01*
X240325152Y-157914833D01*
X240324416Y-156750666D01*
X240832416Y-156750666D01*
X241228206Y-156718095D01*
X241486816Y-156608271D01*
X241629755Y-156403032D01*
X241678535Y-156084215D01*
X241679083Y-156035721D01*
X241636528Y-155675819D01*
X241496145Y-155424116D01*
X241238858Y-155263763D01*
X240845590Y-155177917D01*
X240691610Y-155163693D01*
X240093768Y-155120917D01*
X240024388Y-154729304D01*
X238203861Y-154729304D01*
X238189126Y-154814189D01*
X238135480Y-154816790D01*
X238021714Y-154723133D01*
X237826621Y-154519243D01*
X237738000Y-154422333D01*
X237461912Y-154085828D01*
X237187980Y-153698480D01*
X236982293Y-153356193D01*
X236697455Y-152716286D01*
X236512619Y-152083381D01*
X236433493Y-151489824D01*
X236465786Y-150967960D01*
X236522699Y-150751967D01*
X236641933Y-150543334D01*
X236792285Y-150491673D01*
X236965711Y-150589214D01*
X237154163Y-150828187D01*
X237349597Y-151200823D01*
X237543968Y-151699351D01*
X237563462Y-151757102D01*
X237659578Y-152078340D01*
X237767415Y-152491199D01*
X237878768Y-152957614D01*
X237985437Y-153439517D01*
X238079220Y-153898840D01*
X238151914Y-154297518D01*
X238195317Y-154597482D01*
X238203861Y-154729304D01*
X240024388Y-154729304D01*
X239986885Y-154517625D01*
X239794275Y-153645144D01*
X239530019Y-152765417D01*
X239209228Y-151915411D01*
X238847014Y-151132092D01*
X238458487Y-150452428D01*
X238148219Y-150019666D01*
X237677063Y-149536717D01*
X237174820Y-149209319D01*
X236651133Y-149042925D01*
X236383745Y-149021809D01*
X235930942Y-149084197D01*
G37*
X235930942Y-149084197D02*
X235572244Y-149274759D01*
X235303935Y-149598594D01*
X235122299Y-150060800D01*
X235023618Y-150666475D01*
X235008187Y-150908666D01*
X235038263Y-151768183D01*
X235210255Y-152575153D01*
X235531595Y-153349818D01*
X236009717Y-154112422D01*
X236337247Y-154528166D01*
X236854245Y-155142000D01*
X236070497Y-155150439D01*
X235595625Y-155161692D01*
X235262083Y-155188980D01*
X235042048Y-155240525D01*
X234907696Y-155324545D01*
X234831205Y-155449260D01*
X234807521Y-155523556D01*
X234804979Y-155836095D01*
X234937288Y-156155188D01*
X235179293Y-156431972D01*
X235329083Y-156536643D01*
X235462445Y-156602848D01*
X235619064Y-156651206D01*
X235828987Y-156685328D01*
X236122262Y-156708825D01*
X236528935Y-156725309D01*
X236993245Y-156736648D01*
X237523813Y-156746016D01*
X237908738Y-156760413D01*
X238171255Y-156797234D01*
X238334601Y-156873876D01*
X238422014Y-157007733D01*
X238456730Y-157216200D01*
X238461985Y-157516673D01*
X238460594Y-157835115D01*
X238442755Y-158386802D01*
X238391893Y-158938607D01*
X238314634Y-159442173D01*
X238217600Y-159849142D01*
X238163930Y-160000831D01*
X237907054Y-160412076D01*
X237544183Y-160703848D01*
X237103173Y-160860400D01*
X236629377Y-160868477D01*
X236195452Y-160763395D01*
X235798234Y-160558534D01*
X235408692Y-160249691D01*
X235075083Y-159948295D01*
X235075083Y-159256269D01*
X235064119Y-159121333D01*
X233152771Y-159121333D01*
X233149213Y-159523191D01*
X233117872Y-159816247D01*
X233049098Y-160060060D01*
X232972148Y-160236153D01*
X232714663Y-160625259D01*
X232402162Y-160859898D01*
X232048926Y-160936095D01*
X231669235Y-160849879D01*
X231379584Y-160679148D01*
X231156521Y-160451047D01*
X230954325Y-160140530D01*
X230809178Y-159813363D01*
X230757083Y-159547654D01*
X230819102Y-159361514D01*
X230979741Y-159138571D01*
X231046256Y-159069264D01*
X231319615Y-158708937D01*
X231531900Y-158243273D01*
X231660427Y-157731857D01*
X231688416Y-157382490D01*
X231694792Y-157116186D01*
X231725220Y-156977960D01*
X231796653Y-156926705D01*
X231878916Y-156920557D01*
X232144670Y-156990819D01*
X232436636Y-157178085D01*
X232700016Y-157445508D01*
X232942707Y-157867913D01*
X233091985Y-158405858D01*
X233151893Y-159074305D01*
X233152771Y-159121333D01*
X235064119Y-159121333D01*
X235003414Y-158374258D01*
X234787355Y-157578999D01*
X234425326Y-156866259D01*
X233967137Y-156285220D01*
X233444440Y-155828633D01*
X232873823Y-155525072D01*
X232226349Y-155361216D01*
X231889508Y-155328798D01*
X231355306Y-155325572D01*
X230922780Y-155391701D01*
X230533366Y-155541793D01*
X230179058Y-155755463D01*
X229862866Y-156039473D01*
X229558560Y-156431149D01*
X229293343Y-156881677D01*
X229094418Y-157342245D01*
X228988987Y-157764038D01*
X228979083Y-157908749D01*
X228971769Y-158017938D01*
X228928204Y-158078444D01*
X228815953Y-158094859D01*
X228602580Y-158071779D01*
X228255651Y-158013797D01*
X228247466Y-158012372D01*
X227957918Y-157957633D01*
X227793423Y-157901716D01*
X227711970Y-157815818D01*
X227671546Y-157671139D01*
X227660838Y-157610205D01*
X227538097Y-157016034D01*
X227387068Y-156483244D01*
X227218945Y-156044342D01*
X227044924Y-155731833D01*
X226990864Y-155664971D01*
X226820443Y-155501937D01*
X226644334Y-155408000D01*
X226398611Y-155356325D01*
X226206822Y-155335849D01*
X225823547Y-155325285D01*
X225578812Y-155383011D01*
X225452470Y-155518224D01*
X225423083Y-155693591D01*
X225442181Y-155847387D01*
X225494263Y-156126679D01*
X225571514Y-156492619D01*
X225666120Y-156906359D01*
X225672226Y-156932058D01*
X225774653Y-157382154D01*
X225866201Y-157820841D01*
X225936493Y-158196100D01*
X225973852Y-158444000D01*
X226026336Y-158909666D01*
X225824586Y-158437000D01*
X225407494Y-157583895D01*
X224933678Y-156835559D01*
X224517721Y-156324336D01*
X224082433Y-155897660D01*
X223678871Y-155604930D01*
X223270095Y-155425306D01*
X222819166Y-155337949D01*
X222759881Y-155332630D01*
X222456304Y-155314976D01*
X222264762Y-155331159D01*
X222129287Y-155393804D01*
X222006862Y-155502524D01*
X221848527Y-155707219D01*
X221754677Y-155957129D01*
X221722989Y-156280047D01*
X221751138Y-156703766D01*
X221836798Y-157256081D01*
X221852889Y-157343333D01*
X221929788Y-157750242D01*
X221999820Y-158113569D01*
X222054664Y-158390576D01*
X222083678Y-158528666D01*
X222068082Y-158547872D01*
X221988511Y-158437409D01*
X221858462Y-158218181D01*
X221720517Y-157966086D01*
X221235748Y-157150805D01*
X220727245Y-156479144D01*
X220201086Y-155956065D01*
X219663350Y-155586531D01*
X219120114Y-155375503D01*
X218577458Y-155327944D01*
X218497646Y-155335084D01*
X218211776Y-155396278D01*
X217993232Y-155517039D01*
X217839855Y-155711428D01*
X217749485Y-155993507D01*
X217719965Y-156377338D01*
X217749135Y-156876981D01*
X217834837Y-157506497D01*
X217974912Y-158279949D01*
X218014750Y-158480457D01*
X218140003Y-159117467D01*
X218228364Y-159611591D01*
X218281003Y-159984942D01*
X218299095Y-160259634D01*
X218283811Y-160457781D01*
X218236324Y-160601495D01*
X218157806Y-160712891D01*
X218134413Y-160737337D01*
X217948007Y-160856561D01*
X217728385Y-160862491D01*
X217463885Y-160748563D01*
X217142843Y-160508216D01*
X216753598Y-160134887D01*
X216415905Y-159770398D01*
X216159344Y-159497087D01*
X215927740Y-159274225D01*
X215753625Y-159131953D01*
X215689884Y-159097707D01*
X215465075Y-159107027D01*
X215298629Y-159246245D01*
X215195976Y-159484413D01*
X215162544Y-159790583D01*
X215203763Y-160133806D01*
X215325063Y-160483134D01*
X215417467Y-160650458D01*
X215710035Y-161028284D01*
X216108937Y-161430003D01*
X216564893Y-161812751D01*
X217028618Y-162133662D01*
X217288679Y-162278005D01*
X217601429Y-162420534D01*
X217864775Y-162502512D01*
X218152122Y-162540047D01*
X218524776Y-162549229D01*
X218890647Y-162542664D01*
X219141555Y-162513955D01*
X219331529Y-162451708D01*
X219514596Y-162344529D01*
X219523245Y-162338666D01*
X219790096Y-162105837D01*
X219981925Y-161811203D01*
X220101170Y-161437566D01*
X220150267Y-160967731D01*
X220131654Y-160384500D01*
X220047768Y-159670677D01*
X219969813Y-159188007D01*
X219873467Y-158589356D01*
X219822425Y-158146531D01*
X219819481Y-157851446D01*
X219867426Y-157696017D01*
X219969055Y-157672159D01*
X220127160Y-157771788D01*
X220344535Y-157986818D01*
X220373710Y-158018858D01*
X220711007Y-158475087D01*
X221048615Y-159095814D01*
X221384370Y-159876221D01*
X221716104Y-160811489D01*
X221908600Y-161432416D01*
X222024528Y-161783447D01*
X222146242Y-162085749D01*
X222253704Y-162291703D01*
X222289610Y-162337860D01*
X222564676Y-162505523D01*
X222910658Y-162569415D01*
X223257665Y-162519818D01*
X223344860Y-162484572D01*
X223603793Y-162289040D01*
X223792906Y-161977716D01*
X223913527Y-161542508D01*
X223966979Y-160975323D01*
X223954588Y-160268069D01*
X223877680Y-159412654D01*
X223865117Y-159307353D01*
X223800421Y-158763124D01*
X223758599Y-158363061D01*
X223739751Y-158083534D01*
X223743977Y-157900915D01*
X223771377Y-157791574D01*
X223822051Y-157731883D01*
X223871880Y-157706811D01*
X224039359Y-157729291D01*
X224240294Y-157898875D01*
X224465233Y-158198858D01*
X224704726Y-158612537D01*
X224949321Y-159123210D01*
X225189568Y-159714171D01*
X225416016Y-160368717D01*
X225462659Y-160518333D01*
X225656111Y-161144362D01*
X225814162Y-161626630D01*
X225949080Y-161983860D01*
X226073132Y-162234776D01*
X226198585Y-162398102D01*
X226337707Y-162492561D01*
X226502765Y-162536877D01*
X226706026Y-162549775D01*
X226793970Y-162550333D01*
X227105550Y-162514206D01*
X227350895Y-162395204D01*
X227538348Y-162177392D01*
X227676256Y-161844837D01*
X227772963Y-161381604D01*
X227836813Y-160771761D01*
X227852459Y-160529272D01*
X227904864Y-159608879D01*
X228336140Y-159660703D01*
X228612881Y-159691004D01*
X228833874Y-159710042D01*
X228904239Y-159713264D01*
X229022345Y-159796516D01*
X229154937Y-160039453D01*
X229218685Y-160200833D01*
X229561077Y-160940718D01*
X230000768Y-161544614D01*
X230543059Y-162018694D01*
X231011083Y-162288407D01*
X231640023Y-162501019D01*
X232289817Y-162563086D01*
X232930147Y-162479655D01*
X233530689Y-162255768D01*
X234061126Y-161896470D01*
X234208396Y-161756517D01*
X234543064Y-161411665D01*
X235013476Y-161776948D01*
X235507387Y-162125505D01*
X235959935Y-162356015D01*
X236427787Y-162488503D01*
X236967608Y-162542995D01*
X237193530Y-162547388D01*
X237588040Y-162543931D01*
X237872191Y-162522243D01*
X238104838Y-162470489D01*
X238344835Y-162376835D01*
X238566350Y-162271345D01*
X239122586Y-161922744D01*
X239539844Y-161488142D01*
X239792897Y-161047500D01*
X239890981Y-160849639D01*
X239966082Y-160738678D01*
X239980877Y-160730002D01*
X240057315Y-160790170D01*
X240195296Y-160942023D01*
X240264491Y-161026291D01*
X240569013Y-161344260D01*
X240959262Y-161663453D01*
X241374031Y-161938895D01*
X241752114Y-162125610D01*
X241768962Y-162131812D01*
X242071181Y-162221467D01*
X242439599Y-162304715D01*
X242662256Y-162343356D01*
X243035215Y-162426937D01*
X243420608Y-162557195D01*
X243609578Y-162642338D01*
X244073715Y-162816556D01*
X244587987Y-162902051D01*
X245087608Y-162892862D01*
X245440154Y-162810778D01*
X245833351Y-162598083D01*
X246114343Y-162312516D01*
X246278471Y-161983250D01*
X246321079Y-161639458D01*
X246237510Y-161310314D01*
X246023108Y-161024991D01*
X245753545Y-160847550D01*
X245526715Y-160768539D01*
X245257531Y-160741947D01*
X244885171Y-160761812D01*
X244881992Y-160762107D01*
X244566727Y-160784616D01*
X244387213Y-160776688D01*
X244312037Y-160734891D01*
X244303750Y-160698902D01*
X244355265Y-160433327D01*
X244496724Y-160080828D01*
X244708493Y-159683584D01*
X244946884Y-159317181D01*
X245336339Y-158771408D01*
X245655669Y-159317863D01*
X246008773Y-159874717D01*
X246413387Y-160435085D01*
X246836224Y-160957248D01*
X247243995Y-161399484D01*
X247518119Y-161652122D01*
X248123929Y-162086658D01*
X248727933Y-162386896D01*
X249312672Y-162547982D01*
X249860687Y-162565066D01*
X250344731Y-162437667D01*
X250597876Y-162303740D01*
X250769455Y-162139279D01*
X250917538Y-161884521D01*
X250951381Y-161813320D01*
X251076584Y-161475746D01*
X251150787Y-161139039D01*
X251160923Y-161005166D01*
X251175673Y-160785347D01*
X251211789Y-160658047D01*
X251229691Y-160645333D01*
X251294863Y-160717780D01*
X251386923Y-160902987D01*
X251444125Y-161047500D01*
X251703479Y-161591672D01*
X252037484Y-162030531D01*
X252426554Y-162348411D01*
X252851100Y-162529647D01*
X253291535Y-162558575D01*
X253327572Y-162553735D01*
X253729420Y-162418218D01*
X254085763Y-162161584D01*
X254341806Y-161825913D01*
X254378922Y-161746389D01*
X254459886Y-161572453D01*
X254514665Y-161492564D01*
X254517088Y-161492000D01*
X254598396Y-161537330D01*
X254770221Y-161653200D01*
X254896814Y-161743315D01*
X255250899Y-161954964D01*
X255709679Y-162167029D01*
X256210302Y-162355393D01*
X256689916Y-162495939D01*
X257020561Y-162558251D01*
X257464721Y-162571963D01*
X257972277Y-162528284D01*
X258476201Y-162437545D01*
X258909468Y-162310079D01*
X259063926Y-162243290D01*
X259422996Y-162016027D01*
X259786535Y-161707139D01*
X260100406Y-161368020D01*
X260301242Y-161068666D01*
X260519045Y-160483430D01*
X260622905Y-159799763D01*
X260621159Y-159086830D01*
X260498706Y-158242840D01*
X260243743Y-157471551D01*
X259866148Y-156788957D01*
X259375802Y-156211054D01*
X258782582Y-155753836D01*
X258453244Y-155576777D01*
X258171384Y-155459118D01*
X257906605Y-155390890D01*
X257593136Y-155359883D01*
X257251567Y-155353666D01*
X256879582Y-155359560D01*
X256623760Y-155384747D01*
X256431121Y-155440489D01*
X256248686Y-155538043D01*
X256182324Y-155580913D01*
X255818125Y-155919637D01*
X255582197Y-156367722D01*
X255475713Y-156922640D01*
X255469166Y-157119996D01*
X255520643Y-157637794D01*
X255666688Y-158064599D01*
X255894723Y-158381328D01*
X256192170Y-158568897D01*
X256453417Y-158613333D01*
X256709828Y-158568602D01*
X256903237Y-158479436D01*
X256995520Y-158401491D01*
X257050214Y-158300368D01*
X257074955Y-158136378D01*
X257077380Y-157869832D01*
X257070242Y-157611603D01*
X257046083Y-156877666D01*
X257371388Y-156850923D01*
X257579992Y-156851210D01*
X257744012Y-156913298D01*
X257925503Y-157066983D01*
X258017047Y-157160942D01*
X258332972Y-157598760D01*
X258547111Y-158147395D01*
X258665557Y-158822845D01*
X258670542Y-158876653D01*
X258669801Y-159517868D01*
X258550318Y-160051841D01*
X258318484Y-160471088D01*
X257980687Y-160768127D01*
X257543317Y-160935474D01*
X257012763Y-160965646D01*
X256896375Y-160954602D01*
X256550895Y-160869289D01*
X256131744Y-160700043D01*
X255693075Y-160473992D01*
X255289041Y-160218267D01*
X255046339Y-160027780D01*
X254908208Y-159898369D01*
X254814511Y-159776005D01*
X254751103Y-159620805D01*
X254703838Y-159392884D01*
X254658572Y-159052358D01*
X254637918Y-158876218D01*
X254566414Y-158374506D01*
X254465435Y-157819646D01*
X254345433Y-157257928D01*
X254216857Y-156735646D01*
X254090159Y-156299092D01*
X253999448Y-156048080D01*
X253789477Y-155689401D01*
X253501165Y-155461802D01*
X253105404Y-155345521D01*
X252938379Y-155327627D01*
X252646851Y-155317928D01*
X252430852Y-155348534D01*
X252286105Y-155437227D01*
X252208333Y-155601794D01*
X252193261Y-155860018D01*
X252236611Y-156229686D01*
X252334106Y-156728580D01*
X252464027Y-157300277D01*
X252585478Y-157862539D01*
X252688555Y-158425807D01*
X252769019Y-158957845D01*
X252822629Y-159426417D01*
X252845146Y-159799285D01*
X252832332Y-160044213D01*
X252827689Y-160065620D01*
X252740558Y-160250051D01*
X252639711Y-160338706D01*
X252437881Y-160329070D01*
X252206107Y-160167424D01*
X251951858Y-159866906D01*
X251682603Y-159440655D01*
X251405811Y-158901809D01*
X251128950Y-158263506D01*
X250859488Y-157538884D01*
X250616093Y-156778927D01*
X250451165Y-156260172D01*
X250299568Y-155883981D01*
X250143309Y-155626508D01*
X249964394Y-155463906D01*
X249744828Y-155372328D01*
X249525754Y-155333946D01*
X249237345Y-155318769D01*
X248983405Y-155333485D01*
X248923122Y-155344836D01*
X248793399Y-155394621D01*
X248729131Y-155491609D01*
X248707901Y-155685195D01*
X248706416Y-155822384D01*
X248724955Y-156077716D01*
X248775203Y-156445149D01*
X248849109Y-156872183D01*
X248923669Y-157238937D01*
X249115607Y-158137170D01*
X249266854Y-158890008D01*
X249376600Y-159492983D01*
X249444034Y-159941624D01*
X249468346Y-160231464D01*
X249468416Y-160242998D01*
X249416256Y-160520049D01*
X249282828Y-160750656D01*
X249102717Y-160884279D01*
X249019326Y-160899333D01*
X248781786Y-160827560D01*
X248478977Y-160621927D01*
X248127207Y-160296959D01*
X247742787Y-159867182D01*
X247466126Y-159515924D01*
X247183404Y-159127862D01*
X246930450Y-158751333D01*
X246690410Y-158356274D01*
X246446430Y-157912624D01*
X246181655Y-157390322D01*
X245879233Y-156759305D01*
X245675560Y-156322197D01*
X245486219Y-155924025D01*
X245339977Y-155651508D01*
X245215502Y-155473702D01*
X245091465Y-155359666D01*
X244960573Y-155285030D01*
X244671858Y-155195478D01*
X244317490Y-155149981D01*
X243965662Y-155151358D01*
X243684568Y-155202430D01*
X243620850Y-155229645D01*
X243508293Y-155315335D01*
X243468735Y-155436366D01*
X243504353Y-155626829D01*
X243617325Y-155920816D01*
X243673190Y-156049159D01*
X243839077Y-156454564D01*
X243932137Y-156789503D01*
X243945567Y-157089007D01*
X243872565Y-157388106D01*
X243706331Y-157721831D01*
X243440064Y-158125213D01*
X243208242Y-158443899D01*
X242850866Y-158950376D01*
X242599392Y-159371219D01*
X242438674Y-159739202D01*
X242353564Y-160087100D01*
X242330623Y-160342810D01*
X242313353Y-160599771D01*
X242286021Y-160771107D01*
X242263286Y-160814522D01*
X242136065Y-160758276D01*
X241919615Y-160605343D01*
X241643154Y-160380049D01*
X241335900Y-160106720D01*
X241027071Y-159809683D01*
X240899328Y-159678907D01*
X240325887Y-159079000D01*
X240325152Y-157914833D01*
X240324416Y-156750666D01*
X240832416Y-156750666D01*
X241228206Y-156718095D01*
X241486816Y-156608271D01*
X241629755Y-156403032D01*
X241678535Y-156084215D01*
X241679083Y-156035721D01*
X241636528Y-155675819D01*
X241496145Y-155424116D01*
X241238858Y-155263763D01*
X240845590Y-155177917D01*
X240691610Y-155163693D01*
X240093768Y-155120917D01*
X240024388Y-154729304D01*
X238203861Y-154729304D01*
X238189126Y-154814189D01*
X238135480Y-154816790D01*
X238021714Y-154723133D01*
X237826621Y-154519243D01*
X237738000Y-154422333D01*
X237461912Y-154085828D01*
X237187980Y-153698480D01*
X236982293Y-153356193D01*
X236697455Y-152716286D01*
X236512619Y-152083381D01*
X236433493Y-151489824D01*
X236465786Y-150967960D01*
X236522699Y-150751967D01*
X236641933Y-150543334D01*
X236792285Y-150491673D01*
X236965711Y-150589214D01*
X237154163Y-150828187D01*
X237349597Y-151200823D01*
X237543968Y-151699351D01*
X237563462Y-151757102D01*
X237659578Y-152078340D01*
X237767415Y-152491199D01*
X237878768Y-152957614D01*
X237985437Y-153439517D01*
X238079220Y-153898840D01*
X238151914Y-154297518D01*
X238195317Y-154597482D01*
X238203861Y-154729304D01*
X240024388Y-154729304D01*
X239986885Y-154517625D01*
X239794275Y-153645144D01*
X239530019Y-152765417D01*
X239209228Y-151915411D01*
X238847014Y-151132092D01*
X238458487Y-150452428D01*
X238148219Y-150019666D01*
X237677063Y-149536717D01*
X237174820Y-149209319D01*
X236651133Y-149042925D01*
X236383745Y-149021809D01*
X235930942Y-149084197D01*
G36*
X205455443Y-149490500D02*
G01*
X205388813Y-149712944D01*
X205283632Y-150070790D01*
X205147867Y-150536619D01*
X204989486Y-151083016D01*
X204816455Y-151682563D01*
X204637366Y-152305666D01*
X204465207Y-152901055D01*
X204305733Y-153443324D01*
X204165447Y-153911088D01*
X204050853Y-154282957D01*
X203968456Y-154537546D01*
X203924760Y-154653467D01*
X203922181Y-154657327D01*
X203883732Y-154595045D01*
X203800717Y-154388758D01*
X203679258Y-154056033D01*
X203525477Y-153614434D01*
X203345496Y-153081525D01*
X203145436Y-152474873D01*
X202941049Y-151842160D01*
X202019469Y-148961333D01*
X199176416Y-148961333D01*
X199176416Y-162677333D01*
X201379156Y-162677333D01*
X201335321Y-158846166D01*
X201325096Y-157989443D01*
X201314044Y-157128980D01*
X201302561Y-156291517D01*
X201291045Y-155503791D01*
X201279893Y-154792538D01*
X201269502Y-154184498D01*
X201260269Y-153706407D01*
X201256422Y-153533333D01*
X201221358Y-152051666D01*
X201427297Y-152686666D01*
X201505139Y-152926691D01*
X201626847Y-153301981D01*
X201784051Y-153786723D01*
X201968380Y-154355109D01*
X202171463Y-154981326D01*
X202384930Y-155639565D01*
X202470686Y-155904000D01*
X203308137Y-158486333D01*
X203905683Y-158511136D01*
X204503228Y-158535939D01*
X204760132Y-157706803D01*
X204856370Y-157395423D01*
X204992226Y-156954769D01*
X205157660Y-156417457D01*
X205342636Y-155816103D01*
X205537115Y-155183322D01*
X205692812Y-154676333D01*
X206368588Y-152475000D01*
X206314863Y-157576166D01*
X206261138Y-162677333D01*
X208405083Y-162677333D01*
X208405083Y-148961333D01*
X205617887Y-148961333D01*
X205455443Y-149490500D01*
G37*
X205455443Y-149490500D02*
X205388813Y-149712944D01*
X205283632Y-150070790D01*
X205147867Y-150536619D01*
X204989486Y-151083016D01*
X204816455Y-151682563D01*
X204637366Y-152305666D01*
X204465207Y-152901055D01*
X204305733Y-153443324D01*
X204165447Y-153911088D01*
X204050853Y-154282957D01*
X203968456Y-154537546D01*
X203924760Y-154653467D01*
X203922181Y-154657327D01*
X203883732Y-154595045D01*
X203800717Y-154388758D01*
X203679258Y-154056033D01*
X203525477Y-153614434D01*
X203345496Y-153081525D01*
X203145436Y-152474873D01*
X202941049Y-151842160D01*
X202019469Y-148961333D01*
X199176416Y-148961333D01*
X199176416Y-162677333D01*
X201379156Y-162677333D01*
X201335321Y-158846166D01*
X201325096Y-157989443D01*
X201314044Y-157128980D01*
X201302561Y-156291517D01*
X201291045Y-155503791D01*
X201279893Y-154792538D01*
X201269502Y-154184498D01*
X201260269Y-153706407D01*
X201256422Y-153533333D01*
X201221358Y-152051666D01*
X201427297Y-152686666D01*
X201505139Y-152926691D01*
X201626847Y-153301981D01*
X201784051Y-153786723D01*
X201968380Y-154355109D01*
X202171463Y-154981326D01*
X202384930Y-155639565D01*
X202470686Y-155904000D01*
X203308137Y-158486333D01*
X203905683Y-158511136D01*
X204503228Y-158535939D01*
X204760132Y-157706803D01*
X204856370Y-157395423D01*
X204992226Y-156954769D01*
X205157660Y-156417457D01*
X205342636Y-155816103D01*
X205537115Y-155183322D01*
X205692812Y-154676333D01*
X206368588Y-152475000D01*
X206314863Y-157576166D01*
X206261138Y-162677333D01*
X208405083Y-162677333D01*
X208405083Y-148961333D01*
X205617887Y-148961333D01*
X205455443Y-149490500D01*
G36*
X194435083Y-152146700D02*
G01*
X194434176Y-152982844D01*
X194431129Y-153663378D01*
X194425452Y-154202015D01*
X194416657Y-154612471D01*
X194404252Y-154908459D01*
X194387750Y-155103694D01*
X194366661Y-155211891D01*
X194340496Y-155246765D01*
X194324684Y-155240444D01*
X194252456Y-155155655D01*
X194089463Y-154949254D01*
X193846382Y-154635212D01*
X193533892Y-154227501D01*
X193162669Y-153740093D01*
X192743393Y-153186958D01*
X192286740Y-152582070D01*
X191890517Y-152055423D01*
X189566750Y-148962025D01*
X188180868Y-148961679D01*
X186794985Y-148961333D01*
X187036408Y-149278833D01*
X187141018Y-149414986D01*
X187336811Y-149668425D01*
X187611063Y-150022731D01*
X187951051Y-150461486D01*
X188344050Y-150968271D01*
X188777337Y-151526667D01*
X189238186Y-152120257D01*
X189366783Y-152285836D01*
X191455734Y-154975339D01*
X189010309Y-158805169D01*
X186564884Y-162635000D01*
X187890025Y-162658391D01*
X188348195Y-162662407D01*
X188746092Y-162658196D01*
X189053212Y-162646687D01*
X189239050Y-162628810D01*
X189279085Y-162616057D01*
X189336278Y-162531650D01*
X189472221Y-162318858D01*
X189676997Y-161993563D01*
X189940689Y-161571643D01*
X190253378Y-161068978D01*
X190605149Y-160501449D01*
X190986083Y-159884934D01*
X191091500Y-159714000D01*
X191478581Y-159087021D01*
X191839175Y-158504728D01*
X192163358Y-157983009D01*
X192441209Y-157537755D01*
X192662804Y-157184856D01*
X192818222Y-156940201D01*
X192897540Y-156819679D01*
X192904574Y-156810532D01*
X192981500Y-156844633D01*
X193146215Y-156985513D01*
X193375932Y-157211704D01*
X193647866Y-157501737D01*
X193702117Y-157561944D01*
X194435083Y-158380491D01*
X194435083Y-162677333D01*
X196721083Y-162677333D01*
X196721083Y-148961333D01*
X194435083Y-148961333D01*
X194435083Y-152146700D01*
G37*
X194435083Y-152146700D02*
X194434176Y-152982844D01*
X194431129Y-153663378D01*
X194425452Y-154202015D01*
X194416657Y-154612471D01*
X194404252Y-154908459D01*
X194387750Y-155103694D01*
X194366661Y-155211891D01*
X194340496Y-155246765D01*
X194324684Y-155240444D01*
X194252456Y-155155655D01*
X194089463Y-154949254D01*
X193846382Y-154635212D01*
X193533892Y-154227501D01*
X193162669Y-153740093D01*
X192743393Y-153186958D01*
X192286740Y-152582070D01*
X191890517Y-152055423D01*
X189566750Y-148962025D01*
X188180868Y-148961679D01*
X186794985Y-148961333D01*
X187036408Y-149278833D01*
X187141018Y-149414986D01*
X187336811Y-149668425D01*
X187611063Y-150022731D01*
X187951051Y-150461486D01*
X188344050Y-150968271D01*
X188777337Y-151526667D01*
X189238186Y-152120257D01*
X189366783Y-152285836D01*
X191455734Y-154975339D01*
X189010309Y-158805169D01*
X186564884Y-162635000D01*
X187890025Y-162658391D01*
X188348195Y-162662407D01*
X188746092Y-162658196D01*
X189053212Y-162646687D01*
X189239050Y-162628810D01*
X189279085Y-162616057D01*
X189336278Y-162531650D01*
X189472221Y-162318858D01*
X189676997Y-161993563D01*
X189940689Y-161571643D01*
X190253378Y-161068978D01*
X190605149Y-160501449D01*
X190986083Y-159884934D01*
X191091500Y-159714000D01*
X191478581Y-159087021D01*
X191839175Y-158504728D01*
X192163358Y-157983009D01*
X192441209Y-157537755D01*
X192662804Y-157184856D01*
X192818222Y-156940201D01*
X192897540Y-156819679D01*
X192904574Y-156810532D01*
X192981500Y-156844633D01*
X193146215Y-156985513D01*
X193375932Y-157211704D01*
X193647866Y-157501737D01*
X193702117Y-157561944D01*
X194435083Y-158380491D01*
X194435083Y-162677333D01*
X196721083Y-162677333D01*
X196721083Y-148961333D01*
X194435083Y-148961333D01*
X194435083Y-152146700D01*
D12*
G36*
X281201709Y-206226859D02*
G01*
X281565686Y-206377623D01*
X281893253Y-206596496D01*
X282171834Y-206875077D01*
X282390707Y-207202644D01*
X282541471Y-207566621D01*
X282618330Y-207953017D01*
X282618330Y-208346983D01*
X282541471Y-208733379D01*
X282390707Y-209097356D01*
X282171834Y-209424923D01*
X281893253Y-209703504D01*
X281565686Y-209922377D01*
X281201709Y-210073141D01*
X280815313Y-210150000D01*
X280421347Y-210150000D01*
X280034951Y-210073141D01*
X279670974Y-209922377D01*
X279343407Y-209703504D01*
X279064826Y-209424923D01*
X278845953Y-209097356D01*
X278695189Y-208733379D01*
X278618330Y-208346983D01*
X278618330Y-207953017D01*
X278695189Y-207566621D01*
X278845953Y-207202644D01*
X279064826Y-206875077D01*
X279343407Y-206596496D01*
X279670974Y-206377623D01*
X280034951Y-206226859D01*
X280421347Y-206150000D01*
X280815313Y-206150000D01*
X281201709Y-206226859D01*
G37*
G36*
X162805079Y-206226859D02*
G01*
X163169056Y-206377623D01*
X163496623Y-206596496D01*
X163775204Y-206875077D01*
X163994077Y-207202644D01*
X164144841Y-207566621D01*
X164221700Y-207953017D01*
X164221700Y-208346983D01*
X164144841Y-208733379D01*
X163994077Y-209097356D01*
X163775204Y-209424923D01*
X163496623Y-209703504D01*
X163169056Y-209922377D01*
X162805079Y-210073141D01*
X162418683Y-210150000D01*
X162024717Y-210150000D01*
X161638321Y-210073141D01*
X161274344Y-209922377D01*
X160946777Y-209703504D01*
X160668196Y-209424923D01*
X160449323Y-209097356D01*
X160298559Y-208733379D01*
X160221700Y-208346983D01*
X160221700Y-207953017D01*
X160298559Y-207566621D01*
X160449323Y-207202644D01*
X160668196Y-206875077D01*
X160946777Y-206596496D01*
X161274344Y-206377623D01*
X161638321Y-206226859D01*
X162024717Y-206150000D01*
X162418683Y-206150000D01*
X162805079Y-206226859D01*
G37*
G36*
X399598379Y-206016859D02*
G01*
X399962356Y-206167623D01*
X400289923Y-206386496D01*
X400568504Y-206665077D01*
X400787377Y-206992644D01*
X400938141Y-207356621D01*
X401015000Y-207743017D01*
X401015000Y-208136983D01*
X400938141Y-208523379D01*
X400787377Y-208887356D01*
X400568504Y-209214923D01*
X400289923Y-209493504D01*
X399962356Y-209712377D01*
X399598379Y-209863141D01*
X399211983Y-209940000D01*
X398818017Y-209940000D01*
X398431621Y-209863141D01*
X398067644Y-209712377D01*
X397740077Y-209493504D01*
X397461496Y-209214923D01*
X397242623Y-208887356D01*
X397091859Y-208523379D01*
X397015000Y-208136983D01*
X397015000Y-207743017D01*
X397091859Y-207356621D01*
X397242623Y-206992644D01*
X397461496Y-206665077D01*
X397740077Y-206386496D01*
X398067644Y-206167623D01*
X398431621Y-206016859D01*
X398818017Y-205940000D01*
X399211983Y-205940000D01*
X399598379Y-206016859D01*
G37*
G36*
X44408379Y-206016859D02*
G01*
X44772356Y-206167623D01*
X45099923Y-206386496D01*
X45378504Y-206665077D01*
X45597377Y-206992644D01*
X45748141Y-207356621D01*
X45825000Y-207743017D01*
X45825000Y-208136983D01*
X45748141Y-208523379D01*
X45597377Y-208887356D01*
X45378504Y-209214923D01*
X45099923Y-209493504D01*
X44772356Y-209712377D01*
X44408379Y-209863141D01*
X44021983Y-209940000D01*
X43628017Y-209940000D01*
X43241621Y-209863141D01*
X42877644Y-209712377D01*
X42550077Y-209493504D01*
X42271496Y-209214923D01*
X42052623Y-208887356D01*
X41901859Y-208523379D01*
X41825000Y-208136983D01*
X41825000Y-207743017D01*
X41901859Y-207356621D01*
X42052623Y-206992644D01*
X42271496Y-206665077D01*
X42550077Y-206386496D01*
X42877644Y-206167623D01*
X43241621Y-206016859D01*
X43628017Y-205940000D01*
X44021983Y-205940000D01*
X44408379Y-206016859D01*
G37*
G36*
X388405971Y-198829692D02*
G01*
X388840196Y-199009554D01*
X389230984Y-199270670D01*
X389563330Y-199603016D01*
X389824446Y-199993804D01*
X390004308Y-200428029D01*
X390096000Y-200888999D01*
X390096000Y-201359001D01*
X390004308Y-201819971D01*
X389824446Y-202254196D01*
X389563330Y-202644984D01*
X389230984Y-202977330D01*
X388840196Y-203238446D01*
X388405971Y-203418308D01*
X387945001Y-203510000D01*
X387474999Y-203510000D01*
X387014029Y-203418308D01*
X386579804Y-203238446D01*
X386189016Y-202977330D01*
X385856670Y-202644984D01*
X385595554Y-202254196D01*
X385415692Y-201819971D01*
X385324000Y-201359001D01*
X385324000Y-200888999D01*
X385415692Y-200428029D01*
X385595554Y-199993804D01*
X385856670Y-199603016D01*
X386189016Y-199270670D01*
X386579804Y-199009554D01*
X387014029Y-198829692D01*
X387474999Y-198738000D01*
X387945001Y-198738000D01*
X388405971Y-198829692D01*
G37*
G36*
X222139721Y-198829692D02*
G01*
X222573946Y-199009554D01*
X222964734Y-199270670D01*
X223297080Y-199603016D01*
X223558196Y-199993804D01*
X223738058Y-200428029D01*
X223829750Y-200888999D01*
X223829750Y-201359001D01*
X223738058Y-201819971D01*
X223558196Y-202254196D01*
X223297080Y-202644984D01*
X222964734Y-202977330D01*
X222573946Y-203238446D01*
X222139721Y-203418308D01*
X221678751Y-203510000D01*
X221208749Y-203510000D01*
X220747779Y-203418308D01*
X220313554Y-203238446D01*
X219922766Y-202977330D01*
X219590420Y-202644984D01*
X219329304Y-202254196D01*
X219149442Y-201819971D01*
X219057750Y-201359001D01*
X219057750Y-200888999D01*
X219149442Y-200428029D01*
X219329304Y-199993804D01*
X219590420Y-199603016D01*
X219922766Y-199270670D01*
X220313554Y-199009554D01*
X220747779Y-198829692D01*
X221208749Y-198738000D01*
X221678751Y-198738000D01*
X222139721Y-198829692D01*
G37*
G36*
X55873471Y-198829692D02*
G01*
X56307696Y-199009554D01*
X56698484Y-199270670D01*
X57030830Y-199603016D01*
X57291946Y-199993804D01*
X57471808Y-200428029D01*
X57563500Y-200888999D01*
X57563500Y-201359001D01*
X57471808Y-201819971D01*
X57291946Y-202254196D01*
X57030830Y-202644984D01*
X56698484Y-202977330D01*
X56307696Y-203238446D01*
X55873471Y-203418308D01*
X55412501Y-203510000D01*
X54942499Y-203510000D01*
X54481529Y-203418308D01*
X54047304Y-203238446D01*
X53656516Y-202977330D01*
X53324170Y-202644984D01*
X53063054Y-202254196D01*
X52883192Y-201819971D01*
X52791500Y-201359001D01*
X52791500Y-200888999D01*
X52883192Y-200428029D01*
X53063054Y-199993804D01*
X53324170Y-199603016D01*
X53656516Y-199270670D01*
X54047304Y-199009554D01*
X54481529Y-198829692D01*
X54942499Y-198738000D01*
X55412501Y-198738000D01*
X55873471Y-198829692D01*
G37*
G36*
X389139453Y-111778927D02*
G01*
X390031304Y-112148343D01*
X390833950Y-112684655D01*
X391516545Y-113367250D01*
X392052857Y-114169896D01*
X392422273Y-115061747D01*
X392610600Y-116008533D01*
X392610600Y-116973867D01*
X392422273Y-117920653D01*
X392052857Y-118812504D01*
X391516545Y-119615150D01*
X390833950Y-120297745D01*
X390031304Y-120834057D01*
X389139453Y-121203473D01*
X388192667Y-121391800D01*
X387227333Y-121391800D01*
X386280547Y-121203473D01*
X385388696Y-120834057D01*
X384586050Y-120297745D01*
X383903455Y-119615150D01*
X383367143Y-118812504D01*
X382997727Y-117920653D01*
X382809400Y-116973867D01*
X382809400Y-116008533D01*
X382997727Y-115061747D01*
X383367143Y-114169896D01*
X383903455Y-113367250D01*
X384586050Y-112684655D01*
X385388696Y-112148343D01*
X386280547Y-111778927D01*
X387227333Y-111590600D01*
X388192667Y-111590600D01*
X389139453Y-111778927D01*
G37*
G36*
X222873203Y-111778927D02*
G01*
X223765054Y-112148343D01*
X224567700Y-112684655D01*
X225250295Y-113367250D01*
X225786607Y-114169896D01*
X226156023Y-115061747D01*
X226344350Y-116008533D01*
X226344350Y-116973867D01*
X226156023Y-117920653D01*
X225786607Y-118812504D01*
X225250295Y-119615150D01*
X224567700Y-120297745D01*
X223765054Y-120834057D01*
X222873203Y-121203473D01*
X221926417Y-121391800D01*
X220961083Y-121391800D01*
X220014297Y-121203473D01*
X219122446Y-120834057D01*
X218319800Y-120297745D01*
X217637205Y-119615150D01*
X217100893Y-118812504D01*
X216731477Y-117920653D01*
X216543150Y-116973867D01*
X216543150Y-116008533D01*
X216731477Y-115061747D01*
X217100893Y-114169896D01*
X217637205Y-113367250D01*
X218319800Y-112684655D01*
X219122446Y-112148343D01*
X220014297Y-111778927D01*
X220961083Y-111590600D01*
X221926417Y-111590600D01*
X222873203Y-111778927D01*
G37*
G36*
X56606953Y-111778927D02*
G01*
X57498804Y-112148343D01*
X58301450Y-112684655D01*
X58984045Y-113367250D01*
X59520357Y-114169896D01*
X59889773Y-115061747D01*
X60078100Y-116008533D01*
X60078100Y-116973867D01*
X59889773Y-117920653D01*
X59520357Y-118812504D01*
X58984045Y-119615150D01*
X58301450Y-120297745D01*
X57498804Y-120834057D01*
X56606953Y-121203473D01*
X55660167Y-121391800D01*
X54694833Y-121391800D01*
X53748047Y-121203473D01*
X52856196Y-120834057D01*
X52053550Y-120297745D01*
X51370955Y-119615150D01*
X50834643Y-118812504D01*
X50465227Y-117920653D01*
X50276900Y-116973867D01*
X50276900Y-116008533D01*
X50465227Y-115061747D01*
X50834643Y-114169896D01*
X51370955Y-113367250D01*
X52053550Y-112684655D01*
X52856196Y-112148343D01*
X53748047Y-111778927D01*
X54694833Y-111590600D01*
X55660167Y-111590600D01*
X56606953Y-111778927D01*
G37*
G36*
X399598379Y-101256859D02*
G01*
X399962356Y-101407623D01*
X400289923Y-101626496D01*
X400568504Y-101905077D01*
X400787377Y-102232644D01*
X400938141Y-102596621D01*
X401015000Y-102983017D01*
X401015000Y-103376983D01*
X400938141Y-103763379D01*
X400787377Y-104127356D01*
X400568504Y-104454923D01*
X400289923Y-104733504D01*
X399962356Y-104952377D01*
X399598379Y-105103141D01*
X399211983Y-105180000D01*
X398818017Y-105180000D01*
X398431621Y-105103141D01*
X398067644Y-104952377D01*
X397740077Y-104733504D01*
X397461496Y-104454923D01*
X397242623Y-104127356D01*
X397091859Y-103763379D01*
X397015000Y-103376983D01*
X397015000Y-102983017D01*
X397091859Y-102596621D01*
X397242623Y-102232644D01*
X397461496Y-101905077D01*
X397740077Y-101626496D01*
X398067644Y-101407623D01*
X398431621Y-101256859D01*
X398818017Y-101180000D01*
X399211983Y-101180000D01*
X399598379Y-101256859D01*
G37*
G36*
X44408379Y-101256859D02*
G01*
X44772356Y-101407623D01*
X45099923Y-101626496D01*
X45378504Y-101905077D01*
X45597377Y-102232644D01*
X45748141Y-102596621D01*
X45825000Y-102983017D01*
X45825000Y-103376983D01*
X45748141Y-103763379D01*
X45597377Y-104127356D01*
X45378504Y-104454923D01*
X45099923Y-104733504D01*
X44772356Y-104952377D01*
X44408379Y-105103141D01*
X44021983Y-105180000D01*
X43628017Y-105180000D01*
X43241621Y-105103141D01*
X42877644Y-104952377D01*
X42550077Y-104733504D01*
X42271496Y-104454923D01*
X42052623Y-104127356D01*
X41901859Y-103763379D01*
X41825000Y-103376983D01*
X41825000Y-102983017D01*
X41901859Y-102596621D01*
X42052623Y-102232644D01*
X42271496Y-101905077D01*
X42550077Y-101626496D01*
X42877644Y-101407623D01*
X43241621Y-101256859D01*
X43628017Y-101180000D01*
X44021983Y-101180000D01*
X44408379Y-101256859D01*
G37*
G36*
X281201712Y-101226859D02*
G01*
X281565689Y-101377623D01*
X281893256Y-101596496D01*
X282171837Y-101875077D01*
X282390710Y-102202644D01*
X282541474Y-102566621D01*
X282618333Y-102953017D01*
X282618333Y-103346983D01*
X282541474Y-103733379D01*
X282390710Y-104097356D01*
X282171837Y-104424923D01*
X281893256Y-104703504D01*
X281565689Y-104922377D01*
X281201712Y-105073141D01*
X280815316Y-105150000D01*
X280421350Y-105150000D01*
X280034954Y-105073141D01*
X279670977Y-104922377D01*
X279343410Y-104703504D01*
X279064829Y-104424923D01*
X278845956Y-104097356D01*
X278695192Y-103733379D01*
X278618333Y-103346983D01*
X278618333Y-102953017D01*
X278695192Y-102566621D01*
X278845956Y-102202644D01*
X279064829Y-101875077D01*
X279343410Y-101596496D01*
X279670977Y-101377623D01*
X280034954Y-101226859D01*
X280421350Y-101150000D01*
X280815316Y-101150000D01*
X281201712Y-101226859D01*
G37*
G36*
X162805046Y-101226859D02*
G01*
X163169023Y-101377623D01*
X163496590Y-101596496D01*
X163775171Y-101875077D01*
X163994044Y-102202644D01*
X164144808Y-102566621D01*
X164221667Y-102953017D01*
X164221667Y-103346983D01*
X164144808Y-103733379D01*
X163994044Y-104097356D01*
X163775171Y-104424923D01*
X163496590Y-104703504D01*
X163169023Y-104922377D01*
X162805046Y-105073141D01*
X162418650Y-105150000D01*
X162024684Y-105150000D01*
X161638288Y-105073141D01*
X161274311Y-104922377D01*
X160946744Y-104703504D01*
X160668163Y-104424923D01*
X160449290Y-104097356D01*
X160298526Y-103733379D01*
X160221667Y-103346983D01*
X160221667Y-102953017D01*
X160298526Y-102566621D01*
X160449290Y-102202644D01*
X160668163Y-101875077D01*
X160946744Y-101596496D01*
X161274311Y-101377623D01*
X161638288Y-101226859D01*
X162024684Y-101150000D01*
X162418650Y-101150000D01*
X162805046Y-101226859D01*
G37*
M02*
