%TF.GenerationSoftware,KiCad,Pcbnew,(5.1.6-0-10_14)*%
%TF.CreationDate,2021-09-05T19:18:27-05:00*%
%TF.ProjectId,EVO70_FR4_plate_acrylic,45564f37-305f-4465-9234-5f706c617465,rev?*%
%TF.SameCoordinates,Original*%
%TF.FileFunction,Copper,L1,Top*%
%TF.FilePolarity,Positive*%
%FSLAX46Y46*%
G04 Gerber Fmt 4.6, Leading zero omitted, Abs format (unit mm)*
G04 Created by KiCad (PCBNEW (5.1.6-0-10_14)) date 2021-09-05 19:18:27*
%MOMM*%
%LPD*%
G01*
G04 APERTURE LIST*
%TA.AperFunction,EtchedComponent*%
%ADD10C,0.010000*%
%TD*%
%TA.AperFunction,Conductor*%
%ADD11C,0.508000*%
%TD*%
G04 APERTURE END LIST*
D10*
%TO.C,G3*%
G36*
X71525274Y-143770601D02*
G01*
X71712144Y-143770873D01*
X71877870Y-143771391D01*
X72023870Y-143772212D01*
X72151558Y-143773394D01*
X72262350Y-143774993D01*
X72357662Y-143777069D01*
X72438911Y-143779677D01*
X72507511Y-143782877D01*
X72564878Y-143786725D01*
X72612430Y-143791279D01*
X72651580Y-143796597D01*
X72683745Y-143802736D01*
X72710342Y-143809754D01*
X72732785Y-143817708D01*
X72752490Y-143826656D01*
X72770874Y-143836656D01*
X72789352Y-143847765D01*
X72809340Y-143860040D01*
X72814933Y-143863415D01*
X72928820Y-143946865D01*
X73021359Y-144047129D01*
X73090882Y-144162033D01*
X73132575Y-144276855D01*
X73136742Y-144294659D01*
X73140406Y-144315353D01*
X73143600Y-144340752D01*
X73146356Y-144372674D01*
X73148705Y-144412935D01*
X73150678Y-144463351D01*
X73152309Y-144525740D01*
X73153628Y-144601917D01*
X73154668Y-144693699D01*
X73155460Y-144802904D01*
X73156036Y-144931347D01*
X73156428Y-145080846D01*
X73156667Y-145253216D01*
X73156787Y-145450274D01*
X73156817Y-145660889D01*
X73156783Y-145882955D01*
X73156658Y-146078616D01*
X73156410Y-146249688D01*
X73156009Y-146397987D01*
X73155422Y-146525330D01*
X73154618Y-146633535D01*
X73153564Y-146724417D01*
X73152228Y-146799792D01*
X73150580Y-146861479D01*
X73148586Y-146911293D01*
X73146216Y-146951050D01*
X73143437Y-146982568D01*
X73140218Y-147007663D01*
X73136527Y-147028152D01*
X73132575Y-147044924D01*
X73085324Y-147171209D01*
X73013547Y-147284818D01*
X72918912Y-147383580D01*
X72814933Y-147458363D01*
X72794324Y-147470950D01*
X72775591Y-147482355D01*
X72757318Y-147492637D01*
X72738091Y-147501852D01*
X72716492Y-147510058D01*
X72691107Y-147517312D01*
X72660519Y-147523673D01*
X72623312Y-147529198D01*
X72578071Y-147533944D01*
X72523380Y-147537970D01*
X72457823Y-147541332D01*
X72379985Y-147544088D01*
X72288448Y-147546296D01*
X72181799Y-147548013D01*
X72058620Y-147549297D01*
X71917496Y-147550206D01*
X71757011Y-147550797D01*
X71575750Y-147551127D01*
X71372296Y-147551255D01*
X71145234Y-147551237D01*
X70893148Y-147551132D01*
X70614622Y-147550997D01*
X70538047Y-147550964D01*
X70259189Y-147550832D01*
X70007130Y-147550663D01*
X69780445Y-147550439D01*
X69577712Y-147550144D01*
X69397507Y-147549761D01*
X69238407Y-147549271D01*
X69098987Y-147548660D01*
X68977824Y-147547908D01*
X68873495Y-147547001D01*
X68784576Y-147545919D01*
X68709644Y-147544647D01*
X68647274Y-147543167D01*
X68596044Y-147541462D01*
X68554529Y-147539516D01*
X68521307Y-147537311D01*
X68494954Y-147534830D01*
X68474045Y-147532056D01*
X68457158Y-147528972D01*
X68444187Y-147525908D01*
X68321521Y-147479925D01*
X68210291Y-147410781D01*
X68113987Y-147322051D01*
X68036099Y-147217311D01*
X67980116Y-147100138D01*
X67959331Y-147029092D01*
X67955047Y-146995678D01*
X67951168Y-146936597D01*
X67947695Y-146854401D01*
X67944628Y-146751641D01*
X67941967Y-146630871D01*
X67939712Y-146494642D01*
X67937862Y-146345507D01*
X67936418Y-146186017D01*
X67935381Y-146018725D01*
X67934749Y-145846182D01*
X67934523Y-145670942D01*
X67934702Y-145495555D01*
X67935288Y-145322575D01*
X67936279Y-145154553D01*
X67937676Y-144994041D01*
X67939479Y-144843591D01*
X67941688Y-144705757D01*
X67944303Y-144583089D01*
X67947324Y-144478140D01*
X67950750Y-144393462D01*
X67954582Y-144331607D01*
X67956711Y-144313278D01*
X68085500Y-144313278D01*
X68085500Y-147008500D01*
X68123041Y-147088583D01*
X68184411Y-147189750D01*
X68264878Y-147276415D01*
X68359400Y-147344208D01*
X68462938Y-147388761D01*
X68472558Y-147391491D01*
X68487769Y-147394011D01*
X68514650Y-147396279D01*
X68554348Y-147398303D01*
X68608011Y-147400090D01*
X68676787Y-147401649D01*
X68761823Y-147402988D01*
X68864267Y-147404115D01*
X68985266Y-147405037D01*
X69125969Y-147405764D01*
X69287523Y-147406304D01*
X69471075Y-147406663D01*
X69677773Y-147406851D01*
X69908765Y-147406875D01*
X70165199Y-147406744D01*
X70448222Y-147406466D01*
X70576111Y-147406306D01*
X72615166Y-147403611D01*
X72695855Y-147365793D01*
X72797420Y-147303426D01*
X72885719Y-147219914D01*
X72954424Y-147121470D01*
X72964539Y-147102001D01*
X73010277Y-147009094D01*
X73010277Y-144312685D01*
X72964539Y-144219777D01*
X72900179Y-144119240D01*
X72815047Y-144032479D01*
X72715471Y-143965706D01*
X72695855Y-143955985D01*
X72615166Y-143918167D01*
X68480017Y-143918167D01*
X68387110Y-143963905D01*
X68286572Y-144028266D01*
X68199812Y-144113397D01*
X68133039Y-144212973D01*
X68123318Y-144232590D01*
X68085500Y-144313278D01*
X67956711Y-144313278D01*
X67958820Y-144295127D01*
X67959331Y-144292686D01*
X68001253Y-144170021D01*
X68067072Y-144057749D01*
X68153297Y-143959448D01*
X68256439Y-143878692D01*
X68373008Y-143819057D01*
X68444187Y-143795870D01*
X68458667Y-143792491D01*
X68475884Y-143789439D01*
X68497260Y-143786694D01*
X68524221Y-143784240D01*
X68558189Y-143782061D01*
X68600588Y-143780139D01*
X68652841Y-143778457D01*
X68716373Y-143776998D01*
X68792606Y-143775745D01*
X68882965Y-143774682D01*
X68988872Y-143773790D01*
X69111752Y-143773053D01*
X69253028Y-143772454D01*
X69414123Y-143771976D01*
X69596462Y-143771602D01*
X69801467Y-143771314D01*
X70030563Y-143771096D01*
X70285172Y-143770931D01*
X70538047Y-143770814D01*
X70823648Y-143770680D01*
X71082442Y-143770562D01*
X71315845Y-143770516D01*
X71525274Y-143770601D01*
G37*
X71525274Y-143770601D02*
X71712144Y-143770873D01*
X71877870Y-143771391D01*
X72023870Y-143772212D01*
X72151558Y-143773394D01*
X72262350Y-143774993D01*
X72357662Y-143777069D01*
X72438911Y-143779677D01*
X72507511Y-143782877D01*
X72564878Y-143786725D01*
X72612430Y-143791279D01*
X72651580Y-143796597D01*
X72683745Y-143802736D01*
X72710342Y-143809754D01*
X72732785Y-143817708D01*
X72752490Y-143826656D01*
X72770874Y-143836656D01*
X72789352Y-143847765D01*
X72809340Y-143860040D01*
X72814933Y-143863415D01*
X72928820Y-143946865D01*
X73021359Y-144047129D01*
X73090882Y-144162033D01*
X73132575Y-144276855D01*
X73136742Y-144294659D01*
X73140406Y-144315353D01*
X73143600Y-144340752D01*
X73146356Y-144372674D01*
X73148705Y-144412935D01*
X73150678Y-144463351D01*
X73152309Y-144525740D01*
X73153628Y-144601917D01*
X73154668Y-144693699D01*
X73155460Y-144802904D01*
X73156036Y-144931347D01*
X73156428Y-145080846D01*
X73156667Y-145253216D01*
X73156787Y-145450274D01*
X73156817Y-145660889D01*
X73156783Y-145882955D01*
X73156658Y-146078616D01*
X73156410Y-146249688D01*
X73156009Y-146397987D01*
X73155422Y-146525330D01*
X73154618Y-146633535D01*
X73153564Y-146724417D01*
X73152228Y-146799792D01*
X73150580Y-146861479D01*
X73148586Y-146911293D01*
X73146216Y-146951050D01*
X73143437Y-146982568D01*
X73140218Y-147007663D01*
X73136527Y-147028152D01*
X73132575Y-147044924D01*
X73085324Y-147171209D01*
X73013547Y-147284818D01*
X72918912Y-147383580D01*
X72814933Y-147458363D01*
X72794324Y-147470950D01*
X72775591Y-147482355D01*
X72757318Y-147492637D01*
X72738091Y-147501852D01*
X72716492Y-147510058D01*
X72691107Y-147517312D01*
X72660519Y-147523673D01*
X72623312Y-147529198D01*
X72578071Y-147533944D01*
X72523380Y-147537970D01*
X72457823Y-147541332D01*
X72379985Y-147544088D01*
X72288448Y-147546296D01*
X72181799Y-147548013D01*
X72058620Y-147549297D01*
X71917496Y-147550206D01*
X71757011Y-147550797D01*
X71575750Y-147551127D01*
X71372296Y-147551255D01*
X71145234Y-147551237D01*
X70893148Y-147551132D01*
X70614622Y-147550997D01*
X70538047Y-147550964D01*
X70259189Y-147550832D01*
X70007130Y-147550663D01*
X69780445Y-147550439D01*
X69577712Y-147550144D01*
X69397507Y-147549761D01*
X69238407Y-147549271D01*
X69098987Y-147548660D01*
X68977824Y-147547908D01*
X68873495Y-147547001D01*
X68784576Y-147545919D01*
X68709644Y-147544647D01*
X68647274Y-147543167D01*
X68596044Y-147541462D01*
X68554529Y-147539516D01*
X68521307Y-147537311D01*
X68494954Y-147534830D01*
X68474045Y-147532056D01*
X68457158Y-147528972D01*
X68444187Y-147525908D01*
X68321521Y-147479925D01*
X68210291Y-147410781D01*
X68113987Y-147322051D01*
X68036099Y-147217311D01*
X67980116Y-147100138D01*
X67959331Y-147029092D01*
X67955047Y-146995678D01*
X67951168Y-146936597D01*
X67947695Y-146854401D01*
X67944628Y-146751641D01*
X67941967Y-146630871D01*
X67939712Y-146494642D01*
X67937862Y-146345507D01*
X67936418Y-146186017D01*
X67935381Y-146018725D01*
X67934749Y-145846182D01*
X67934523Y-145670942D01*
X67934702Y-145495555D01*
X67935288Y-145322575D01*
X67936279Y-145154553D01*
X67937676Y-144994041D01*
X67939479Y-144843591D01*
X67941688Y-144705757D01*
X67944303Y-144583089D01*
X67947324Y-144478140D01*
X67950750Y-144393462D01*
X67954582Y-144331607D01*
X67956711Y-144313278D01*
X68085500Y-144313278D01*
X68085500Y-147008500D01*
X68123041Y-147088583D01*
X68184411Y-147189750D01*
X68264878Y-147276415D01*
X68359400Y-147344208D01*
X68462938Y-147388761D01*
X68472558Y-147391491D01*
X68487769Y-147394011D01*
X68514650Y-147396279D01*
X68554348Y-147398303D01*
X68608011Y-147400090D01*
X68676787Y-147401649D01*
X68761823Y-147402988D01*
X68864267Y-147404115D01*
X68985266Y-147405037D01*
X69125969Y-147405764D01*
X69287523Y-147406304D01*
X69471075Y-147406663D01*
X69677773Y-147406851D01*
X69908765Y-147406875D01*
X70165199Y-147406744D01*
X70448222Y-147406466D01*
X70576111Y-147406306D01*
X72615166Y-147403611D01*
X72695855Y-147365793D01*
X72797420Y-147303426D01*
X72885719Y-147219914D01*
X72954424Y-147121470D01*
X72964539Y-147102001D01*
X73010277Y-147009094D01*
X73010277Y-144312685D01*
X72964539Y-144219777D01*
X72900179Y-144119240D01*
X72815047Y-144032479D01*
X72715471Y-143965706D01*
X72695855Y-143955985D01*
X72615166Y-143918167D01*
X68480017Y-143918167D01*
X68387110Y-143963905D01*
X68286572Y-144028266D01*
X68199812Y-144113397D01*
X68133039Y-144212973D01*
X68123318Y-144232590D01*
X68085500Y-144313278D01*
X67956711Y-144313278D01*
X67958820Y-144295127D01*
X67959331Y-144292686D01*
X68001253Y-144170021D01*
X68067072Y-144057749D01*
X68153297Y-143959448D01*
X68256439Y-143878692D01*
X68373008Y-143819057D01*
X68444187Y-143795870D01*
X68458667Y-143792491D01*
X68475884Y-143789439D01*
X68497260Y-143786694D01*
X68524221Y-143784240D01*
X68558189Y-143782061D01*
X68600588Y-143780139D01*
X68652841Y-143778457D01*
X68716373Y-143776998D01*
X68792606Y-143775745D01*
X68882965Y-143774682D01*
X68988872Y-143773790D01*
X69111752Y-143773053D01*
X69253028Y-143772454D01*
X69414123Y-143771976D01*
X69596462Y-143771602D01*
X69801467Y-143771314D01*
X70030563Y-143771096D01*
X70285172Y-143770931D01*
X70538047Y-143770814D01*
X70823648Y-143770680D01*
X71082442Y-143770562D01*
X71315845Y-143770516D01*
X71525274Y-143770601D01*
G36*
X64210468Y-144580700D02*
G01*
X64270251Y-144612460D01*
X64314969Y-144666433D01*
X64345241Y-144743467D01*
X64361688Y-144844413D01*
X64364260Y-144884778D01*
X64359247Y-145028031D01*
X64330582Y-145162526D01*
X64277025Y-145291637D01*
X64197338Y-145418737D01*
X64142750Y-145488028D01*
X64056584Y-145590334D01*
X64187208Y-145591740D01*
X64266354Y-145593616D01*
X64321944Y-145598164D01*
X64358617Y-145606754D01*
X64381009Y-145620758D01*
X64393757Y-145641544D01*
X64397704Y-145653926D01*
X64398128Y-145706016D01*
X64376077Y-145759198D01*
X64335742Y-145805329D01*
X64310777Y-145822774D01*
X64288550Y-145833808D01*
X64262447Y-145841868D01*
X64227460Y-145847555D01*
X64178581Y-145851471D01*
X64110802Y-145854218D01*
X64033417Y-145856108D01*
X63944989Y-145857670D01*
X63880835Y-145860069D01*
X63837082Y-145866206D01*
X63809858Y-145878980D01*
X63795289Y-145901289D01*
X63789503Y-145936034D01*
X63788627Y-145986112D01*
X63788859Y-146039186D01*
X63791832Y-146131134D01*
X63800309Y-146223101D01*
X63813186Y-146307029D01*
X63829358Y-146374857D01*
X63838303Y-146400139D01*
X63881116Y-146468680D01*
X63941594Y-146517308D01*
X64015096Y-146543400D01*
X64094062Y-146544746D01*
X64166383Y-146527233D01*
X64232586Y-146493089D01*
X64297509Y-146441615D01*
X64353111Y-146391383D01*
X64353111Y-146276045D01*
X64354938Y-146253556D01*
X64673496Y-146253556D01*
X64674089Y-146320532D01*
X64679313Y-146369375D01*
X64690775Y-146410010D01*
X64703600Y-146439359D01*
X64746514Y-146504210D01*
X64798598Y-146543317D01*
X64857470Y-146556016D01*
X64920752Y-146541647D01*
X64969027Y-146513192D01*
X65006204Y-146475175D01*
X65039904Y-146423422D01*
X65064095Y-146368894D01*
X65072777Y-146324609D01*
X65062441Y-146293586D01*
X65035668Y-146256429D01*
X65024582Y-146244878D01*
X64979022Y-146184823D01*
X64943641Y-146107212D01*
X64922220Y-146021976D01*
X64917555Y-145963749D01*
X64916493Y-145919365D01*
X64911421Y-145896327D01*
X64899516Y-145887784D01*
X64885805Y-145886760D01*
X64841513Y-145898470D01*
X64792852Y-145929681D01*
X64748955Y-145974252D01*
X64708507Y-146044652D01*
X64683627Y-146134310D01*
X64673642Y-146245718D01*
X64673496Y-146253556D01*
X64354938Y-146253556D01*
X64365056Y-146129043D01*
X64401065Y-145996500D01*
X64461404Y-145877710D01*
X64537768Y-145780870D01*
X64624885Y-145704772D01*
X64719987Y-145654179D01*
X64827900Y-145626870D01*
X64884040Y-145621467D01*
X64973074Y-145620929D01*
X65045161Y-145631950D01*
X65110064Y-145656966D01*
X65169115Y-145692577D01*
X65221814Y-145739912D01*
X65272531Y-145805192D01*
X65316734Y-145880280D01*
X65349888Y-145957041D01*
X65367460Y-146027340D01*
X65369111Y-146051458D01*
X65370330Y-146069657D01*
X65377591Y-146079741D01*
X65396299Y-146082477D01*
X65431861Y-146078630D01*
X65489683Y-146068966D01*
X65491047Y-146068729D01*
X65539305Y-146059606D01*
X65566721Y-146050286D01*
X65580296Y-146035970D01*
X65587034Y-146011857D01*
X65588818Y-146001701D01*
X65609275Y-145902673D01*
X65634447Y-145813874D01*
X65662467Y-145740724D01*
X65691471Y-145688639D01*
X65700481Y-145677495D01*
X65728884Y-145650323D01*
X65758236Y-145634667D01*
X65799189Y-145626054D01*
X65831154Y-145622642D01*
X65895033Y-145620881D01*
X65935823Y-145630502D01*
X65956880Y-145653038D01*
X65961777Y-145682265D01*
X65958594Y-145707898D01*
X65949914Y-145754447D01*
X65937039Y-145815437D01*
X65921271Y-145884393D01*
X65920254Y-145888677D01*
X65903182Y-145963693D01*
X65887924Y-146036807D01*
X65876209Y-146099350D01*
X65869983Y-146140667D01*
X65861235Y-146218278D01*
X65894860Y-146139500D01*
X65964376Y-145997316D01*
X66043345Y-145872593D01*
X66112671Y-145787390D01*
X66185219Y-145716277D01*
X66252479Y-145667489D01*
X66320609Y-145637551D01*
X66395764Y-145622992D01*
X66405644Y-145622105D01*
X66456241Y-145619163D01*
X66488164Y-145621860D01*
X66510743Y-145632301D01*
X66531148Y-145650421D01*
X66557537Y-145684537D01*
X66573178Y-145726188D01*
X66578460Y-145780008D01*
X66573768Y-145850628D01*
X66559492Y-145942680D01*
X66556810Y-145957222D01*
X66543993Y-146025041D01*
X66532321Y-146085595D01*
X66523181Y-146131763D01*
X66518345Y-146154778D01*
X66520944Y-146157979D01*
X66534206Y-146139568D01*
X66555881Y-146103030D01*
X66578872Y-146061015D01*
X66659667Y-145925134D01*
X66744417Y-145813191D01*
X66832110Y-145726011D01*
X66921733Y-145664422D01*
X67012272Y-145629251D01*
X67102715Y-145621324D01*
X67116017Y-145622514D01*
X67163662Y-145632713D01*
X67200086Y-145652840D01*
X67225649Y-145685238D01*
X67240710Y-145732251D01*
X67245630Y-145796223D01*
X67240769Y-145879497D01*
X67226485Y-145984416D01*
X67203139Y-146113325D01*
X67196500Y-146146743D01*
X67175624Y-146252911D01*
X67160897Y-146335265D01*
X67152124Y-146397491D01*
X67149109Y-146443273D01*
X67151656Y-146476297D01*
X67159571Y-146500249D01*
X67172657Y-146518815D01*
X67176556Y-146522890D01*
X67207623Y-146542760D01*
X67244227Y-146543749D01*
X67288310Y-146524761D01*
X67341817Y-146484703D01*
X67406692Y-146422481D01*
X67462974Y-146361733D01*
X67505734Y-146316181D01*
X67544335Y-146279038D01*
X67573354Y-146255326D01*
X67583977Y-146249618D01*
X67621445Y-146251171D01*
X67649186Y-146274374D01*
X67666295Y-146314069D01*
X67671867Y-146365097D01*
X67664997Y-146422301D01*
X67644781Y-146480523D01*
X67629380Y-146508410D01*
X67580619Y-146571381D01*
X67514135Y-146638334D01*
X67438142Y-146702125D01*
X67360855Y-146755611D01*
X67317511Y-146779668D01*
X67265386Y-146803423D01*
X67221495Y-146817086D01*
X67173604Y-146823341D01*
X67111495Y-146824872D01*
X67050517Y-146823778D01*
X67008699Y-146818993D01*
X66977036Y-146808618D01*
X66946525Y-146790755D01*
X66945084Y-146789778D01*
X66900609Y-146750973D01*
X66868637Y-146701867D01*
X66848763Y-146639595D01*
X66840580Y-146561289D01*
X66843682Y-146464084D01*
X66857663Y-146345113D01*
X66870656Y-146264668D01*
X66886713Y-146164893D01*
X66895220Y-146091089D01*
X66895711Y-146041908D01*
X66887720Y-146016003D01*
X66870782Y-146012027D01*
X66844431Y-146028632D01*
X66808202Y-146064470D01*
X66803340Y-146069810D01*
X66747123Y-146145848D01*
X66690855Y-146249303D01*
X66634896Y-146379370D01*
X66579607Y-146535248D01*
X66547525Y-146638736D01*
X66528203Y-146697241D01*
X66507918Y-146747625D01*
X66490007Y-146781951D01*
X66484023Y-146789644D01*
X66438179Y-146817587D01*
X66380515Y-146828236D01*
X66322680Y-146819970D01*
X66308148Y-146814096D01*
X66264992Y-146781507D01*
X66233474Y-146729620D01*
X66213370Y-146657085D01*
X66204461Y-146562554D01*
X66206527Y-146444678D01*
X66219345Y-146302109D01*
X66221438Y-146284559D01*
X66232221Y-146193854D01*
X66239191Y-146127177D01*
X66242333Y-146080589D01*
X66241628Y-146050153D01*
X66237062Y-146031929D01*
X66228616Y-146021981D01*
X66220311Y-146017802D01*
X66192398Y-146021549D01*
X66158909Y-146049813D01*
X66121419Y-146099810D01*
X66081504Y-146168756D01*
X66040738Y-146253869D01*
X66000697Y-146352362D01*
X65962955Y-146461453D01*
X65955181Y-146486389D01*
X65922939Y-146590727D01*
X65896598Y-146671105D01*
X65874111Y-146730644D01*
X65853436Y-146772463D01*
X65832527Y-146799684D01*
X65809340Y-146815427D01*
X65781830Y-146822813D01*
X65747954Y-146824963D01*
X65733296Y-146825056D01*
X65681366Y-146819035D01*
X65640475Y-146799201D01*
X65609233Y-146762899D01*
X65586249Y-146707473D01*
X65570131Y-146630268D01*
X65559489Y-146528627D01*
X65556881Y-146488212D01*
X65548147Y-146334813D01*
X65476268Y-146343451D01*
X65430144Y-146348501D01*
X65393312Y-146351674D01*
X65381585Y-146352211D01*
X65361900Y-146366086D01*
X65339802Y-146406576D01*
X65329177Y-146433472D01*
X65272112Y-146556787D01*
X65198830Y-146657436D01*
X65108448Y-146736449D01*
X65030444Y-146781401D01*
X64925621Y-146816837D01*
X64817322Y-146827181D01*
X64710600Y-146813276D01*
X64610510Y-146775962D01*
X64522104Y-146716079D01*
X64497559Y-146692753D01*
X64441781Y-146635278D01*
X64363379Y-146696158D01*
X64281060Y-146754251D01*
X64205635Y-146792669D01*
X64127660Y-146814751D01*
X64037690Y-146823833D01*
X64000036Y-146824565D01*
X63934285Y-146823989D01*
X63886926Y-146820374D01*
X63848152Y-146811748D01*
X63808152Y-146796139D01*
X63771233Y-146778558D01*
X63678527Y-146720458D01*
X63608984Y-146648024D01*
X63566808Y-146574584D01*
X63550461Y-146541607D01*
X63537944Y-146523113D01*
X63535478Y-146521667D01*
X63522739Y-146531695D01*
X63499742Y-146557004D01*
X63488209Y-146571049D01*
X63437456Y-146624044D01*
X63372414Y-146677242D01*
X63303286Y-146723149D01*
X63240272Y-146754269D01*
X63237464Y-146755302D01*
X63187094Y-146770245D01*
X63125691Y-146784119D01*
X63088582Y-146790560D01*
X63026422Y-146804490D01*
X62962190Y-146826199D01*
X62930695Y-146840390D01*
X62853339Y-146869426D01*
X62767627Y-146883675D01*
X62684357Y-146882144D01*
X62625599Y-146868463D01*
X62560066Y-146833014D01*
X62513234Y-146785420D01*
X62485879Y-146730542D01*
X62478778Y-146673243D01*
X62492706Y-146618386D01*
X62528440Y-146570832D01*
X62573367Y-146541259D01*
X62611172Y-146528090D01*
X62656036Y-146523658D01*
X62718096Y-146526969D01*
X62718626Y-146527018D01*
X62771170Y-146530770D01*
X62801089Y-146529448D01*
X62813618Y-146522482D01*
X62815000Y-146516484D01*
X62806414Y-146472221D01*
X62782837Y-146413472D01*
X62747542Y-146347264D01*
X62707811Y-146286197D01*
X62642901Y-146195235D01*
X62589680Y-146286311D01*
X62530829Y-146379120D01*
X62463393Y-146472514D01*
X62392921Y-146559542D01*
X62324959Y-146633248D01*
X62279271Y-146675354D01*
X62178303Y-146747777D01*
X62077636Y-146797816D01*
X61980179Y-146824664D01*
X61888843Y-146827511D01*
X61808169Y-146806278D01*
X61765979Y-146783957D01*
X61737382Y-146756547D01*
X61712702Y-146714087D01*
X61707061Y-146702220D01*
X61686194Y-146645958D01*
X61673827Y-146589840D01*
X61672137Y-146567528D01*
X61669679Y-146530891D01*
X61663660Y-146509675D01*
X61660676Y-146507556D01*
X61649814Y-146519630D01*
X61634471Y-146550498D01*
X61624937Y-146574584D01*
X61581711Y-146665279D01*
X61526044Y-146738422D01*
X61461199Y-146791402D01*
X61390441Y-146821608D01*
X61317035Y-146826429D01*
X61311029Y-146825623D01*
X61244055Y-146803037D01*
X61184664Y-146760264D01*
X61141990Y-146704319D01*
X61135804Y-146691065D01*
X61122310Y-146662076D01*
X61113180Y-146648761D01*
X61112777Y-146648667D01*
X61099225Y-146656222D01*
X61070588Y-146675534D01*
X61049489Y-146690553D01*
X60990475Y-146725828D01*
X60914011Y-146761172D01*
X60830574Y-146792566D01*
X60750639Y-146815990D01*
X60695531Y-146826375D01*
X60621504Y-146828661D01*
X60536912Y-146821381D01*
X60452924Y-146806258D01*
X60380713Y-146785013D01*
X60354970Y-146773882D01*
X60295125Y-146736005D01*
X60234535Y-146684523D01*
X60182224Y-146628004D01*
X60148751Y-146578111D01*
X60112450Y-146480572D01*
X60095140Y-146366627D01*
X60095431Y-146247805D01*
X60115840Y-146107140D01*
X60158334Y-145978592D01*
X60221267Y-145864826D01*
X60302991Y-145768509D01*
X60401861Y-145692306D01*
X60456751Y-145662796D01*
X60503727Y-145643187D01*
X60547857Y-145631815D01*
X60600102Y-145626647D01*
X60657030Y-145625611D01*
X60719028Y-145626594D01*
X60761665Y-145630791D01*
X60793771Y-145640082D01*
X60824177Y-145656341D01*
X60835237Y-145663486D01*
X60895937Y-145719940D01*
X60935258Y-145794621D01*
X60953006Y-145887107D01*
X60954097Y-145920000D01*
X60945517Y-146006299D01*
X60921177Y-146077433D01*
X60883171Y-146130222D01*
X60833596Y-146161483D01*
X60790055Y-146168889D01*
X60747320Y-146161434D01*
X60715085Y-146146573D01*
X60699705Y-146133582D01*
X60690589Y-146116728D01*
X60686465Y-146089397D01*
X60686061Y-146044972D01*
X60687251Y-146001934D01*
X60691277Y-145879611D01*
X60637060Y-145875154D01*
X60602293Y-145875202D01*
X60574956Y-145885550D01*
X60544707Y-145911164D01*
X60529450Y-145926824D01*
X60476796Y-145999794D01*
X60441106Y-146091233D01*
X60421365Y-146203808D01*
X60420534Y-146212776D01*
X60420658Y-146319645D01*
X60440572Y-146408640D01*
X60479211Y-146478515D01*
X60535510Y-146528021D01*
X60608405Y-146555913D01*
X60696831Y-146560941D01*
X60716229Y-146559101D01*
X60773809Y-146544882D01*
X60843667Y-146516674D01*
X60916779Y-146478999D01*
X60984118Y-146436378D01*
X61024568Y-146404630D01*
X61047590Y-146383062D01*
X61063206Y-146362668D01*
X61073774Y-146336801D01*
X61081652Y-146298814D01*
X61089196Y-146242060D01*
X61092638Y-146212703D01*
X61104556Y-146129085D01*
X61121385Y-146036608D01*
X61141386Y-145942988D01*
X61162815Y-145855941D01*
X61183931Y-145783182D01*
X61199050Y-145741347D01*
X61234045Y-145681567D01*
X61282097Y-145643634D01*
X61348057Y-145624254D01*
X61375895Y-145621271D01*
X61424483Y-145619655D01*
X61460483Y-145624756D01*
X61484607Y-145639538D01*
X61497569Y-145666966D01*
X61500081Y-145710003D01*
X61492856Y-145771615D01*
X61476607Y-145854764D01*
X61454953Y-145950046D01*
X61434712Y-146043757D01*
X61417532Y-146137635D01*
X61404121Y-146226308D01*
X61395186Y-146304403D01*
X61391434Y-146366548D01*
X61393569Y-146407369D01*
X61394343Y-146410937D01*
X61408865Y-146441675D01*
X61425673Y-146456451D01*
X61459311Y-146454845D01*
X61497940Y-146427904D01*
X61540315Y-146377818D01*
X61585191Y-146306776D01*
X61631323Y-146216968D01*
X61677466Y-146110585D01*
X61722377Y-145989814D01*
X61762942Y-145863155D01*
X61790430Y-145776696D01*
X61815697Y-145713997D01*
X61841740Y-145671085D01*
X61871559Y-145643985D01*
X61908153Y-145628722D01*
X61944666Y-145622325D01*
X61992734Y-145619795D01*
X62035057Y-145622248D01*
X62045104Y-145624140D01*
X62066725Y-145632437D01*
X62077436Y-145648602D01*
X62080974Y-145680866D01*
X62081222Y-145703731D01*
X62078132Y-145746286D01*
X62069757Y-145807525D01*
X62057440Y-145878697D01*
X62045013Y-145939823D01*
X62013023Y-146089529D01*
X61987816Y-146215002D01*
X61969525Y-146315497D01*
X61958286Y-146390271D01*
X61954234Y-146438578D01*
X61954222Y-146440500D01*
X61962915Y-146486675D01*
X61985153Y-146525110D01*
X62015172Y-146547380D01*
X62029070Y-146549889D01*
X62068660Y-146537927D01*
X62119128Y-146503655D01*
X62177757Y-146449493D01*
X62241827Y-146377864D01*
X62287937Y-146319321D01*
X62335057Y-146254644D01*
X62377216Y-146191889D01*
X62417223Y-146126046D01*
X62457886Y-146052104D01*
X62502015Y-145965054D01*
X62552419Y-145859884D01*
X62586365Y-145787033D01*
X62617921Y-145720671D01*
X62642295Y-145675252D01*
X62663041Y-145645617D01*
X62683714Y-145626611D01*
X62705529Y-145614172D01*
X62753648Y-145599247D01*
X62812710Y-145591664D01*
X62871348Y-145591893D01*
X62918197Y-145600405D01*
X62928816Y-145604941D01*
X62947576Y-145619223D01*
X62954169Y-145639395D01*
X62948232Y-145671138D01*
X62929404Y-145720136D01*
X62920093Y-145741527D01*
X62892445Y-145809094D01*
X62876935Y-145864917D01*
X62874697Y-145914835D01*
X62886864Y-145964685D01*
X62914569Y-146020305D01*
X62958947Y-146087536D01*
X62997584Y-146140650D01*
X63057147Y-146225063D01*
X63099059Y-146295203D01*
X63125846Y-146356534D01*
X63140031Y-146414517D01*
X63143854Y-146457135D01*
X63146732Y-146499962D01*
X63151288Y-146528518D01*
X63155077Y-146535754D01*
X63176280Y-146526380D01*
X63212355Y-146500891D01*
X63258432Y-146463342D01*
X63309641Y-146417787D01*
X63361113Y-146368281D01*
X63382403Y-146346485D01*
X63477977Y-146246500D01*
X63478099Y-146052472D01*
X63478222Y-145858445D01*
X63393555Y-145858445D01*
X63327590Y-145853016D01*
X63284489Y-145834712D01*
X63260665Y-145800506D01*
X63252535Y-145747369D01*
X63252444Y-145739287D01*
X63259537Y-145679303D01*
X63282934Y-145637353D01*
X63325815Y-145610627D01*
X63391360Y-145596320D01*
X63417023Y-145593949D01*
X63516663Y-145586820D01*
X63528226Y-145521551D01*
X63831648Y-145521551D01*
X63834104Y-145535698D01*
X63843045Y-145536132D01*
X63862006Y-145520522D01*
X63894521Y-145486541D01*
X63909291Y-145470389D01*
X63955306Y-145414305D01*
X64000961Y-145349747D01*
X64035242Y-145292699D01*
X64082715Y-145186048D01*
X64113521Y-145080564D01*
X64126709Y-144981638D01*
X64121327Y-144894660D01*
X64111841Y-144858661D01*
X64091969Y-144823889D01*
X64066910Y-144815279D01*
X64038006Y-144831536D01*
X64006597Y-144871365D01*
X63974025Y-144933471D01*
X63941630Y-145016559D01*
X63938381Y-145026184D01*
X63922362Y-145079724D01*
X63904389Y-145148533D01*
X63885830Y-145226269D01*
X63868052Y-145306586D01*
X63852421Y-145383140D01*
X63840306Y-145449587D01*
X63833072Y-145499581D01*
X63831648Y-145521551D01*
X63528226Y-145521551D01*
X63534477Y-145486271D01*
X63566579Y-145340858D01*
X63610621Y-145194236D01*
X63664087Y-145052569D01*
X63724456Y-144922016D01*
X63789210Y-144808738D01*
X63840921Y-144736611D01*
X63919447Y-144656120D01*
X64003155Y-144601553D01*
X64090436Y-144573821D01*
X64135000Y-144570302D01*
X64210468Y-144580700D01*
G37*
X64210468Y-144580700D02*
X64270251Y-144612460D01*
X64314969Y-144666433D01*
X64345241Y-144743467D01*
X64361688Y-144844413D01*
X64364260Y-144884778D01*
X64359247Y-145028031D01*
X64330582Y-145162526D01*
X64277025Y-145291637D01*
X64197338Y-145418737D01*
X64142750Y-145488028D01*
X64056584Y-145590334D01*
X64187208Y-145591740D01*
X64266354Y-145593616D01*
X64321944Y-145598164D01*
X64358617Y-145606754D01*
X64381009Y-145620758D01*
X64393757Y-145641544D01*
X64397704Y-145653926D01*
X64398128Y-145706016D01*
X64376077Y-145759198D01*
X64335742Y-145805329D01*
X64310777Y-145822774D01*
X64288550Y-145833808D01*
X64262447Y-145841868D01*
X64227460Y-145847555D01*
X64178581Y-145851471D01*
X64110802Y-145854218D01*
X64033417Y-145856108D01*
X63944989Y-145857670D01*
X63880835Y-145860069D01*
X63837082Y-145866206D01*
X63809858Y-145878980D01*
X63795289Y-145901289D01*
X63789503Y-145936034D01*
X63788627Y-145986112D01*
X63788859Y-146039186D01*
X63791832Y-146131134D01*
X63800309Y-146223101D01*
X63813186Y-146307029D01*
X63829358Y-146374857D01*
X63838303Y-146400139D01*
X63881116Y-146468680D01*
X63941594Y-146517308D01*
X64015096Y-146543400D01*
X64094062Y-146544746D01*
X64166383Y-146527233D01*
X64232586Y-146493089D01*
X64297509Y-146441615D01*
X64353111Y-146391383D01*
X64353111Y-146276045D01*
X64354938Y-146253556D01*
X64673496Y-146253556D01*
X64674089Y-146320532D01*
X64679313Y-146369375D01*
X64690775Y-146410010D01*
X64703600Y-146439359D01*
X64746514Y-146504210D01*
X64798598Y-146543317D01*
X64857470Y-146556016D01*
X64920752Y-146541647D01*
X64969027Y-146513192D01*
X65006204Y-146475175D01*
X65039904Y-146423422D01*
X65064095Y-146368894D01*
X65072777Y-146324609D01*
X65062441Y-146293586D01*
X65035668Y-146256429D01*
X65024582Y-146244878D01*
X64979022Y-146184823D01*
X64943641Y-146107212D01*
X64922220Y-146021976D01*
X64917555Y-145963749D01*
X64916493Y-145919365D01*
X64911421Y-145896327D01*
X64899516Y-145887784D01*
X64885805Y-145886760D01*
X64841513Y-145898470D01*
X64792852Y-145929681D01*
X64748955Y-145974252D01*
X64708507Y-146044652D01*
X64683627Y-146134310D01*
X64673642Y-146245718D01*
X64673496Y-146253556D01*
X64354938Y-146253556D01*
X64365056Y-146129043D01*
X64401065Y-145996500D01*
X64461404Y-145877710D01*
X64537768Y-145780870D01*
X64624885Y-145704772D01*
X64719987Y-145654179D01*
X64827900Y-145626870D01*
X64884040Y-145621467D01*
X64973074Y-145620929D01*
X65045161Y-145631950D01*
X65110064Y-145656966D01*
X65169115Y-145692577D01*
X65221814Y-145739912D01*
X65272531Y-145805192D01*
X65316734Y-145880280D01*
X65349888Y-145957041D01*
X65367460Y-146027340D01*
X65369111Y-146051458D01*
X65370330Y-146069657D01*
X65377591Y-146079741D01*
X65396299Y-146082477D01*
X65431861Y-146078630D01*
X65489683Y-146068966D01*
X65491047Y-146068729D01*
X65539305Y-146059606D01*
X65566721Y-146050286D01*
X65580296Y-146035970D01*
X65587034Y-146011857D01*
X65588818Y-146001701D01*
X65609275Y-145902673D01*
X65634447Y-145813874D01*
X65662467Y-145740724D01*
X65691471Y-145688639D01*
X65700481Y-145677495D01*
X65728884Y-145650323D01*
X65758236Y-145634667D01*
X65799189Y-145626054D01*
X65831154Y-145622642D01*
X65895033Y-145620881D01*
X65935823Y-145630502D01*
X65956880Y-145653038D01*
X65961777Y-145682265D01*
X65958594Y-145707898D01*
X65949914Y-145754447D01*
X65937039Y-145815437D01*
X65921271Y-145884393D01*
X65920254Y-145888677D01*
X65903182Y-145963693D01*
X65887924Y-146036807D01*
X65876209Y-146099350D01*
X65869983Y-146140667D01*
X65861235Y-146218278D01*
X65894860Y-146139500D01*
X65964376Y-145997316D01*
X66043345Y-145872593D01*
X66112671Y-145787390D01*
X66185219Y-145716277D01*
X66252479Y-145667489D01*
X66320609Y-145637551D01*
X66395764Y-145622992D01*
X66405644Y-145622105D01*
X66456241Y-145619163D01*
X66488164Y-145621860D01*
X66510743Y-145632301D01*
X66531148Y-145650421D01*
X66557537Y-145684537D01*
X66573178Y-145726188D01*
X66578460Y-145780008D01*
X66573768Y-145850628D01*
X66559492Y-145942680D01*
X66556810Y-145957222D01*
X66543993Y-146025041D01*
X66532321Y-146085595D01*
X66523181Y-146131763D01*
X66518345Y-146154778D01*
X66520944Y-146157979D01*
X66534206Y-146139568D01*
X66555881Y-146103030D01*
X66578872Y-146061015D01*
X66659667Y-145925134D01*
X66744417Y-145813191D01*
X66832110Y-145726011D01*
X66921733Y-145664422D01*
X67012272Y-145629251D01*
X67102715Y-145621324D01*
X67116017Y-145622514D01*
X67163662Y-145632713D01*
X67200086Y-145652840D01*
X67225649Y-145685238D01*
X67240710Y-145732251D01*
X67245630Y-145796223D01*
X67240769Y-145879497D01*
X67226485Y-145984416D01*
X67203139Y-146113325D01*
X67196500Y-146146743D01*
X67175624Y-146252911D01*
X67160897Y-146335265D01*
X67152124Y-146397491D01*
X67149109Y-146443273D01*
X67151656Y-146476297D01*
X67159571Y-146500249D01*
X67172657Y-146518815D01*
X67176556Y-146522890D01*
X67207623Y-146542760D01*
X67244227Y-146543749D01*
X67288310Y-146524761D01*
X67341817Y-146484703D01*
X67406692Y-146422481D01*
X67462974Y-146361733D01*
X67505734Y-146316181D01*
X67544335Y-146279038D01*
X67573354Y-146255326D01*
X67583977Y-146249618D01*
X67621445Y-146251171D01*
X67649186Y-146274374D01*
X67666295Y-146314069D01*
X67671867Y-146365097D01*
X67664997Y-146422301D01*
X67644781Y-146480523D01*
X67629380Y-146508410D01*
X67580619Y-146571381D01*
X67514135Y-146638334D01*
X67438142Y-146702125D01*
X67360855Y-146755611D01*
X67317511Y-146779668D01*
X67265386Y-146803423D01*
X67221495Y-146817086D01*
X67173604Y-146823341D01*
X67111495Y-146824872D01*
X67050517Y-146823778D01*
X67008699Y-146818993D01*
X66977036Y-146808618D01*
X66946525Y-146790755D01*
X66945084Y-146789778D01*
X66900609Y-146750973D01*
X66868637Y-146701867D01*
X66848763Y-146639595D01*
X66840580Y-146561289D01*
X66843682Y-146464084D01*
X66857663Y-146345113D01*
X66870656Y-146264668D01*
X66886713Y-146164893D01*
X66895220Y-146091089D01*
X66895711Y-146041908D01*
X66887720Y-146016003D01*
X66870782Y-146012027D01*
X66844431Y-146028632D01*
X66808202Y-146064470D01*
X66803340Y-146069810D01*
X66747123Y-146145848D01*
X66690855Y-146249303D01*
X66634896Y-146379370D01*
X66579607Y-146535248D01*
X66547525Y-146638736D01*
X66528203Y-146697241D01*
X66507918Y-146747625D01*
X66490007Y-146781951D01*
X66484023Y-146789644D01*
X66438179Y-146817587D01*
X66380515Y-146828236D01*
X66322680Y-146819970D01*
X66308148Y-146814096D01*
X66264992Y-146781507D01*
X66233474Y-146729620D01*
X66213370Y-146657085D01*
X66204461Y-146562554D01*
X66206527Y-146444678D01*
X66219345Y-146302109D01*
X66221438Y-146284559D01*
X66232221Y-146193854D01*
X66239191Y-146127177D01*
X66242333Y-146080589D01*
X66241628Y-146050153D01*
X66237062Y-146031929D01*
X66228616Y-146021981D01*
X66220311Y-146017802D01*
X66192398Y-146021549D01*
X66158909Y-146049813D01*
X66121419Y-146099810D01*
X66081504Y-146168756D01*
X66040738Y-146253869D01*
X66000697Y-146352362D01*
X65962955Y-146461453D01*
X65955181Y-146486389D01*
X65922939Y-146590727D01*
X65896598Y-146671105D01*
X65874111Y-146730644D01*
X65853436Y-146772463D01*
X65832527Y-146799684D01*
X65809340Y-146815427D01*
X65781830Y-146822813D01*
X65747954Y-146824963D01*
X65733296Y-146825056D01*
X65681366Y-146819035D01*
X65640475Y-146799201D01*
X65609233Y-146762899D01*
X65586249Y-146707473D01*
X65570131Y-146630268D01*
X65559489Y-146528627D01*
X65556881Y-146488212D01*
X65548147Y-146334813D01*
X65476268Y-146343451D01*
X65430144Y-146348501D01*
X65393312Y-146351674D01*
X65381585Y-146352211D01*
X65361900Y-146366086D01*
X65339802Y-146406576D01*
X65329177Y-146433472D01*
X65272112Y-146556787D01*
X65198830Y-146657436D01*
X65108448Y-146736449D01*
X65030444Y-146781401D01*
X64925621Y-146816837D01*
X64817322Y-146827181D01*
X64710600Y-146813276D01*
X64610510Y-146775962D01*
X64522104Y-146716079D01*
X64497559Y-146692753D01*
X64441781Y-146635278D01*
X64363379Y-146696158D01*
X64281060Y-146754251D01*
X64205635Y-146792669D01*
X64127660Y-146814751D01*
X64037690Y-146823833D01*
X64000036Y-146824565D01*
X63934285Y-146823989D01*
X63886926Y-146820374D01*
X63848152Y-146811748D01*
X63808152Y-146796139D01*
X63771233Y-146778558D01*
X63678527Y-146720458D01*
X63608984Y-146648024D01*
X63566808Y-146574584D01*
X63550461Y-146541607D01*
X63537944Y-146523113D01*
X63535478Y-146521667D01*
X63522739Y-146531695D01*
X63499742Y-146557004D01*
X63488209Y-146571049D01*
X63437456Y-146624044D01*
X63372414Y-146677242D01*
X63303286Y-146723149D01*
X63240272Y-146754269D01*
X63237464Y-146755302D01*
X63187094Y-146770245D01*
X63125691Y-146784119D01*
X63088582Y-146790560D01*
X63026422Y-146804490D01*
X62962190Y-146826199D01*
X62930695Y-146840390D01*
X62853339Y-146869426D01*
X62767627Y-146883675D01*
X62684357Y-146882144D01*
X62625599Y-146868463D01*
X62560066Y-146833014D01*
X62513234Y-146785420D01*
X62485879Y-146730542D01*
X62478778Y-146673243D01*
X62492706Y-146618386D01*
X62528440Y-146570832D01*
X62573367Y-146541259D01*
X62611172Y-146528090D01*
X62656036Y-146523658D01*
X62718096Y-146526969D01*
X62718626Y-146527018D01*
X62771170Y-146530770D01*
X62801089Y-146529448D01*
X62813618Y-146522482D01*
X62815000Y-146516484D01*
X62806414Y-146472221D01*
X62782837Y-146413472D01*
X62747542Y-146347264D01*
X62707811Y-146286197D01*
X62642901Y-146195235D01*
X62589680Y-146286311D01*
X62530829Y-146379120D01*
X62463393Y-146472514D01*
X62392921Y-146559542D01*
X62324959Y-146633248D01*
X62279271Y-146675354D01*
X62178303Y-146747777D01*
X62077636Y-146797816D01*
X61980179Y-146824664D01*
X61888843Y-146827511D01*
X61808169Y-146806278D01*
X61765979Y-146783957D01*
X61737382Y-146756547D01*
X61712702Y-146714087D01*
X61707061Y-146702220D01*
X61686194Y-146645958D01*
X61673827Y-146589840D01*
X61672137Y-146567528D01*
X61669679Y-146530891D01*
X61663660Y-146509675D01*
X61660676Y-146507556D01*
X61649814Y-146519630D01*
X61634471Y-146550498D01*
X61624937Y-146574584D01*
X61581711Y-146665279D01*
X61526044Y-146738422D01*
X61461199Y-146791402D01*
X61390441Y-146821608D01*
X61317035Y-146826429D01*
X61311029Y-146825623D01*
X61244055Y-146803037D01*
X61184664Y-146760264D01*
X61141990Y-146704319D01*
X61135804Y-146691065D01*
X61122310Y-146662076D01*
X61113180Y-146648761D01*
X61112777Y-146648667D01*
X61099225Y-146656222D01*
X61070588Y-146675534D01*
X61049489Y-146690553D01*
X60990475Y-146725828D01*
X60914011Y-146761172D01*
X60830574Y-146792566D01*
X60750639Y-146815990D01*
X60695531Y-146826375D01*
X60621504Y-146828661D01*
X60536912Y-146821381D01*
X60452924Y-146806258D01*
X60380713Y-146785013D01*
X60354970Y-146773882D01*
X60295125Y-146736005D01*
X60234535Y-146684523D01*
X60182224Y-146628004D01*
X60148751Y-146578111D01*
X60112450Y-146480572D01*
X60095140Y-146366627D01*
X60095431Y-146247805D01*
X60115840Y-146107140D01*
X60158334Y-145978592D01*
X60221267Y-145864826D01*
X60302991Y-145768509D01*
X60401861Y-145692306D01*
X60456751Y-145662796D01*
X60503727Y-145643187D01*
X60547857Y-145631815D01*
X60600102Y-145626647D01*
X60657030Y-145625611D01*
X60719028Y-145626594D01*
X60761665Y-145630791D01*
X60793771Y-145640082D01*
X60824177Y-145656341D01*
X60835237Y-145663486D01*
X60895937Y-145719940D01*
X60935258Y-145794621D01*
X60953006Y-145887107D01*
X60954097Y-145920000D01*
X60945517Y-146006299D01*
X60921177Y-146077433D01*
X60883171Y-146130222D01*
X60833596Y-146161483D01*
X60790055Y-146168889D01*
X60747320Y-146161434D01*
X60715085Y-146146573D01*
X60699705Y-146133582D01*
X60690589Y-146116728D01*
X60686465Y-146089397D01*
X60686061Y-146044972D01*
X60687251Y-146001934D01*
X60691277Y-145879611D01*
X60637060Y-145875154D01*
X60602293Y-145875202D01*
X60574956Y-145885550D01*
X60544707Y-145911164D01*
X60529450Y-145926824D01*
X60476796Y-145999794D01*
X60441106Y-146091233D01*
X60421365Y-146203808D01*
X60420534Y-146212776D01*
X60420658Y-146319645D01*
X60440572Y-146408640D01*
X60479211Y-146478515D01*
X60535510Y-146528021D01*
X60608405Y-146555913D01*
X60696831Y-146560941D01*
X60716229Y-146559101D01*
X60773809Y-146544882D01*
X60843667Y-146516674D01*
X60916779Y-146478999D01*
X60984118Y-146436378D01*
X61024568Y-146404630D01*
X61047590Y-146383062D01*
X61063206Y-146362668D01*
X61073774Y-146336801D01*
X61081652Y-146298814D01*
X61089196Y-146242060D01*
X61092638Y-146212703D01*
X61104556Y-146129085D01*
X61121385Y-146036608D01*
X61141386Y-145942988D01*
X61162815Y-145855941D01*
X61183931Y-145783182D01*
X61199050Y-145741347D01*
X61234045Y-145681567D01*
X61282097Y-145643634D01*
X61348057Y-145624254D01*
X61375895Y-145621271D01*
X61424483Y-145619655D01*
X61460483Y-145624756D01*
X61484607Y-145639538D01*
X61497569Y-145666966D01*
X61500081Y-145710003D01*
X61492856Y-145771615D01*
X61476607Y-145854764D01*
X61454953Y-145950046D01*
X61434712Y-146043757D01*
X61417532Y-146137635D01*
X61404121Y-146226308D01*
X61395186Y-146304403D01*
X61391434Y-146366548D01*
X61393569Y-146407369D01*
X61394343Y-146410937D01*
X61408865Y-146441675D01*
X61425673Y-146456451D01*
X61459311Y-146454845D01*
X61497940Y-146427904D01*
X61540315Y-146377818D01*
X61585191Y-146306776D01*
X61631323Y-146216968D01*
X61677466Y-146110585D01*
X61722377Y-145989814D01*
X61762942Y-145863155D01*
X61790430Y-145776696D01*
X61815697Y-145713997D01*
X61841740Y-145671085D01*
X61871559Y-145643985D01*
X61908153Y-145628722D01*
X61944666Y-145622325D01*
X61992734Y-145619795D01*
X62035057Y-145622248D01*
X62045104Y-145624140D01*
X62066725Y-145632437D01*
X62077436Y-145648602D01*
X62080974Y-145680866D01*
X62081222Y-145703731D01*
X62078132Y-145746286D01*
X62069757Y-145807525D01*
X62057440Y-145878697D01*
X62045013Y-145939823D01*
X62013023Y-146089529D01*
X61987816Y-146215002D01*
X61969525Y-146315497D01*
X61958286Y-146390271D01*
X61954234Y-146438578D01*
X61954222Y-146440500D01*
X61962915Y-146486675D01*
X61985153Y-146525110D01*
X62015172Y-146547380D01*
X62029070Y-146549889D01*
X62068660Y-146537927D01*
X62119128Y-146503655D01*
X62177757Y-146449493D01*
X62241827Y-146377864D01*
X62287937Y-146319321D01*
X62335057Y-146254644D01*
X62377216Y-146191889D01*
X62417223Y-146126046D01*
X62457886Y-146052104D01*
X62502015Y-145965054D01*
X62552419Y-145859884D01*
X62586365Y-145787033D01*
X62617921Y-145720671D01*
X62642295Y-145675252D01*
X62663041Y-145645617D01*
X62683714Y-145626611D01*
X62705529Y-145614172D01*
X62753648Y-145599247D01*
X62812710Y-145591664D01*
X62871348Y-145591893D01*
X62918197Y-145600405D01*
X62928816Y-145604941D01*
X62947576Y-145619223D01*
X62954169Y-145639395D01*
X62948232Y-145671138D01*
X62929404Y-145720136D01*
X62920093Y-145741527D01*
X62892445Y-145809094D01*
X62876935Y-145864917D01*
X62874697Y-145914835D01*
X62886864Y-145964685D01*
X62914569Y-146020305D01*
X62958947Y-146087536D01*
X62997584Y-146140650D01*
X63057147Y-146225063D01*
X63099059Y-146295203D01*
X63125846Y-146356534D01*
X63140031Y-146414517D01*
X63143854Y-146457135D01*
X63146732Y-146499962D01*
X63151288Y-146528518D01*
X63155077Y-146535754D01*
X63176280Y-146526380D01*
X63212355Y-146500891D01*
X63258432Y-146463342D01*
X63309641Y-146417787D01*
X63361113Y-146368281D01*
X63382403Y-146346485D01*
X63477977Y-146246500D01*
X63478099Y-146052472D01*
X63478222Y-145858445D01*
X63393555Y-145858445D01*
X63327590Y-145853016D01*
X63284489Y-145834712D01*
X63260665Y-145800506D01*
X63252535Y-145747369D01*
X63252444Y-145739287D01*
X63259537Y-145679303D01*
X63282934Y-145637353D01*
X63325815Y-145610627D01*
X63391360Y-145596320D01*
X63417023Y-145593949D01*
X63516663Y-145586820D01*
X63528226Y-145521551D01*
X63831648Y-145521551D01*
X63834104Y-145535698D01*
X63843045Y-145536132D01*
X63862006Y-145520522D01*
X63894521Y-145486541D01*
X63909291Y-145470389D01*
X63955306Y-145414305D01*
X64000961Y-145349747D01*
X64035242Y-145292699D01*
X64082715Y-145186048D01*
X64113521Y-145080564D01*
X64126709Y-144981638D01*
X64121327Y-144894660D01*
X64111841Y-144858661D01*
X64091969Y-144823889D01*
X64066910Y-144815279D01*
X64038006Y-144831536D01*
X64006597Y-144871365D01*
X63974025Y-144933471D01*
X63941630Y-145016559D01*
X63938381Y-145026184D01*
X63922362Y-145079724D01*
X63904389Y-145148533D01*
X63885830Y-145226269D01*
X63868052Y-145306586D01*
X63852421Y-145383140D01*
X63840306Y-145449587D01*
X63833072Y-145499581D01*
X63831648Y-145521551D01*
X63528226Y-145521551D01*
X63534477Y-145486271D01*
X63566579Y-145340858D01*
X63610621Y-145194236D01*
X63664087Y-145052569D01*
X63724456Y-144922016D01*
X63789210Y-144808738D01*
X63840921Y-144736611D01*
X63919447Y-144656120D01*
X64003155Y-144601553D01*
X64090436Y-144573821D01*
X64135000Y-144570302D01*
X64210468Y-144580700D01*
G36*
X69289717Y-144648417D02*
G01*
X69300822Y-144685491D01*
X69318353Y-144745132D01*
X69340980Y-144822770D01*
X69367377Y-144913836D01*
X69396215Y-145013761D01*
X69426064Y-145117611D01*
X69454757Y-145216843D01*
X69481336Y-145307221D01*
X69504717Y-145385182D01*
X69523816Y-145447160D01*
X69537549Y-145489591D01*
X69544831Y-145508911D01*
X69545261Y-145509555D01*
X69551669Y-145499174D01*
X69565505Y-145464793D01*
X69585748Y-145409339D01*
X69611378Y-145335739D01*
X69641375Y-145246921D01*
X69674719Y-145145812D01*
X69708783Y-145040360D01*
X69862380Y-144560222D01*
X70336222Y-144560222D01*
X70336222Y-146846222D01*
X69969099Y-146846222D01*
X69976404Y-146207695D01*
X69978109Y-146064907D01*
X69979951Y-145921497D01*
X69981864Y-145781920D01*
X69983784Y-145650632D01*
X69985642Y-145532090D01*
X69987374Y-145430750D01*
X69988913Y-145351068D01*
X69989554Y-145322222D01*
X69995398Y-145075278D01*
X69961075Y-145181111D01*
X69948101Y-145221115D01*
X69927817Y-145283664D01*
X69901616Y-145364454D01*
X69870895Y-145459185D01*
X69837047Y-145563555D01*
X69801470Y-145673261D01*
X69787177Y-145717334D01*
X69647602Y-146147722D01*
X69448420Y-146155990D01*
X69405603Y-146017801D01*
X69389563Y-145965904D01*
X69366920Y-145892462D01*
X69339348Y-145802910D01*
X69308519Y-145702684D01*
X69276105Y-145597221D01*
X69250156Y-145512722D01*
X69137527Y-145145834D01*
X69155435Y-146846222D01*
X68798111Y-146846222D01*
X68798111Y-144560222D01*
X69262643Y-144560222D01*
X69289717Y-144648417D01*
G37*
X69289717Y-144648417D02*
X69300822Y-144685491D01*
X69318353Y-144745132D01*
X69340980Y-144822770D01*
X69367377Y-144913836D01*
X69396215Y-145013761D01*
X69426064Y-145117611D01*
X69454757Y-145216843D01*
X69481336Y-145307221D01*
X69504717Y-145385182D01*
X69523816Y-145447160D01*
X69537549Y-145489591D01*
X69544831Y-145508911D01*
X69545261Y-145509555D01*
X69551669Y-145499174D01*
X69565505Y-145464793D01*
X69585748Y-145409339D01*
X69611378Y-145335739D01*
X69641375Y-145246921D01*
X69674719Y-145145812D01*
X69708783Y-145040360D01*
X69862380Y-144560222D01*
X70336222Y-144560222D01*
X70336222Y-146846222D01*
X69969099Y-146846222D01*
X69976404Y-146207695D01*
X69978109Y-146064907D01*
X69979951Y-145921497D01*
X69981864Y-145781920D01*
X69983784Y-145650632D01*
X69985642Y-145532090D01*
X69987374Y-145430750D01*
X69988913Y-145351068D01*
X69989554Y-145322222D01*
X69995398Y-145075278D01*
X69961075Y-145181111D01*
X69948101Y-145221115D01*
X69927817Y-145283664D01*
X69901616Y-145364454D01*
X69870895Y-145459185D01*
X69837047Y-145563555D01*
X69801470Y-145673261D01*
X69787177Y-145717334D01*
X69647602Y-146147722D01*
X69448420Y-146155990D01*
X69405603Y-146017801D01*
X69389563Y-145965904D01*
X69366920Y-145892462D01*
X69339348Y-145802910D01*
X69308519Y-145702684D01*
X69276105Y-145597221D01*
X69250156Y-145512722D01*
X69137527Y-145145834D01*
X69155435Y-146846222D01*
X68798111Y-146846222D01*
X68798111Y-144560222D01*
X69262643Y-144560222D01*
X69289717Y-144648417D01*
G36*
X71126444Y-145091117D02*
G01*
X71126595Y-145230474D01*
X71127103Y-145343897D01*
X71128049Y-145433669D01*
X71129515Y-145502079D01*
X71131583Y-145551410D01*
X71134333Y-145583949D01*
X71137848Y-145601982D01*
X71142209Y-145607794D01*
X71144844Y-145606741D01*
X71156882Y-145592609D01*
X71184047Y-145558209D01*
X71224561Y-145505869D01*
X71276643Y-145437917D01*
X71338513Y-145356682D01*
X71408392Y-145264493D01*
X71484501Y-145163679D01*
X71550538Y-145075904D01*
X71937833Y-144560338D01*
X72168813Y-144560280D01*
X72399794Y-144560222D01*
X72359557Y-144613139D01*
X72342122Y-144635831D01*
X72309489Y-144678071D01*
X72263781Y-144737122D01*
X72207116Y-144810248D01*
X72141616Y-144894712D01*
X72069402Y-144987778D01*
X71992594Y-145086710D01*
X71971161Y-145114306D01*
X71623002Y-145562557D01*
X72438144Y-146839167D01*
X72217287Y-146843065D01*
X72140925Y-146843735D01*
X72074609Y-146843033D01*
X72023423Y-146841115D01*
X71992450Y-146838135D01*
X71985777Y-146836010D01*
X71976245Y-146821942D01*
X71953588Y-146786477D01*
X71919458Y-146732261D01*
X71875510Y-146661941D01*
X71823395Y-146578163D01*
X71764766Y-146483575D01*
X71701277Y-146380823D01*
X71683708Y-146352334D01*
X71619194Y-146247837D01*
X71559095Y-146150788D01*
X71505065Y-146063835D01*
X71458756Y-145989626D01*
X71421824Y-145930810D01*
X71395921Y-145890034D01*
X71382701Y-145869947D01*
X71381529Y-145868422D01*
X71368708Y-145874106D01*
X71341255Y-145897586D01*
X71302969Y-145935284D01*
X71257647Y-145983623D01*
X71248605Y-145993658D01*
X71126444Y-146130082D01*
X71126444Y-146846222D01*
X70745444Y-146846222D01*
X70745444Y-144560222D01*
X71126444Y-144560222D01*
X71126444Y-145091117D01*
G37*
X71126444Y-145091117D02*
X71126595Y-145230474D01*
X71127103Y-145343897D01*
X71128049Y-145433669D01*
X71129515Y-145502079D01*
X71131583Y-145551410D01*
X71134333Y-145583949D01*
X71137848Y-145601982D01*
X71142209Y-145607794D01*
X71144844Y-145606741D01*
X71156882Y-145592609D01*
X71184047Y-145558209D01*
X71224561Y-145505869D01*
X71276643Y-145437917D01*
X71338513Y-145356682D01*
X71408392Y-145264493D01*
X71484501Y-145163679D01*
X71550538Y-145075904D01*
X71937833Y-144560338D01*
X72168813Y-144560280D01*
X72399794Y-144560222D01*
X72359557Y-144613139D01*
X72342122Y-144635831D01*
X72309489Y-144678071D01*
X72263781Y-144737122D01*
X72207116Y-144810248D01*
X72141616Y-144894712D01*
X72069402Y-144987778D01*
X71992594Y-145086710D01*
X71971161Y-145114306D01*
X71623002Y-145562557D01*
X72438144Y-146839167D01*
X72217287Y-146843065D01*
X72140925Y-146843735D01*
X72074609Y-146843033D01*
X72023423Y-146841115D01*
X71992450Y-146838135D01*
X71985777Y-146836010D01*
X71976245Y-146821942D01*
X71953588Y-146786477D01*
X71919458Y-146732261D01*
X71875510Y-146661941D01*
X71823395Y-146578163D01*
X71764766Y-146483575D01*
X71701277Y-146380823D01*
X71683708Y-146352334D01*
X71619194Y-146247837D01*
X71559095Y-146150788D01*
X71505065Y-146063835D01*
X71458756Y-145989626D01*
X71421824Y-145930810D01*
X71395921Y-145890034D01*
X71382701Y-145869947D01*
X71381529Y-145868422D01*
X71368708Y-145874106D01*
X71341255Y-145897586D01*
X71302969Y-145935284D01*
X71257647Y-145983623D01*
X71248605Y-145993658D01*
X71126444Y-146130082D01*
X71126444Y-146846222D01*
X70745444Y-146846222D01*
X70745444Y-144560222D01*
X71126444Y-144560222D01*
X71126444Y-145091117D01*
%TD*%
D11*
%TO.N,*%
X48016000Y-103180000D02*
X158030667Y-103180000D01*
X166412667Y-103180000D02*
X276427334Y-103180000D01*
X284809333Y-103150000D02*
X394824000Y-103150000D01*
X48016000Y-207940000D02*
X158030667Y-207940000D01*
X166412700Y-207940000D02*
X276427367Y-207940000D01*
X284809330Y-207940000D02*
X394823997Y-207940000D01*
X399015000Y-107371000D02*
X399015000Y-203749000D01*
X43825000Y-203749000D02*
X43825000Y-107371000D01*
%TD*%
M02*
