%TF.GenerationSoftware,KiCad,Pcbnew,(5.1.6-0-10_14)*%
%TF.CreationDate,2021-09-05T19:18:27-05:00*%
%TF.ProjectId,EVO70_FR4_plate_acrylic,45564f37-305f-4465-9234-5f706c617465,rev?*%
%TF.SameCoordinates,Original*%
%TF.FileFunction,Soldermask,Bot*%
%TF.FilePolarity,Negative*%
%FSLAX46Y46*%
G04 Gerber Fmt 4.6, Leading zero omitted, Abs format (unit mm)*
G04 Created by KiCad (PCBNEW (5.1.6-0-10_14)) date 2021-09-05 19:18:27*
%MOMM*%
%LPD*%
G01*
G04 APERTURE LIST*
%ADD10C,0.100000*%
G04 APERTURE END LIST*
D10*
G36*
X281201709Y-206226859D02*
G01*
X281565686Y-206377623D01*
X281893253Y-206596496D01*
X282171834Y-206875077D01*
X282390707Y-207202644D01*
X282541471Y-207566621D01*
X282618330Y-207953017D01*
X282618330Y-208346983D01*
X282541471Y-208733379D01*
X282390707Y-209097356D01*
X282171834Y-209424923D01*
X281893253Y-209703504D01*
X281565686Y-209922377D01*
X281201709Y-210073141D01*
X280815313Y-210150000D01*
X280421347Y-210150000D01*
X280034951Y-210073141D01*
X279670974Y-209922377D01*
X279343407Y-209703504D01*
X279064826Y-209424923D01*
X278845953Y-209097356D01*
X278695189Y-208733379D01*
X278618330Y-208346983D01*
X278618330Y-207953017D01*
X278695189Y-207566621D01*
X278845953Y-207202644D01*
X279064826Y-206875077D01*
X279343407Y-206596496D01*
X279670974Y-206377623D01*
X280034951Y-206226859D01*
X280421347Y-206150000D01*
X280815313Y-206150000D01*
X281201709Y-206226859D01*
G37*
G36*
X162805079Y-206226859D02*
G01*
X163169056Y-206377623D01*
X163496623Y-206596496D01*
X163775204Y-206875077D01*
X163994077Y-207202644D01*
X164144841Y-207566621D01*
X164221700Y-207953017D01*
X164221700Y-208346983D01*
X164144841Y-208733379D01*
X163994077Y-209097356D01*
X163775204Y-209424923D01*
X163496623Y-209703504D01*
X163169056Y-209922377D01*
X162805079Y-210073141D01*
X162418683Y-210150000D01*
X162024717Y-210150000D01*
X161638321Y-210073141D01*
X161274344Y-209922377D01*
X160946777Y-209703504D01*
X160668196Y-209424923D01*
X160449323Y-209097356D01*
X160298559Y-208733379D01*
X160221700Y-208346983D01*
X160221700Y-207953017D01*
X160298559Y-207566621D01*
X160449323Y-207202644D01*
X160668196Y-206875077D01*
X160946777Y-206596496D01*
X161274344Y-206377623D01*
X161638321Y-206226859D01*
X162024717Y-206150000D01*
X162418683Y-206150000D01*
X162805079Y-206226859D01*
G37*
G36*
X399598379Y-206016859D02*
G01*
X399962356Y-206167623D01*
X400289923Y-206386496D01*
X400568504Y-206665077D01*
X400787377Y-206992644D01*
X400938141Y-207356621D01*
X401015000Y-207743017D01*
X401015000Y-208136983D01*
X400938141Y-208523379D01*
X400787377Y-208887356D01*
X400568504Y-209214923D01*
X400289923Y-209493504D01*
X399962356Y-209712377D01*
X399598379Y-209863141D01*
X399211983Y-209940000D01*
X398818017Y-209940000D01*
X398431621Y-209863141D01*
X398067644Y-209712377D01*
X397740077Y-209493504D01*
X397461496Y-209214923D01*
X397242623Y-208887356D01*
X397091859Y-208523379D01*
X397015000Y-208136983D01*
X397015000Y-207743017D01*
X397091859Y-207356621D01*
X397242623Y-206992644D01*
X397461496Y-206665077D01*
X397740077Y-206386496D01*
X398067644Y-206167623D01*
X398431621Y-206016859D01*
X398818017Y-205940000D01*
X399211983Y-205940000D01*
X399598379Y-206016859D01*
G37*
G36*
X44408379Y-206016859D02*
G01*
X44772356Y-206167623D01*
X45099923Y-206386496D01*
X45378504Y-206665077D01*
X45597377Y-206992644D01*
X45748141Y-207356621D01*
X45825000Y-207743017D01*
X45825000Y-208136983D01*
X45748141Y-208523379D01*
X45597377Y-208887356D01*
X45378504Y-209214923D01*
X45099923Y-209493504D01*
X44772356Y-209712377D01*
X44408379Y-209863141D01*
X44021983Y-209940000D01*
X43628017Y-209940000D01*
X43241621Y-209863141D01*
X42877644Y-209712377D01*
X42550077Y-209493504D01*
X42271496Y-209214923D01*
X42052623Y-208887356D01*
X41901859Y-208523379D01*
X41825000Y-208136983D01*
X41825000Y-207743017D01*
X41901859Y-207356621D01*
X42052623Y-206992644D01*
X42271496Y-206665077D01*
X42550077Y-206386496D01*
X42877644Y-206167623D01*
X43241621Y-206016859D01*
X43628017Y-205940000D01*
X44021983Y-205940000D01*
X44408379Y-206016859D01*
G37*
G36*
X67350026Y-184846115D02*
G01*
X67568413Y-184936574D01*
X67764955Y-185067899D01*
X67932101Y-185235045D01*
X68063426Y-185431587D01*
X68153885Y-185649974D01*
X68200000Y-185881810D01*
X68200000Y-186118190D01*
X68153885Y-186350026D01*
X68063426Y-186568413D01*
X67932101Y-186764955D01*
X67764955Y-186932101D01*
X67568413Y-187063426D01*
X67350026Y-187153885D01*
X67118190Y-187200000D01*
X66881810Y-187200000D01*
X66649974Y-187153885D01*
X66431587Y-187063426D01*
X66235045Y-186932101D01*
X66067899Y-186764955D01*
X65936574Y-186568413D01*
X65846115Y-186350026D01*
X65800000Y-186118190D01*
X65800000Y-185881810D01*
X65846115Y-185649974D01*
X65936574Y-185431587D01*
X66067899Y-185235045D01*
X66235045Y-185067899D01*
X66431587Y-184936574D01*
X66649974Y-184846115D01*
X66881810Y-184800000D01*
X67118190Y-184800000D01*
X67350026Y-184846115D01*
G37*
G36*
X354350026Y-178846115D02*
G01*
X354568413Y-178936574D01*
X354764955Y-179067899D01*
X354932101Y-179235045D01*
X355052312Y-179414954D01*
X355063426Y-179431587D01*
X355153885Y-179649974D01*
X355200000Y-179881810D01*
X355200000Y-180118190D01*
X355153885Y-180350026D01*
X355063426Y-180568413D01*
X354932101Y-180764955D01*
X354764955Y-180932101D01*
X354568413Y-181063426D01*
X354350026Y-181153885D01*
X354118190Y-181200000D01*
X353881810Y-181200000D01*
X353649974Y-181153885D01*
X353431587Y-181063426D01*
X353235045Y-180932101D01*
X353067899Y-180764955D01*
X352936574Y-180568413D01*
X352846115Y-180350026D01*
X352800000Y-180118190D01*
X352800000Y-179881810D01*
X352846115Y-179649974D01*
X352936574Y-179431587D01*
X352947688Y-179414954D01*
X353067899Y-179235045D01*
X353235045Y-179067899D01*
X353431587Y-178936574D01*
X353649974Y-178846115D01*
X353881810Y-178800000D01*
X354118190Y-178800000D01*
X354350026Y-178846115D01*
G37*
G36*
X209887526Y-177496115D02*
G01*
X210105913Y-177586574D01*
X210302455Y-177717899D01*
X210469601Y-177885045D01*
X210600926Y-178081587D01*
X210691385Y-178299974D01*
X210737500Y-178531810D01*
X210737500Y-178768190D01*
X210691385Y-179000026D01*
X210663271Y-179067899D01*
X210600926Y-179218413D01*
X210469601Y-179414955D01*
X210302455Y-179582101D01*
X210105913Y-179713426D01*
X209887526Y-179803885D01*
X209655690Y-179850000D01*
X209419310Y-179850000D01*
X209187474Y-179803885D01*
X208969087Y-179713426D01*
X208772545Y-179582101D01*
X208605399Y-179414955D01*
X208474074Y-179218413D01*
X208411729Y-179067899D01*
X208383615Y-179000026D01*
X208337500Y-178768190D01*
X208337500Y-178531810D01*
X208383615Y-178299974D01*
X208474074Y-178081587D01*
X208605399Y-177885045D01*
X208772545Y-177717899D01*
X208969087Y-177586574D01*
X209187474Y-177496115D01*
X209419310Y-177450000D01*
X209655690Y-177450000D01*
X209887526Y-177496115D01*
G37*
G36*
X374350026Y-137846115D02*
G01*
X374568413Y-137936574D01*
X374764955Y-138067899D01*
X374932101Y-138235045D01*
X375063426Y-138431587D01*
X375153885Y-138649974D01*
X375200000Y-138881810D01*
X375200000Y-139118190D01*
X375153885Y-139350026D01*
X375063426Y-139568413D01*
X374932101Y-139764955D01*
X374764955Y-139932101D01*
X374568413Y-140063426D01*
X374350026Y-140153885D01*
X374118190Y-140200000D01*
X373881810Y-140200000D01*
X373649974Y-140153885D01*
X373431587Y-140063426D01*
X373235045Y-139932101D01*
X373067899Y-139764955D01*
X372936574Y-139568413D01*
X372846115Y-139350026D01*
X372800000Y-139118190D01*
X372800000Y-138881810D01*
X372846115Y-138649974D01*
X372936574Y-138431587D01*
X373067899Y-138235045D01*
X373235045Y-138067899D01*
X373431587Y-137936574D01*
X373649974Y-137846115D01*
X373881810Y-137800000D01*
X374118190Y-137800000D01*
X374350026Y-137846115D01*
G37*
G36*
X243350026Y-123846115D02*
G01*
X243568413Y-123936574D01*
X243764955Y-124067899D01*
X243932101Y-124235045D01*
X244063426Y-124431587D01*
X244153885Y-124649974D01*
X244200000Y-124881810D01*
X244200000Y-125118190D01*
X244153885Y-125350026D01*
X244063426Y-125568413D01*
X243932101Y-125764955D01*
X243764955Y-125932101D01*
X243568413Y-126063426D01*
X243350026Y-126153885D01*
X243118190Y-126200000D01*
X242881810Y-126200000D01*
X242649974Y-126153885D01*
X242431587Y-126063426D01*
X242235045Y-125932101D01*
X242067899Y-125764955D01*
X241936574Y-125568413D01*
X241846115Y-125350026D01*
X241800000Y-125118190D01*
X241800000Y-124881810D01*
X241846115Y-124649974D01*
X241936574Y-124431587D01*
X242067899Y-124235045D01*
X242235045Y-124067899D01*
X242431587Y-123936574D01*
X242649974Y-123846115D01*
X242881810Y-123800000D01*
X243118190Y-123800000D01*
X243350026Y-123846115D01*
G37*
G36*
X63350026Y-110846115D02*
G01*
X63568413Y-110936574D01*
X63764955Y-111067899D01*
X63932101Y-111235045D01*
X64063426Y-111431587D01*
X64153885Y-111649974D01*
X64200000Y-111881810D01*
X64200000Y-112118190D01*
X64153885Y-112350026D01*
X64063426Y-112568413D01*
X63932101Y-112764955D01*
X63764955Y-112932101D01*
X63568413Y-113063426D01*
X63350026Y-113153885D01*
X63118190Y-113200000D01*
X62881810Y-113200000D01*
X62649974Y-113153885D01*
X62431587Y-113063426D01*
X62235045Y-112932101D01*
X62067899Y-112764955D01*
X61936574Y-112568413D01*
X61846115Y-112350026D01*
X61800000Y-112118190D01*
X61800000Y-111881810D01*
X61846115Y-111649974D01*
X61936574Y-111431587D01*
X62067899Y-111235045D01*
X62235045Y-111067899D01*
X62431587Y-110936574D01*
X62649974Y-110846115D01*
X62881810Y-110800000D01*
X63118190Y-110800000D01*
X63350026Y-110846115D01*
G37*
G36*
X399598379Y-101256859D02*
G01*
X399962356Y-101407623D01*
X400289923Y-101626496D01*
X400568504Y-101905077D01*
X400787377Y-102232644D01*
X400938141Y-102596621D01*
X401015000Y-102983017D01*
X401015000Y-103376983D01*
X400938141Y-103763379D01*
X400787377Y-104127356D01*
X400568504Y-104454923D01*
X400289923Y-104733504D01*
X399962356Y-104952377D01*
X399598379Y-105103141D01*
X399211983Y-105180000D01*
X398818017Y-105180000D01*
X398431621Y-105103141D01*
X398067644Y-104952377D01*
X397740077Y-104733504D01*
X397461496Y-104454923D01*
X397242623Y-104127356D01*
X397091859Y-103763379D01*
X397015000Y-103376983D01*
X397015000Y-102983017D01*
X397091859Y-102596621D01*
X397242623Y-102232644D01*
X397461496Y-101905077D01*
X397740077Y-101626496D01*
X398067644Y-101407623D01*
X398431621Y-101256859D01*
X398818017Y-101180000D01*
X399211983Y-101180000D01*
X399598379Y-101256859D01*
G37*
G36*
X44408379Y-101256859D02*
G01*
X44772356Y-101407623D01*
X45099923Y-101626496D01*
X45378504Y-101905077D01*
X45597377Y-102232644D01*
X45748141Y-102596621D01*
X45825000Y-102983017D01*
X45825000Y-103376983D01*
X45748141Y-103763379D01*
X45597377Y-104127356D01*
X45378504Y-104454923D01*
X45099923Y-104733504D01*
X44772356Y-104952377D01*
X44408379Y-105103141D01*
X44021983Y-105180000D01*
X43628017Y-105180000D01*
X43241621Y-105103141D01*
X42877644Y-104952377D01*
X42550077Y-104733504D01*
X42271496Y-104454923D01*
X42052623Y-104127356D01*
X41901859Y-103763379D01*
X41825000Y-103376983D01*
X41825000Y-102983017D01*
X41901859Y-102596621D01*
X42052623Y-102232644D01*
X42271496Y-101905077D01*
X42550077Y-101626496D01*
X42877644Y-101407623D01*
X43241621Y-101256859D01*
X43628017Y-101180000D01*
X44021983Y-101180000D01*
X44408379Y-101256859D01*
G37*
G36*
X281201712Y-101226859D02*
G01*
X281565689Y-101377623D01*
X281893256Y-101596496D01*
X282171837Y-101875077D01*
X282390710Y-102202644D01*
X282541474Y-102566621D01*
X282618333Y-102953017D01*
X282618333Y-103346983D01*
X282541474Y-103733379D01*
X282390710Y-104097356D01*
X282171837Y-104424923D01*
X281893256Y-104703504D01*
X281565689Y-104922377D01*
X281201712Y-105073141D01*
X280815316Y-105150000D01*
X280421350Y-105150000D01*
X280034954Y-105073141D01*
X279670977Y-104922377D01*
X279343410Y-104703504D01*
X279064829Y-104424923D01*
X278845956Y-104097356D01*
X278695192Y-103733379D01*
X278618333Y-103346983D01*
X278618333Y-102953017D01*
X278695192Y-102566621D01*
X278845956Y-102202644D01*
X279064829Y-101875077D01*
X279343410Y-101596496D01*
X279670977Y-101377623D01*
X280034954Y-101226859D01*
X280421350Y-101150000D01*
X280815316Y-101150000D01*
X281201712Y-101226859D01*
G37*
G36*
X162805046Y-101226859D02*
G01*
X163169023Y-101377623D01*
X163496590Y-101596496D01*
X163775171Y-101875077D01*
X163994044Y-102202644D01*
X164144808Y-102566621D01*
X164221667Y-102953017D01*
X164221667Y-103346983D01*
X164144808Y-103733379D01*
X163994044Y-104097356D01*
X163775171Y-104424923D01*
X163496590Y-104703504D01*
X163169023Y-104922377D01*
X162805046Y-105073141D01*
X162418650Y-105150000D01*
X162024684Y-105150000D01*
X161638288Y-105073141D01*
X161274311Y-104922377D01*
X160946744Y-104703504D01*
X160668163Y-104424923D01*
X160449290Y-104097356D01*
X160298526Y-103733379D01*
X160221667Y-103346983D01*
X160221667Y-102953017D01*
X160298526Y-102566621D01*
X160449290Y-102202644D01*
X160668163Y-101875077D01*
X160946744Y-101596496D01*
X161274311Y-101377623D01*
X161638288Y-101226859D01*
X162024684Y-101150000D01*
X162418650Y-101150000D01*
X162805046Y-101226859D01*
G37*
M02*
