%TF.GenerationSoftware,KiCad,Pcbnew,(5.1.6-0-10_14)*%
%TF.CreationDate,2021-09-05T19:18:27-05:00*%
%TF.ProjectId,EVO70_FR4_plate_acrylic,45564f37-305f-4465-9234-5f706c617465,rev?*%
%TF.SameCoordinates,Original*%
%TF.FileFunction,Profile,NP*%
%FSLAX46Y46*%
G04 Gerber Fmt 4.6, Leading zero omitted, Abs format (unit mm)*
G04 Created by KiCad (PCBNEW (5.1.6-0-10_14)) date 2021-09-05 19:18:27*
%MOMM*%
%LPD*%
G01*
G04 APERTURE LIST*
%TA.AperFunction,Profile*%
%ADD10C,0.150000*%
%TD*%
%TA.AperFunction,Profile*%
%ADD11C,0.050000*%
%TD*%
%TA.AperFunction,Profile*%
%ADD12C,0.100000*%
%TD*%
%TA.AperFunction,Profile*%
%ADD13C,0.120000*%
%TD*%
G04 APERTURE END LIST*
D10*
X59662500Y-127598000D02*
G75*
G03*
X61162500Y-129098000I1500000J0D01*
G01*
X72162500Y-129098000D02*
G75*
G03*
X73662500Y-127598000I0J1500000D01*
G01*
X73662500Y-116598000D02*
G75*
G03*
X72162500Y-115098000I-1500000J0D01*
G01*
X61162500Y-115098000D02*
G75*
G03*
X59662500Y-116598000I0J-1500000D01*
G01*
X59662500Y-116598000D02*
X59662500Y-127598000D01*
X72162500Y-115098000D02*
X61162500Y-115098000D01*
X73662500Y-127598000D02*
X73662500Y-116598000D01*
X61162500Y-129098000D02*
X72162500Y-129098000D01*
D11*
X79116500Y-135520500D02*
X79116500Y-143164500D01*
X54732500Y-143164500D02*
X79116500Y-143164500D01*
X54732500Y-135520500D02*
X79116500Y-135520500D01*
X54732500Y-135520500D02*
X54732500Y-143164500D01*
D12*
X399270000Y-213300000D02*
G75*
G03*
X404080000Y-208490000I0J4810000D01*
G01*
X399270000Y-213300000D02*
X43617500Y-213300000D01*
X38807500Y-208490000D02*
G75*
G03*
X43617500Y-213300000I4810000J0D01*
G01*
X38807500Y-102810000D02*
X38807500Y-208490000D01*
X43617500Y-98000000D02*
G75*
G03*
X38807500Y-102810000I0J-4810000D01*
G01*
X399270000Y-98000000D02*
X43617500Y-98000000D01*
X404080000Y-102810000D02*
G75*
G03*
X399270000Y-98000000I-4810000J0D01*
G01*
X404080000Y-102810000D02*
X404080000Y-208490000D01*
D13*
%TO.C,SW5*%
X392750000Y-145100000D02*
X392750000Y-131100000D01*
X392750000Y-145100000D02*
X378750000Y-145100000D01*
X378750000Y-145100000D02*
X378750000Y-131100000D01*
X392750000Y-131100000D02*
X378750000Y-131100000D01*
%TO.C,SW44*%
X368937500Y-131100000D02*
X354937500Y-131100000D01*
X368937500Y-145100000D02*
X368937500Y-131100000D01*
X368937500Y-145100000D02*
X354937500Y-145100000D01*
X354937500Y-145100000D02*
X354937500Y-131100000D01*
%TO.C,SW77*%
X268125000Y-201220000D02*
X268125000Y-202250000D01*
X167237500Y-188250000D02*
X169737500Y-188250000D01*
X228443750Y-202250000D02*
X214443750Y-202250000D01*
X228443750Y-201220000D02*
X268125000Y-201220000D01*
X275650000Y-188250000D02*
X275650000Y-202250000D01*
X174762500Y-188250000D02*
X174762500Y-189280000D01*
X169737500Y-188250000D02*
X169737500Y-187080000D01*
X269750000Y-188250000D02*
X269750000Y-187080000D01*
X214443750Y-188250000D02*
X228443750Y-188250000D01*
X268125000Y-202250000D02*
X275650000Y-202250000D01*
X173137500Y-187080000D02*
X173137500Y-188250000D01*
X174762500Y-201220000D02*
X174762500Y-202250000D01*
X269750000Y-187080000D02*
X273150000Y-187080000D01*
X167237500Y-202250000D02*
X167237500Y-188250000D01*
X268125000Y-188250000D02*
X269750000Y-188250000D01*
X214443750Y-189280000D02*
X214443750Y-188250000D01*
X273150000Y-188250000D02*
X275650000Y-188250000D01*
X228443750Y-188250000D02*
X228443750Y-189280000D01*
X268125000Y-189280000D02*
X268125000Y-188250000D01*
X174762500Y-202250000D02*
X167237500Y-202250000D01*
X174762500Y-189280000D02*
X214443750Y-189280000D01*
X173137500Y-188250000D02*
X174762500Y-188250000D01*
X214443750Y-201220000D02*
X174762500Y-201220000D01*
X228443750Y-189280000D02*
X268125000Y-189280000D01*
X273150000Y-187080000D02*
X273150000Y-188250000D01*
X228443750Y-202250000D02*
X228443750Y-201220000D01*
X169737500Y-187080000D02*
X173137500Y-187080000D01*
X214443750Y-202250000D02*
X214443750Y-201220000D01*
%TO.C,SW29*%
X341075000Y-126050000D02*
X341075000Y-112050000D01*
X343575000Y-126050000D02*
X341075000Y-126050000D01*
X343575000Y-127220000D02*
X343575000Y-126050000D01*
X346975000Y-127220000D02*
X343575000Y-127220000D01*
X346975000Y-126050000D02*
X346975000Y-127220000D01*
X348600000Y-126050000D02*
X346975000Y-126050000D01*
X348600000Y-125020000D02*
X348600000Y-126050000D01*
X350175000Y-125020000D02*
X348600000Y-125020000D01*
X350175000Y-126050000D02*
X350175000Y-125020000D01*
X364175000Y-126050000D02*
X350175000Y-126050000D01*
X364175000Y-125020000D02*
X364175000Y-126050000D01*
X365750000Y-125020000D02*
X364175000Y-125020000D01*
X365750000Y-126050000D02*
X365750000Y-125020000D01*
X367375000Y-126050000D02*
X365750000Y-126050000D01*
X367375000Y-127220000D02*
X367375000Y-126050000D01*
X370775000Y-127220000D02*
X367375000Y-127220000D01*
X370775000Y-126050000D02*
X370775000Y-127220000D01*
X373275000Y-126050000D02*
X370775000Y-126050000D01*
X373275000Y-112050000D02*
X373275000Y-126050000D01*
X365750000Y-112050000D02*
X373275000Y-112050000D01*
X348600000Y-112050000D02*
X341075000Y-112050000D01*
X348600000Y-113080000D02*
X348600000Y-112050000D01*
X350175000Y-113080000D02*
X348600000Y-113080000D01*
X350175000Y-112050000D02*
X350175000Y-113080000D01*
X364175000Y-112050000D02*
X364175000Y-113080000D01*
X365750000Y-113080000D02*
X365750000Y-112050000D01*
X364175000Y-113080000D02*
X365750000Y-113080000D01*
X350175000Y-112050000D02*
X364175000Y-112050000D01*
%TO.C,SW60*%
X95806250Y-183200000D02*
X95806250Y-169200000D01*
X98306250Y-183200000D02*
X95806250Y-183200000D01*
X98306250Y-184370000D02*
X98306250Y-183200000D01*
X101706250Y-184370000D02*
X98306250Y-184370000D01*
X101706250Y-183200000D02*
X101706250Y-184370000D01*
X103331250Y-183200000D02*
X101706250Y-183200000D01*
X103331250Y-182170000D02*
X103331250Y-183200000D01*
X104906250Y-182170000D02*
X103331250Y-182170000D01*
X104906250Y-183200000D02*
X104906250Y-182170000D01*
X118906250Y-183200000D02*
X104906250Y-183200000D01*
X118906250Y-182170000D02*
X118906250Y-183200000D01*
X120481250Y-182170000D02*
X118906250Y-182170000D01*
X120481250Y-183200000D02*
X120481250Y-182170000D01*
X122106250Y-183200000D02*
X120481250Y-183200000D01*
X122106250Y-184370000D02*
X122106250Y-183200000D01*
X125506250Y-184370000D02*
X122106250Y-184370000D01*
X125506250Y-183200000D02*
X125506250Y-184370000D01*
X128006250Y-183200000D02*
X125506250Y-183200000D01*
X128006250Y-169200000D02*
X128006250Y-183200000D01*
X120481250Y-169200000D02*
X128006250Y-169200000D01*
X103331250Y-169200000D02*
X95806250Y-169200000D01*
X103331250Y-170230000D02*
X103331250Y-169200000D01*
X104906250Y-170230000D02*
X103331250Y-170230000D01*
X104906250Y-169200000D02*
X104906250Y-170230000D01*
X118906250Y-169200000D02*
X118906250Y-170230000D01*
X120481250Y-170230000D02*
X120481250Y-169200000D01*
X118906250Y-170230000D02*
X120481250Y-170230000D01*
X104906250Y-169200000D02*
X118906250Y-169200000D01*
%TO.C,SW58*%
X338693750Y-164150000D02*
X338693750Y-150150000D01*
X341193750Y-164150000D02*
X338693750Y-164150000D01*
X341193750Y-165320000D02*
X341193750Y-164150000D01*
X344593750Y-165320000D02*
X341193750Y-165320000D01*
X344593750Y-164150000D02*
X344593750Y-165320000D01*
X346218750Y-164150000D02*
X344593750Y-164150000D01*
X346218750Y-163120000D02*
X346218750Y-164150000D01*
X347793750Y-163120000D02*
X346218750Y-163120000D01*
X347793750Y-164150000D02*
X347793750Y-163120000D01*
X361793750Y-164150000D02*
X347793750Y-164150000D01*
X361793750Y-163120000D02*
X361793750Y-164150000D01*
X363368750Y-163120000D02*
X361793750Y-163120000D01*
X363368750Y-164150000D02*
X363368750Y-163120000D01*
X364993750Y-164150000D02*
X363368750Y-164150000D01*
X364993750Y-165320000D02*
X364993750Y-164150000D01*
X368393750Y-165320000D02*
X364993750Y-165320000D01*
X368393750Y-164150000D02*
X368393750Y-165320000D01*
X370893750Y-164150000D02*
X368393750Y-164150000D01*
X370893750Y-150150000D02*
X370893750Y-164150000D01*
X363368750Y-150150000D02*
X370893750Y-150150000D01*
X346218750Y-150150000D02*
X338693750Y-150150000D01*
X346218750Y-151180000D02*
X346218750Y-150150000D01*
X347793750Y-151180000D02*
X346218750Y-151180000D01*
X347793750Y-150150000D02*
X347793750Y-151180000D01*
X361793750Y-150150000D02*
X361793750Y-151180000D01*
X363368750Y-151180000D02*
X363368750Y-150150000D01*
X361793750Y-151180000D02*
X363368750Y-151180000D01*
X347793750Y-150150000D02*
X361793750Y-150150000D01*
%TO.C,SW16*%
X107000000Y-126050000D02*
X107000000Y-112050000D01*
X107000000Y-126050000D02*
X93000000Y-126050000D01*
X93000000Y-126050000D02*
X93000000Y-112050000D01*
X107000000Y-112050000D02*
X93000000Y-112050000D01*
%TO.C,SW31*%
X111762500Y-131100000D02*
X97762500Y-131100000D01*
X111762500Y-145100000D02*
X111762500Y-131100000D01*
X111762500Y-145100000D02*
X97762500Y-145100000D01*
X97762500Y-145100000D02*
X97762500Y-131100000D01*
%TO.C,SW9*%
X83187500Y-202250000D02*
X83187500Y-188250000D01*
X83187500Y-202250000D02*
X69187500Y-202250000D01*
X69187500Y-202250000D02*
X69187500Y-188250000D01*
X83187500Y-188250000D02*
X69187500Y-188250000D01*
%TO.C,SW78*%
X299881250Y-188250000D02*
X285881250Y-188250000D01*
X299881250Y-202250000D02*
X299881250Y-188250000D01*
X299881250Y-202250000D02*
X285881250Y-202250000D01*
X285881250Y-202250000D02*
X285881250Y-188250000D01*
%TO.C,SW2*%
X354650000Y-202250000D02*
X354650000Y-188250000D01*
X354650000Y-202250000D02*
X340650000Y-202250000D01*
X340650000Y-202250000D02*
X340650000Y-188250000D01*
X354650000Y-188250000D02*
X340650000Y-188250000D01*
%TO.C,SW28*%
X335600000Y-126050000D02*
X335600000Y-112050000D01*
X335600000Y-126050000D02*
X321600000Y-126050000D01*
X321600000Y-126050000D02*
X321600000Y-112050000D01*
X335600000Y-112050000D02*
X321600000Y-112050000D01*
%TO.C,SW46*%
X114143750Y-150150000D02*
X100143750Y-150150000D01*
X114143750Y-164150000D02*
X114143750Y-150150000D01*
X114143750Y-164150000D02*
X100143750Y-164150000D01*
X100143750Y-164150000D02*
X100143750Y-150150000D01*
%TO.C,SW74*%
X109381250Y-188250000D02*
X95381250Y-188250000D01*
X109381250Y-202250000D02*
X109381250Y-188250000D01*
X109381250Y-202250000D02*
X95381250Y-202250000D01*
X95381250Y-202250000D02*
X95381250Y-188250000D01*
%TO.C,SW54*%
X273687500Y-164150000D02*
X273687500Y-150150000D01*
X273687500Y-164150000D02*
X259687500Y-164150000D01*
X259687500Y-164150000D02*
X259687500Y-150150000D01*
X273687500Y-150150000D02*
X259687500Y-150150000D01*
%TO.C,SW17*%
X126050000Y-126050000D02*
X126050000Y-112050000D01*
X126050000Y-126050000D02*
X112050000Y-126050000D01*
X112050000Y-126050000D02*
X112050000Y-112050000D01*
X126050000Y-112050000D02*
X112050000Y-112050000D01*
%TO.C,SW76*%
X157006250Y-188250000D02*
X143006250Y-188250000D01*
X157006250Y-202250000D02*
X157006250Y-188250000D01*
X157006250Y-202250000D02*
X143006250Y-202250000D01*
X143006250Y-202250000D02*
X143006250Y-188250000D01*
%TO.C,SW68*%
X283212500Y-183200000D02*
X283212500Y-169200000D01*
X283212500Y-183200000D02*
X269212500Y-183200000D01*
X269212500Y-183200000D02*
X269212500Y-169200000D01*
X283212500Y-169200000D02*
X269212500Y-169200000D01*
%TO.C,SW63*%
X187962500Y-183200000D02*
X187962500Y-169200000D01*
X187962500Y-183200000D02*
X173962500Y-183200000D01*
X173962500Y-183200000D02*
X173962500Y-169200000D01*
X187962500Y-169200000D02*
X173962500Y-169200000D01*
%TO.C,SW57*%
X330837500Y-164150000D02*
X330837500Y-150150000D01*
X330837500Y-164150000D02*
X316837500Y-164150000D01*
X316837500Y-164150000D02*
X316837500Y-150150000D01*
X330837500Y-150150000D02*
X316837500Y-150150000D01*
%TO.C,SW56*%
X311787500Y-164150000D02*
X311787500Y-150150000D01*
X311787500Y-164150000D02*
X297787500Y-164150000D01*
X297787500Y-164150000D02*
X297787500Y-150150000D01*
X311787500Y-150150000D02*
X297787500Y-150150000D01*
%TO.C,SW55*%
X292737500Y-164150000D02*
X292737500Y-150150000D01*
X292737500Y-164150000D02*
X278737500Y-164150000D01*
X278737500Y-164150000D02*
X278737500Y-150150000D01*
X292737500Y-150150000D02*
X278737500Y-150150000D01*
%TO.C,SW51*%
X216537500Y-164150000D02*
X216537500Y-150150000D01*
X216537500Y-164150000D02*
X202537500Y-164150000D01*
X202537500Y-164150000D02*
X202537500Y-150150000D01*
X216537500Y-150150000D02*
X202537500Y-150150000D01*
%TO.C,SW48*%
X159387500Y-164150000D02*
X159387500Y-150150000D01*
X159387500Y-164150000D02*
X145387500Y-164150000D01*
X145387500Y-164150000D02*
X145387500Y-150150000D01*
X159387500Y-150150000D02*
X145387500Y-150150000D01*
%TO.C,SW43*%
X345125000Y-145100000D02*
X345125000Y-131100000D01*
X345125000Y-145100000D02*
X331125000Y-145100000D01*
X331125000Y-145100000D02*
X331125000Y-131100000D01*
X345125000Y-131100000D02*
X331125000Y-131100000D01*
%TO.C,SW42*%
X326075000Y-145100000D02*
X326075000Y-131100000D01*
X326075000Y-145100000D02*
X312075000Y-145100000D01*
X312075000Y-145100000D02*
X312075000Y-131100000D01*
X326075000Y-131100000D02*
X312075000Y-131100000D01*
%TO.C,SW41*%
X307025000Y-145100000D02*
X307025000Y-131100000D01*
X307025000Y-145100000D02*
X293025000Y-145100000D01*
X293025000Y-145100000D02*
X293025000Y-131100000D01*
X307025000Y-131100000D02*
X293025000Y-131100000D01*
%TO.C,SW37*%
X230825000Y-145100000D02*
X230825000Y-131100000D01*
X230825000Y-145100000D02*
X216825000Y-145100000D01*
X216825000Y-145100000D02*
X216825000Y-131100000D01*
X230825000Y-131100000D02*
X216825000Y-131100000D01*
%TO.C,SW4*%
X392750000Y-126050000D02*
X392750000Y-112050000D01*
X392750000Y-126050000D02*
X378750000Y-126050000D01*
X378750000Y-126050000D02*
X378750000Y-112050000D01*
X392750000Y-112050000D02*
X378750000Y-112050000D01*
%TO.C,SW27*%
X316550000Y-126050000D02*
X316550000Y-112050000D01*
X316550000Y-126050000D02*
X302550000Y-126050000D01*
X302550000Y-126050000D02*
X302550000Y-112050000D01*
X316550000Y-112050000D02*
X302550000Y-112050000D01*
%TO.C,SW24*%
X259400000Y-126050000D02*
X259400000Y-112050000D01*
X259400000Y-126050000D02*
X245400000Y-126050000D01*
X245400000Y-126050000D02*
X245400000Y-112050000D01*
X259400000Y-112050000D02*
X245400000Y-112050000D01*
%TO.C,SW22*%
X221300000Y-126050000D02*
X221300000Y-112050000D01*
X221300000Y-126050000D02*
X207300000Y-126050000D01*
X207300000Y-126050000D02*
X207300000Y-112050000D01*
X221300000Y-112050000D02*
X207300000Y-112050000D01*
%TO.C,SW79*%
X323693750Y-188250000D02*
X309693750Y-188250000D01*
X323693750Y-202250000D02*
X323693750Y-188250000D01*
X323693750Y-202250000D02*
X309693750Y-202250000D01*
X309693750Y-202250000D02*
X309693750Y-188250000D01*
%TO.C,SW33*%
X154625000Y-145100000D02*
X154625000Y-131100000D01*
X154625000Y-145100000D02*
X140625000Y-145100000D01*
X140625000Y-145100000D02*
X140625000Y-131100000D01*
X154625000Y-131100000D02*
X140625000Y-131100000D01*
%TO.C,SW36*%
X211716250Y-145100000D02*
X211716250Y-131100000D01*
X211716250Y-145100000D02*
X197716250Y-145100000D01*
X197716250Y-145100000D02*
X197716250Y-131100000D01*
X211716250Y-131100000D02*
X197716250Y-131100000D01*
%TO.C,SW25*%
X278450000Y-126050000D02*
X278450000Y-112050000D01*
X278450000Y-126050000D02*
X264450000Y-126050000D01*
X264450000Y-126050000D02*
X264450000Y-112050000D01*
X278450000Y-112050000D02*
X264450000Y-112050000D01*
%TO.C,SW38*%
X249875000Y-145100000D02*
X249875000Y-131100000D01*
X249875000Y-145100000D02*
X235875000Y-145100000D01*
X235875000Y-145100000D02*
X235875000Y-131100000D01*
X249875000Y-131100000D02*
X235875000Y-131100000D01*
%TO.C,SW18*%
X145100000Y-126050000D02*
X145100000Y-112050000D01*
X145100000Y-126050000D02*
X131100000Y-126050000D01*
X131100000Y-126050000D02*
X131100000Y-112050000D01*
X145100000Y-112050000D02*
X131100000Y-112050000D01*
%TO.C,SW19*%
X164150000Y-126050000D02*
X164150000Y-112050000D01*
X164150000Y-126050000D02*
X150150000Y-126050000D01*
X150150000Y-126050000D02*
X150150000Y-112050000D01*
X164150000Y-112050000D02*
X150150000Y-112050000D01*
%TO.C,SW20*%
X183200000Y-126050000D02*
X183200000Y-112050000D01*
X183200000Y-126050000D02*
X169200000Y-126050000D01*
X169200000Y-126050000D02*
X169200000Y-112050000D01*
X183200000Y-112050000D02*
X169200000Y-112050000D01*
%TO.C,SW21*%
X202250000Y-126050000D02*
X202250000Y-112050000D01*
X202250000Y-126050000D02*
X188250000Y-126050000D01*
X188250000Y-126050000D02*
X188250000Y-112050000D01*
X202250000Y-112050000D02*
X188250000Y-112050000D01*
%TO.C,SW23*%
X240350000Y-126050000D02*
X240350000Y-112050000D01*
X240350000Y-126050000D02*
X226350000Y-126050000D01*
X226350000Y-126050000D02*
X226350000Y-112050000D01*
X240350000Y-112050000D02*
X226350000Y-112050000D01*
%TO.C,SW26*%
X297500000Y-126050000D02*
X297500000Y-112050000D01*
X297500000Y-126050000D02*
X283500000Y-126050000D01*
X283500000Y-126050000D02*
X283500000Y-112050000D01*
X297500000Y-112050000D02*
X283500000Y-112050000D01*
%TO.C,SW32*%
X135575000Y-145100000D02*
X135575000Y-131100000D01*
X135575000Y-145100000D02*
X121575000Y-145100000D01*
X121575000Y-145100000D02*
X121575000Y-131100000D01*
X135575000Y-131100000D02*
X121575000Y-131100000D01*
%TO.C,SW34*%
X173675000Y-145100000D02*
X173675000Y-131100000D01*
X173675000Y-145100000D02*
X159675000Y-145100000D01*
X159675000Y-145100000D02*
X159675000Y-131100000D01*
X173675000Y-131100000D02*
X159675000Y-131100000D01*
%TO.C,SW35*%
X192725000Y-145100000D02*
X192725000Y-131100000D01*
X192725000Y-145100000D02*
X178725000Y-145100000D01*
X178725000Y-145100000D02*
X178725000Y-131100000D01*
X192725000Y-131100000D02*
X178725000Y-131100000D01*
%TO.C,SW39*%
X268925000Y-145100000D02*
X268925000Y-131100000D01*
X268925000Y-145100000D02*
X254925000Y-145100000D01*
X254925000Y-145100000D02*
X254925000Y-131100000D01*
X268925000Y-131100000D02*
X254925000Y-131100000D01*
%TO.C,SW40*%
X287975000Y-145100000D02*
X287975000Y-131100000D01*
X287975000Y-145100000D02*
X273975000Y-145100000D01*
X273975000Y-145100000D02*
X273975000Y-131100000D01*
X287975000Y-131100000D02*
X273975000Y-131100000D01*
%TO.C,SW47*%
X140337500Y-164150000D02*
X140337500Y-150150000D01*
X140337500Y-164150000D02*
X126337500Y-164150000D01*
X126337500Y-164150000D02*
X126337500Y-150150000D01*
X140337500Y-150150000D02*
X126337500Y-150150000D01*
%TO.C,SW49*%
X178437500Y-164150000D02*
X178437500Y-150150000D01*
X178437500Y-164150000D02*
X164437500Y-164150000D01*
X164437500Y-164150000D02*
X164437500Y-150150000D01*
X178437500Y-150150000D02*
X164437500Y-150150000D01*
%TO.C,SW50*%
X197487500Y-164150000D02*
X197487500Y-150150000D01*
X197487500Y-164150000D02*
X183487500Y-164150000D01*
X183487500Y-164150000D02*
X183487500Y-150150000D01*
X197487500Y-150150000D02*
X183487500Y-150150000D01*
%TO.C,SW52*%
X235587500Y-164150000D02*
X235587500Y-150150000D01*
X235587500Y-164150000D02*
X221587500Y-164150000D01*
X221587500Y-164150000D02*
X221587500Y-150150000D01*
X235587500Y-150150000D02*
X221587500Y-150150000D01*
%TO.C,SW53*%
X254637500Y-164150000D02*
X254637500Y-150150000D01*
X254637500Y-164150000D02*
X240637500Y-164150000D01*
X240637500Y-164150000D02*
X240637500Y-150150000D01*
X254637500Y-150150000D02*
X240637500Y-150150000D01*
%TO.C,SW61*%
X149862500Y-183200000D02*
X149862500Y-169200000D01*
X149862500Y-183200000D02*
X135862500Y-183200000D01*
X135862500Y-183200000D02*
X135862500Y-169200000D01*
X149862500Y-169200000D02*
X135862500Y-169200000D01*
%TO.C,SW62*%
X168912500Y-183200000D02*
X168912500Y-169200000D01*
X168912500Y-183200000D02*
X154912500Y-183200000D01*
X154912500Y-183200000D02*
X154912500Y-169200000D01*
X168912500Y-169200000D02*
X154912500Y-169200000D01*
%TO.C,SW64*%
X207012500Y-183200000D02*
X207012500Y-169200000D01*
X207012500Y-183200000D02*
X193012500Y-183200000D01*
X193012500Y-183200000D02*
X193012500Y-169200000D01*
X207012500Y-169200000D02*
X193012500Y-169200000D01*
%TO.C,SW65*%
X226062500Y-183200000D02*
X226062500Y-169200000D01*
X226062500Y-183200000D02*
X212062500Y-183200000D01*
X212062500Y-183200000D02*
X212062500Y-169200000D01*
X226062500Y-169200000D02*
X212062500Y-169200000D01*
%TO.C,SW66*%
X245112500Y-183200000D02*
X245112500Y-169200000D01*
X245112500Y-183200000D02*
X231112500Y-183200000D01*
X231112500Y-183200000D02*
X231112500Y-169200000D01*
X245112500Y-169200000D02*
X231112500Y-169200000D01*
%TO.C,SW67*%
X264162500Y-183200000D02*
X264162500Y-169200000D01*
X264162500Y-183200000D02*
X250162500Y-183200000D01*
X250162500Y-183200000D02*
X250162500Y-169200000D01*
X264162500Y-169200000D02*
X250162500Y-169200000D01*
%TO.C,SW69*%
X302262500Y-183200000D02*
X302262500Y-169200000D01*
X302262500Y-183200000D02*
X288262500Y-183200000D01*
X288262500Y-183200000D02*
X288262500Y-169200000D01*
X302262500Y-169200000D02*
X288262500Y-169200000D01*
%TO.C,SW70*%
X321312500Y-183200000D02*
X321312500Y-169200000D01*
X321312500Y-183200000D02*
X307312500Y-183200000D01*
X307312500Y-183200000D02*
X307312500Y-169200000D01*
X321312500Y-169200000D02*
X307312500Y-169200000D01*
%TO.C,SW1*%
X373700000Y-183200000D02*
X373700000Y-169200000D01*
X373700000Y-183200000D02*
X359700000Y-183200000D01*
X359700000Y-183200000D02*
X359700000Y-169200000D01*
X373700000Y-169200000D02*
X359700000Y-169200000D01*
%TO.C,SW3*%
X373700000Y-202250000D02*
X373700000Y-188250000D01*
X373700000Y-202250000D02*
X359700000Y-202250000D01*
X359700000Y-202250000D02*
X359700000Y-188250000D01*
X373700000Y-188250000D02*
X359700000Y-188250000D01*
%TO.C,SW6*%
X392750000Y-164150000D02*
X392750000Y-150150000D01*
X392750000Y-164150000D02*
X378750000Y-164150000D01*
X378750000Y-164150000D02*
X378750000Y-150150000D01*
X392750000Y-150150000D02*
X378750000Y-150150000D01*
%TO.C,SW7*%
X392750000Y-183200000D02*
X392750000Y-169200000D01*
X392750000Y-183200000D02*
X378750000Y-183200000D01*
X378750000Y-183200000D02*
X378750000Y-169200000D01*
X392750000Y-169200000D02*
X378750000Y-169200000D01*
%TO.C,SW8*%
X392750000Y-202250000D02*
X392750000Y-188250000D01*
X392750000Y-202250000D02*
X378750000Y-202250000D01*
X378750000Y-202250000D02*
X378750000Y-188250000D01*
X392750000Y-188250000D02*
X378750000Y-188250000D01*
%TO.C,SW75*%
X133193750Y-188250000D02*
X119193750Y-188250000D01*
X133193750Y-202250000D02*
X133193750Y-188250000D01*
X133193750Y-202250000D02*
X119193750Y-202250000D01*
X119193750Y-202250000D02*
X119193750Y-188250000D01*
%TO.C,SW71*%
X347506250Y-169200000D02*
X333506250Y-169200000D01*
X347506250Y-183200000D02*
X347506250Y-169200000D01*
X347506250Y-183200000D02*
X333506250Y-183200000D01*
X333506250Y-183200000D02*
X333506250Y-169200000D01*
%TO.C,SW10*%
X64137500Y-183200000D02*
X64137500Y-169200000D01*
X64137500Y-183200000D02*
X50137500Y-183200000D01*
X50137500Y-183200000D02*
X50137500Y-169200000D01*
X64137500Y-169200000D02*
X50137500Y-169200000D01*
%TO.C,SW11*%
X83187500Y-183200000D02*
X83187500Y-169200000D01*
X83187500Y-183200000D02*
X69187500Y-183200000D01*
X69187500Y-183200000D02*
X69187500Y-169200000D01*
X83187500Y-169200000D02*
X69187500Y-169200000D01*
%TO.C,SW12*%
X64137500Y-202250000D02*
X64137500Y-188250000D01*
X64137500Y-202250000D02*
X50137500Y-202250000D01*
X50137500Y-202250000D02*
X50137500Y-188250000D01*
X64137500Y-188250000D02*
X50137500Y-188250000D01*
%TO.C,SW13*%
X64137500Y-164150000D02*
X64137500Y-150150000D01*
X64137500Y-164150000D02*
X50137500Y-164150000D01*
X50137500Y-164150000D02*
X50137500Y-150150000D01*
X64137500Y-150150000D02*
X50137500Y-150150000D01*
%TO.C,SW14*%
X83187500Y-164150000D02*
X83187500Y-150150000D01*
X83187500Y-164150000D02*
X69187500Y-164150000D01*
X69187500Y-164150000D02*
X69187500Y-150150000D01*
X83187500Y-150150000D02*
X69187500Y-150150000D01*
%TD*%
M02*
