<?xml version="1.0" standalone="no"?>
 <!DOCTYPE svg PUBLIC "-//W3C//DTD SVG 1.1//EN" 
 "http://www.w3.org/Graphics/SVG/1.1/DTD/svg11.dtd"> 
<svg
  xmlns:svg="http://www.w3.org/2000/svg"
  xmlns="http://www.w3.org/2000/svg"
  xmlns:xlink="http://www.w3.org/1999/xlink"
  version="1.1"
  width="59.400440cm" height="41.998900cm" viewBox="0 0 233860 165350">
<title>SVG Picture created as EVO70_FR4_plate_acrylic-Eco2_User.svg date 2021/09/04 15:55:49 </title>
  <desc>Picture generated by PCBNEW </desc>
<g style="fill:#000000; fill-opacity:1;stroke:#000000; stroke-opacity:1;
stroke-linecap:round; stroke-linejoin:round;"
 transform="translate(0 0) scale(1 1)">
</g>
<g style="fill:#000000; fill-opacity:0.0; 
stroke:#000000; stroke-width:-0.000393701; stroke-opacity:1; 
stroke-linecap:round; stroke-linejoin:round;">
</g>
<g style="fill:#000000; fill-opacity:0.0; 
stroke:#000000; stroke-width:59.0551; stroke-opacity:1; 
stroke-linecap:round; stroke-linejoin:round;">
<path d="M63332 81023
L20048 81023
" />
<path d="M111013 81023
L154316 81023
" />
<path d="M63332 41535
L20048 41535
" />
<path d="M154316 41535
L111013 41535
" />
</g>
<g style="fill:#000000; fill-opacity:0.0; 
stroke:#000000; stroke-width:39.3701; stroke-opacity:1; 
stroke-linecap:round; stroke-linejoin:round;">
<path d="M18233 43350
L18233 79208
" />
</g>
<g style="fill:#000000; fill-opacity:0.0; 
stroke:#000000; stroke-width:59.0551; stroke-opacity:1; 
stroke-linecap:round; stroke-linejoin:round;">
<path d="M109411 81948.8 A1068.31 1068.31 0.0 0 0 111548 81948.8" />
<path d="M111547 81948
L111013 81023
" />
<path d="M109945 81023
L109411 81948
" />
<path d="M111548 40610.2 A1068.31 1068.31 0.0 0 0 109411 40610.2" />
<path d="M109411 40610
L109945 41535
" />
<path d="M111013 41535
L111547 40610
" />
</g>
<g style="fill:#000000; fill-opacity:0.0; 
stroke:#000000; stroke-width:39.3701; stroke-opacity:1; 
stroke-linecap:round; stroke-linejoin:round;">
<path d="M109945 81023
L64400 81023
" />
</g>
<g style="fill:#000000; fill-opacity:0.0; 
stroke:#000000; stroke-width:59.0551; stroke-opacity:1; 
stroke-linecap:round; stroke-linejoin:round;">
<path d="M64935 81948
L64400 81023
" />
<path d="M62798.5 81948.8 A1068.31 1068.31 0.0 0 0 64935.1 81948.8" />
<path d="M63332 81023
L62798 81948
" />
<path d="M64400 41535
L64935 40610
" />
<path d="M62798 40610
L63332 41535
" />
<path d="M64935.1 40610.2 A1068.31 1068.31 0.0 0 0 62798.5 40610.2" />
<path d="M17253 41690
L16328 41156
" />
<path d="M18179.1 40087.9 A1068.33 1068.33 0.0 1 0 16328.7 41156.2" />
<path d="M18179 40622
L18179 41156
" />
<path d="M17253 41690
L18179 41156
" />
<path d="M18179 40622
L18179 40087
" />
<path d="M18322 81866
L17788 82791
" />
<path d="M16719.8 80940.9 A1068.33 1068.33 0.0 0 0 17788.1 82791.3" />
<path d="M17253 80940
L17788 80940
" />
<path d="M18322 81866
L17788 80940
" />
<path d="M17253 80940
L16719 80940
" />
<path d="M157092 80797
L158017 81331
" />
<path d="M156167 82400.3 A1068.33 1068.33 0.0 0 0 158018 81332" />
<path d="M156167 81866
L156167 81331
" />
<path d="M157092 80797
L156167 81331
" />
<path d="M156167 81866
L156167 82400
" />
<path d="M157627 41547.2 A1068.33 1068.33 0.0 0 0 156558 39696.9" />
<path d="M157092 41547
L156558 41547
" />
<path d="M156024 40622
L156558 41547
" />
<path d="M157092 41547
L157626 41547
" />
<path d="M156024 40622
L156558 39696
" />
</g>
<g style="fill:#000000; fill-opacity:0.0; 
stroke:#000000; stroke-width:39.3701; stroke-opacity:1; 
stroke-linecap:round; stroke-linejoin:round;">
<path d="M64400 41535
L109945 41535
" />
<path d="M156132 43350.4 A1814.96 1814.96 0.0 0 0 154317 41535.4" />
<path d="M154317 81023.6 A1814.96 1814.96 0.0 0 0 156132 79208.7" />
<path d="M18233.3 79208.7 A1814.96 1814.96 0.0 0 0 20048.2 81023.6" />
<path d="M20048.2 41535.4 A1814.96 1814.96 0.0 0 0 18233.3 43350.4" />
<path d="M17172.2 38523.6 A1952.76 1952.76 0.0 0 0 15219.5 40476.4" />
<path d="M15219 40476
L15219 82082
" />
<path d="M15219.5 82082.7 A1952.76 1952.76 0.0 0 0 17172.2 84035.4" />
<path d="M157193 84035.4 A1952.76 1952.76 0.0 0 0 159146 82082.7" />
<path d="M157192 84035
L17172 84035
" />
<path d="M159146 40476.4 A1952.76 1952.76 0.0 0 0 157193 38523.6" />
<path d="M157192 38523
L17172 38523
" />
<path d="M159145 40476
L159145 82082
" />
<path d="M156131 43350
L156131 79208
" />
<g >
</g>
<g >
</g>
<g >
</g>
<g >
</g>
<g >
</g>
<g >
</g>
<g >
</g>
<g >
</g>
<g >
</g>
<g >
</g>
<g >
</g>
<g >
</g>
<g >
</g>
<g >
</g>
<g >
</g>
<g >
</g>
<g >
</g>
<g >
</g>
<g >
</g>
<g >
</g>
<g >
</g>
<g >
</g>
<g >
</g>
<g >
</g>
<g >
</g>
<g >
</g>
<g >
</g>
<g >
</g>
<g >
</g>
<g >
</g>
<g >
</g>
<g >
</g>
<g >
</g>
<g >
</g>
<g >
</g>
<g >
</g>
<g >
</g>
<g >
</g>
<g >
</g>
<g >
</g>
<g >
</g>
<g >
</g>
<g >
</g>
<g >
</g>
<g >
</g>
<g >
</g>
<g >
</g>
<g >
</g>
<g >
</g>
<g >
</g>
<g >
</g>
<g >
</g>
<g >
</g>
<g >
</g>
<g >
</g>
<g >
</g>
<g >
</g>
<g >
</g>
<g >
</g>
<g >
</g>
<g >
</g>
<g >
</g>
<g >
</g>
<g >
</g>
<g >
</g>
<g >
</g>
<g >
</g>
<g >
</g>
<g >
</g>
<g >
</g>
<g >
</g>
<g >
</g>
<g >
</g>
<g >
</g>
<g >
</g>
<g >
</g>
<g >
</g>
<g >
</g>
<g >
</g>
<g >
</g>
<g >
</g>
<g >
</g>
<g >
</g>
<g >
</g>
<g >
</g>
<g >
</g>
<g >
</g>
<g >
</g>
<g >
</g>
<g >
</g>
</g> 
</svg>
